<?xml version="1.0" encoding="UTF-8" standalone="no"?><!DOCTYPE svg PUBLIC "-//W3C//DTD SVG 1.1//EN" "http://www.w3.org/Graphics/SVG/1.1/DTD/svg11.dtd"><svg xmlns="http://www.w3.org/2000/svg" version="1.1" width="197" height="83"><path fill="none" stroke="#000000" stroke-width="2" stroke-linecap="round" stroke-linejoin="round" d="M 196 82 c -0.17 -0.19 -6.41 -7.58 -10 -11 c -3.43 -3.27 -7 -7.62 -11 -9 c -11.81 -4.09 -27.27 -6.79 -41 -9 c -6.87 -1.11 -13.76 -0.81 -21 -1 c -6.2 -0.16 -12.52 -0.78 -18 0 c -3.28 0.47 -7.77 2.07 -10 4 c -2.13 1.85 -4.45 6.13 -5 9 c -0.64 3.36 -0.79 10.54 1 12 c 2.24 1.82 10.73 1.96 15 1 c 5.08 -1.15 12.61 -4.35 16 -8 c 4.23 -4.56 7.91 -13.38 10 -20 c 1.69 -5.37 3.76 -14.48 2 -18 c -1.65 -3.3 -10.05 -7.16 -15 -8 c -9.32 -1.59 -21.1 -0.39 -32 0 c -8.2 0.29 -16.22 0.62 -24 2 c -7.06 1.25 -18.18 6.85 -21 6 c -1.55 -0.47 1.47 -8.4 1 -12 c -0.46 -3.5 -1.84 -8.71 -4 -11 c -2.73 -2.89 -8.73 -5.52 -13 -7 c -2.91 -1.01 -6.82 -1 -10 -1 l -5 1"/></svg>