<?xml version="1.0" encoding="UTF-8" standalone="no"?><!DOCTYPE svg PUBLIC "-//W3C//DTD SVG 1.1//EN" "http://www.w3.org/Graphics/SVG/1.1/DTD/svg11.dtd"><svg xmlns="http://www.w3.org/2000/svg" version="1.1" width="211" height="109"><path fill="none" stroke="#000000" stroke-width="2" stroke-linecap="round" stroke-linejoin="round" d="M 108 108 c 0 -0.14 0.53 -5.52 0 -8 c -1.39 -6.48 -3.69 -13.21 -6 -20 c -3.88 -11.42 -6.78 -23.25 -12 -33 c -4.34 -8.11 -11.3 -16.63 -18 -23 c -6.43 -6.12 -15.1 -12.13 -23 -16 c -7.05 -3.45 -16.5 -6.01 -24 -7 c -4.24 -0.56 -10.45 0.3 -14 2 c -3.2 1.53 -7.85 5.78 -9 9 c -1.72 4.81 -1 12.56 -1 19 c 0 6.78 -0.69 14.31 1 20 c 1.67 5.6 6.28 11.61 10 17 c 2.94 4.27 6.37 8.73 10 12 c 2.71 2.44 6.7 4.72 10 6 c 2.28 0.89 6.58 2.02 8 1 c 2.21 -1.58 4.89 -7.48 6 -11 c 0.71 -2.25 0.36 -5.51 0 -8 c -0.28 -1.97 -0.95 -4.79 -2 -6 c -0.9 -1.03 -3.37 -1.7 -5 -2 c -1.82 -0.33 -6.1 0 -6 0 c 0.6 0 22.98 1.31 34 0 c 13.93 -1.65 28.08 -5 42 -9 c 20.19 -5.8 38.8 -13.69 59 -20 c 7 -2.19 14.43 -4.4 21 -5 c 3.7 -0.34 10.1 -0.17 12 2 l 9 22"/></svg>