<?xml version="1.0" encoding="UTF-8" standalone="no"?><!DOCTYPE svg PUBLIC "-//W3C//DTD SVG 1.1//EN" "http://www.w3.org/Graphics/SVG/1.1/DTD/svg11.dtd"><svg xmlns="http://www.w3.org/2000/svg" version="1.1" width="268" height="67"><path fill="none" stroke="#000000" stroke-width="2" stroke-linecap="round" stroke-linejoin="round" d="M 15 66 c -0.09 -0.19 -3.56 -7.17 -5 -11 c -2.63 -7.01 -5.83 -13.99 -7 -21 c -1.74 -10.46 -4.2 -28.6 -2 -33 c 1.15 -2.3 12.11 0.96 17 3 c 6.36 2.65 12.8 7.63 19 12 c 5.3 3.74 9.67 8.49 15 12 c 7.33 4.82 15.45 9.76 23 13 c 3.48 1.49 7.98 1.66 12 2 c 3.97 0.33 9.67 1 12 0 c 1.23 -0.53 2.28 -4.59 2 -6 c -0.25 -1.26 -2.55 -3.66 -4 -4 c -3.32 -0.78 -8.59 -0.18 -13 0 c -3.75 0.16 -7.79 0.2 -11 1 c -1.7 0.42 -3.67 1.86 -5 3 c -0.82 0.71 -2.43 2.8 -2 3 c 1.83 0.84 9.99 2.73 15 3 c 13.1 0.71 26.46 0.68 40 0 c 13.61 -0.68 28.45 -4 40 -4 c 2.57 0 5.26 3.23 8 4 c 5.28 1.48 11.31 2.63 17 3 c 9.57 0.62 20.33 1.67 29 0 c 7.49 -1.44 15.48 -6.16 23 -10 c 8.34 -4.26 17.8 -9.47 24 -14 c 1.2 -0.88 1.11 -3.76 2 -5 l 3 -2"/></svg>