<?xml version="1.0" encoding="UTF-8" standalone="no"?><!DOCTYPE svg PUBLIC "-//W3C//DTD SVG 1.1//EN" "http://www.w3.org/Graphics/SVG/1.1/DTD/svg11.dtd"><svg xmlns="http://www.w3.org/2000/svg" version="1.1" width="281" height="66"><path fill="none" stroke="#000000" stroke-width="2" stroke-linecap="round" stroke-linejoin="round" d="M 4 65 c -0.05 -0.1 -2.73 -4.11 -3 -6 c -0.32 -2.27 0.18 -5.66 1 -8 c 1.05 -2.98 2.88 -6.41 5 -9 c 8 -9.81 16.88 -19.65 26 -29 c 4.32 -4.43 13.09 -12.91 14 -12 c 1.07 1.07 -4.26 14.05 -5 21 c -0.89 8.38 -1.09 19.26 0 26 c 0.3 1.83 3.14 3.84 5 5 c 3.18 1.99 7.29 3.92 11 5 c 4.03 1.18 8.62 1.81 13 2 c 10.65 0.47 21.52 0.5 32 0 c 3.34 -0.16 6.88 -1.03 10 -2 c 2.05 -0.64 4.56 -1.72 6 -3 c 1.25 -1.11 2.51 -3.38 3 -5 c 0.42 -1.39 -0.56 -4.02 0 -5 c 0.5 -0.88 2.96 -2.31 4 -2 c 3.45 1.01 8.58 5.23 13 7 c 3.7 1.48 8.03 2.59 12 3 c 5.46 0.56 12.03 1.03 17 0 c 3.92 -0.81 8.86 -3.65 12 -6 c 1.69 -1.26 3.78 -4.11 4 -6 c 0.35 -2.94 -0.04 -8.95 -2 -11 c -3.84 -4.03 -12.37 -7.42 -19 -11 c -6.08 -3.28 -11.88 -6.66 -18 -9 c -5.02 -1.92 -10.61 -3.04 -16 -4 c -3.94 -0.7 -8.56 -1.52 -12 -1 c -2.56 0.38 -7.25 2.12 -8 4 c -1.35 3.37 -0.34 10.63 0 16 c 0.34 5.41 0.28 11.62 2 16 c 1.6 4.08 5.58 9.2 9 12 c 3.27 2.67 8.74 5.25 13 6 c 6.24 1.1 14.75 0.5 21 0 c 1.33 -0.11 3.5 -1.01 4 -2 c 1.13 -2.27 0.19 -8.19 2 -10 c 3.42 -3.42 11.13 -6.41 17 -9 c 5.5 -2.43 11.23 -4.52 17 -6 c 5.84 -1.5 11.95 -2.79 18 -3 c 22.54 -0.79 68 0 68 0"/></svg>