<?xml version="1.0" encoding="UTF-8" standalone="no"?><!DOCTYPE svg PUBLIC "-//W3C//DTD SVG 1.1//EN" "http://www.w3.org/Graphics/SVG/1.1/DTD/svg11.dtd"><svg xmlns="http://www.w3.org/2000/svg" version="1.1" width="250" height="51"><path fill="none" stroke="#000000" stroke-width="2" stroke-linecap="round" stroke-linejoin="round" d="M 1 1 c 0.19 0.12 7.61 4.34 11 7 c 4.24 3.32 7.65 7.86 12 11 c 7.56 5.46 15.67 10.21 24 15 c 5.26 3.03 10.46 5.57 16 8 c 5.3 2.32 10.62 4.57 16 6 c 4.45 1.19 10.73 2.54 14 2 c 1.48 -0.25 3.28 -3.19 4 -5 c 1.75 -4.38 2.94 -9.93 4 -15 c 0.62 -2.95 1.2 -6.42 1 -9 c -0.1 -1.28 -1.13 -3.27 -2 -4 c -0.8 -0.67 -4.09 -1 -4 -1 c 0.38 0 12.11 0.06 18 1 c 8.72 1.39 20.88 5.82 26 6 c 1.03 0.04 1.75 -3.36 2 -5 c 0.37 -2.43 -0.58 -5.68 0 -8 c 0.65 -2.59 2.24 -6.99 4 -8 c 1.97 -1.12 6.95 -0.68 10 0 c 5.49 1.22 11.61 3.43 17 6 c 9.24 4.41 17.78 11.02 27 15 c 7.46 3.22 17.09 6.14 24 7 c 2.36 0.3 6.29 -1.29 8 -3 c 4.17 -4.17 7.9 -11.88 12 -17 l 4 -3"/></svg>