<?xml version="1.0" encoding="UTF-8" standalone="no"?><!DOCTYPE svg PUBLIC "-//W3C//DTD SVG 1.1//EN" "http://www.w3.org/Graphics/SVG/1.1/DTD/svg11.dtd"><svg xmlns="http://www.w3.org/2000/svg" version="1.1" width="156" height="107"><path fill="none" stroke="#000000" stroke-width="2" stroke-linecap="round" stroke-linejoin="round" d="M 155 10 c -0.16 -0.09 -5.9 -4.07 -9 -5 c -6.44 -1.93 -14.17 -3.7 -21 -4 c -7.69 -0.34 -17.21 -0.21 -24 2 c -6.34 2.06 -14.65 7.02 -19 12 c -5.97 6.85 -11.57 17.91 -15 27 c -2.94 7.79 -4.12 17.34 -5 26 c -0.77 7.52 -0.85 15.98 0 23 c 0.4 3.29 2.17 7.67 4 10 c 1.37 1.74 4.66 3.16 7 4 c 2.05 0.73 5.56 1.58 7 1 c 1.19 -0.48 2.44 -3.25 3 -5 c 1.67 -5.25 2.97 -11.25 4 -17 c 0.65 -3.64 1.17 -7.52 1 -11 c -0.15 -2.91 -0.61 -6.92 -2 -9 c -1.5 -2.26 -5.32 -4.83 -8 -6 c -2.16 -0.94 -5.29 -0.94 -8 -1 c -13.11 -0.28 -25.83 0.27 -39 0 c -3.06 -0.06 -6.37 -0.12 -9 -1 c -2.99 -1 -5.88 -3.66 -9 -5 l -12 -4"/></svg>