<?xml version="1.0" encoding="UTF-8" standalone="no"?><!DOCTYPE svg PUBLIC "-//W3C//DTD SVG 1.1//EN" "http://www.w3.org/Graphics/SVG/1.1/DTD/svg11.dtd"><svg xmlns="http://www.w3.org/2000/svg" version="1.1" width="154" height="81"><path fill="none" stroke="#000000" stroke-width="2" stroke-linecap="round" stroke-linejoin="round" d="M 153 13 c -0.54 0 -21 -0.96 -31 0 c -6.96 0.67 -14.5 2.52 -21 5 c -7.14 2.72 -13.75 7.74 -21 11 c -6.2 2.79 -12.65 4.33 -19 7 c -6.59 2.77 -13.64 5.83 -19 9 c -1.27 0.75 -2.73 2.64 -3 4 c -0.6 3 -0.65 7.73 0 11 c 0.59 2.93 2.22 6.53 4 9 c 2.3 3.19 5.94 6.75 9 9 c 1.52 1.12 4.99 2.29 6 2 c 0.66 -0.19 0.96 -2.67 1 -4 c 0.28 -9.68 1.62 -22.52 0 -30 c -0.57 -2.65 -5.66 -4.47 -8 -7 c -1.9 -2.04 -3.04 -5.6 -5 -7 c -2.16 -1.54 -6.29 -1.75 -9 -3 c -1.43 -0.66 -2.55 -2.39 -4 -3 c -4.58 -1.93 -10.91 -2.52 -15 -5 c -4.58 -2.78 -9.45 -7.83 -13 -12 l -4 -8"/></svg>