<?xml version="1.0" encoding="UTF-8" standalone="no"?><!DOCTYPE svg PUBLIC "-//W3C//DTD SVG 1.1//EN" "http://www.w3.org/Graphics/SVG/1.1/DTD/svg11.dtd"><svg xmlns="http://www.w3.org/2000/svg" version="1.1" width="184" height="94"><path fill="none" stroke="#000000" stroke-width="2" stroke-linecap="round" stroke-linejoin="round" d="M 183 93 c 0 -0.45 1.51 -18.27 0 -26 c -1.28 -6.52 -5.24 -13.85 -9 -20 c -7.13 -11.67 -15.65 -24.99 -24 -34 c -3.14 -3.39 -9.2 -5.12 -14 -7 c -4.46 -1.75 -9.32 -3.19 -14 -4 c -4.84 -0.83 -10.4 -1.38 -15 -1 c -2.9 0.24 -6.7 1.52 -9 3 c -1.89 1.22 -4.64 3.87 -5 6 c -1.36 7.91 -2.68 21.53 -1 29 c 0.86 3.83 6.45 7.45 10 11 c 2.54 2.54 5.18 5.06 8 7 c 2.37 1.63 5.42 3.31 8 4 c 2.02 0.54 5.4 0.64 7 0 c 1.15 -0.46 2.44 -2.56 3 -4 c 1.63 -4.2 3.39 -9.4 4 -14 c 0.67 -5.06 0.88 -11.24 0 -16 c -0.67 -3.59 -2.62 -8.49 -5 -11 c -3.28 -3.45 -9.29 -7.43 -14 -9 c -5.4 -1.8 -12.55 -1.66 -19 -2 c -6.42 -0.34 -13.89 -1.55 -19 0 c -4.63 1.4 -10.11 6.3 -14 10 c -2.76 2.63 -5.58 6.52 -7 10 c -2.03 4.98 -3.51 11.47 -4 17 c -0.48 5.39 -0.94 13.27 1 17 c 1.64 3.16 9.3 7.1 12 8 c 0.79 0.26 2.61 -1.96 3 -3 c 0.46 -1.23 0.84 -4.44 0 -5 c -2.08 -1.39 -8.02 -2.72 -12 -3 c -9.98 -0.7 -22.09 -1.92 -31 0 c -6.56 1.41 -14.29 7.37 -20 11 l -2 3"/></svg>