<?xml version="1.0" encoding="UTF-8" standalone="no"?><!DOCTYPE svg PUBLIC "-//W3C//DTD SVG 1.1//EN" "http://www.w3.org/Graphics/SVG/1.1/DTD/svg11.dtd"><svg xmlns="http://www.w3.org/2000/svg" version="1.1" width="257" height="102"><path fill="none" stroke="#000000" stroke-width="2" stroke-linecap="round" stroke-linejoin="round" d="M 2 53 c -0.02 -0.26 -1.34 -10.24 -1 -15 c 0.3 -4.22 1.42 -10.55 3 -13 c 0.72 -1.12 4.1 -1.11 6 -1 c 3.8 0.21 8.84 0.28 12 2 c 6.86 3.74 14.72 9.92 21 16 c 14.31 13.85 26.72 28.86 41 44 c 3.02 3.2 5.79 6.33 9 9 c 2.73 2.27 6.46 5.52 9 6 c 1.79 0.34 5.67 -1.45 7 -3 c 2.1 -2.46 4.08 -7.3 5 -11 c 1.31 -5.24 0.87 -11.79 2 -17 c 0.44 -2.04 1.69 -4.54 3 -6 c 1.41 -1.57 3.92 -3.6 6 -4 c 7.22 -1.4 16.45 -1.6 25 -2 c 6.13 -0.29 12.98 -1.63 18 0 c 7.99 2.6 21.28 16.98 25 14 c 7.73 -6.19 16.09 -36.44 25 -54 c 2.37 -4.66 5.83 -8.86 9 -13 c 1.13 -1.48 3.75 -4.54 4 -4 c 0.85 1.83 2.26 12.46 3 19 c 1.31 11.61 1.63 23.03 3 34 c 0.25 2.03 0.9 4.9 2 6 c 1.1 1.1 4.08 1.89 6 2 l 11 -1"/></svg>