<?xml version="1.0" encoding="UTF-8" standalone="no"?><!DOCTYPE svg PUBLIC "-//W3C//DTD SVG 1.1//EN" "http://www.w3.org/Graphics/SVG/1.1/DTD/svg11.dtd"><svg xmlns="http://www.w3.org/2000/svg" version="1.1" width="171" height="38"><path fill="none" stroke="#000000" stroke-width="2" stroke-linecap="round" stroke-linejoin="round" d="M 170 18 c -0.3 -0.16 -11.1 -6.3 -17 -9 c -5.92 -2.71 -12.04 -6.33 -18 -7 c -16.37 -1.84 -37.16 -2.2 -53 -1 c -4.28 0.32 -9.08 3.65 -13 6 c -2.52 1.51 -5.5 3.84 -7 6 c -1.18 1.71 -1.65 4.7 -2 7 c -0.29 1.89 -0.92 5.26 0 6 c 1.57 1.25 7.39 2.19 10 2 c 1.28 -0.09 4.18 -2.28 4 -3 c -0.28 -1.13 -3.84 -4.4 -6 -5 c -6.42 -1.77 -15.23 -2.62 -23 -3 c -13.07 -0.63 -27.02 -0.54 -39 0 c -1.65 0.08 -4.32 1.05 -5 2 c -0.63 0.88 -0.71 3.9 0 5 c 1.81 2.81 6.42 5.95 9 9 l 2 4"/></svg>