<?xml version="1.0" encoding="UTF-8" standalone="no"?><!DOCTYPE svg PUBLIC "-//W3C//DTD SVG 1.1//EN" "http://www.w3.org/Graphics/SVG/1.1/DTD/svg11.dtd"><svg xmlns="http://www.w3.org/2000/svg" version="1.1" width="145" height="77"><path fill="none" stroke="#000000" stroke-width="2" stroke-linecap="round" stroke-linejoin="round" d="M 144 5 c -0.3 -0.07 -11.42 -3.03 -17 -4 c -1.92 -0.33 -4.02 -0.17 -6 0 c -2.01 0.17 -4.45 0.17 -6 1 c -2.35 1.27 -5.31 3.75 -7 6 c -2.05 2.73 -3.77 6.53 -5 10 c -2.41 6.78 -4.9 13.92 -6 21 c -1.87 12.03 -2.52 35.15 -3 37 c -0.14 0.54 -2.24 -7.36 -4 -10 c -1.28 -1.92 -3.89 -4.08 -6 -5 c -2.75 -1.2 -6.66 -1.81 -10 -2 c -8.19 -0.47 -16.76 -0.46 -25 0 c -3.68 0.2 -7.3 1.18 -11 2 c -2.41 0.54 -4.87 1.15 -7 2 c -1.06 0.42 -2.9 2.34 -3 2 c -0.24 -0.85 1 -6.11 1 -9 c 0 -1.94 -0.14 -4.72 -1 -6 c -0.82 -1.23 -3.28 -2.59 -5 -3 c -4.76 -1.13 -11.16 -2 -16 -2 l -6 2"/></svg>