<?xml version="1.0" encoding="UTF-8" standalone="no"?><!DOCTYPE svg PUBLIC "-//W3C//DTD SVG 1.1//EN" "http://www.w3.org/Graphics/SVG/1.1/DTD/svg11.dtd"><svg xmlns="http://www.w3.org/2000/svg" version="1.1" width="190" height="89"><path fill="none" stroke="#000000" stroke-width="2" stroke-linecap="round" stroke-linejoin="round" d="M 1 74 c 0.02 -0.16 0.02 -6.39 1 -9 c 1.84 -4.9 5.68 -9.78 8 -15 c 3.07 -6.9 4.71 -14.29 8 -21 c 4.72 -9.64 12.98 -26.16 16 -28 c 1.46 -0.89 5.35 9.2 7 14 c 2.27 6.62 2.07 15.02 5 21 c 4.29 8.76 11.46 18.03 18 26 c 3.95 4.81 9 9.29 14 13 c 5.16 3.83 11.29 7.75 17 10 c 4.72 1.86 11.12 3 16 3 c 3.42 0 8.75 -0.83 11 -3 c 6.08 -5.87 12.59 -16.44 18 -25 c 2.51 -3.98 4.58 -12.88 6 -13 c 1.33 -0.11 3.41 8.62 6 12 c 4.78 6.24 11.49 13.2 17 18 c 1.41 1.22 4.02 1.8 6 2 l 14 0"/></svg>