<?xml version="1.0" encoding="UTF-8" standalone="no"?><!DOCTYPE svg PUBLIC "-//W3C//DTD SVG 1.1//EN" "http://www.w3.org/Graphics/SVG/1.1/DTD/svg11.dtd"><svg xmlns="http://www.w3.org/2000/svg" version="1.1" width="266" height="78"><path fill="none" stroke="#000000" stroke-width="2" stroke-linecap="round" stroke-linejoin="round" d="M 265 31 c -0.38 -0.09 -14.37 -3.54 -22 -5 c -15.79 -3.02 -30.73 -6.77 -46 -8 c -13.41 -1.08 -27.23 -0.09 -41 1 c -11.87 0.94 -25.27 1.69 -35 5 c -5.29 1.8 -11.83 7.56 -15 12 c -2.77 3.87 -4.27 10.75 -5 16 c -0.87 6.26 -0.26 13.45 0 20 c 0.07 1.67 1.46 5.16 1 5 c -2.17 -0.76 -13.79 -8.58 -21 -12 c -5.38 -2.55 -11.53 -3.76 -17 -6 c -1.77 -0.72 -3.65 -1.72 -5 -3 c -4.42 -4.18 -9.34 -9.37 -13 -14 c -1.03 -1.31 -0.94 -4.06 -2 -5 c -1.49 -1.33 -4.68 -2.82 -7 -3 c -9.73 -0.75 -21.68 0.29 -32 0 c -1.33 -0.04 -4.16 -0.52 -4 -1 c 0.41 -1.23 4.45 -5.45 7 -8 c 6.63 -6.63 13.89 -12.63 20 -19 c 1.29 -1.35 3.48 -5 3 -5 c -1.47 0 -11.78 2.96 -17 5 l -6 4"/></svg>