<?xml version="1.0" encoding="UTF-8" standalone="no"?><!DOCTYPE svg PUBLIC "-//W3C//DTD SVG 1.1//EN" "http://www.w3.org/Graphics/SVG/1.1/DTD/svg11.dtd"><svg xmlns="http://www.w3.org/2000/svg" version="1.1" width="236" height="107"><path fill="none" stroke="#000000" stroke-width="2" stroke-linecap="round" stroke-linejoin="round" d="M 1 56 c 0.23 -0.42 8.1 -16.39 13 -24 c 4.09 -6.36 9.02 -12.37 14 -18 c 2.63 -2.97 5.88 -5.55 9 -8 c 1.51 -1.19 3.27 -2.34 5 -3 c 2.44 -0.94 5.36 -1.67 8 -2 c 2.56 -0.32 6.34 -1.17 8 0 c 3.84 2.69 7.66 10.2 12 14 c 3.27 2.86 7.96 5.08 12 7 c 2.12 1 4.7 1.65 7 2 c 1.89 0.29 4.33 0.37 6 0 c 1 -0.22 2.22 -1.22 3 -2 c 0.78 -0.78 1.75 -2 2 -3 c 0.34 -1.38 0 -5.09 0 -5 c 0 0.3 -0.97 12.33 0 17 c 0.49 2.37 3.01 5.26 5 7 c 3.01 2.64 7.3 5.48 11 7 c 3.18 1.3 7.32 1.71 11 2 c 4.6 0.37 9.79 0.81 14 0 c 3.91 -0.75 10.01 -5 12 -5 c 0.78 0 1.44 3.64 1 5 c -1.88 5.87 -6.23 13.07 -9 20 c -2.68 6.7 -5.64 13.39 -7 20 c -1.22 5.93 -1.97 15.93 -1 19 c 0.36 1.13 5.22 0.89 7 0 c 6.42 -3.21 14.39 -8.86 21 -14 c 5.37 -4.18 10.02 -9.02 15 -14 c 6 -6 13.6 -16.3 17 -18 c 1.18 -0.59 3.11 5.84 5 7 c 1.77 1.09 5.29 0.92 8 1 l 25 0"/></svg>