<?xml version="1.0" encoding="UTF-8" standalone="no"?><!DOCTYPE svg PUBLIC "-//W3C//DTD SVG 1.1//EN" "http://www.w3.org/Graphics/SVG/1.1/DTD/svg11.dtd"><svg xmlns="http://www.w3.org/2000/svg" version="1.1" width="247" height="62"><path fill="none" stroke="#000000" stroke-width="2" stroke-linecap="round" stroke-linejoin="round" d="M 1 27 c 0 -0.42 -0.83 -18.62 0 -24 c 0.15 -1 2.93 -2.27 4 -2 c 3.21 0.8 8.55 3.41 12 6 c 8.2 6.15 15.49 14.38 24 21 c 9.77 7.6 19.62 15.07 30 21 c 8 4.57 17.5 8.83 26 11 c 6.33 1.62 14.3 1.39 21 1 c 4.25 -0.25 10.21 -0.85 13 -3 c 3.48 -2.69 7.27 -9.2 9 -14 c 2.33 -6.44 2.92 -14.7 4 -22 c 0.24 -1.63 -0.57 -5.17 0 -5 c 2.6 0.78 13.25 7.85 20 11 c 3.09 1.44 6.66 2.6 10 3 c 7.37 0.89 17.03 2.54 23 1 c 4.05 -1.04 7.95 -6.96 12 -10 c 1.16 -0.87 2.68 -1.83 4 -2 c 3.55 -0.44 8.55 -1.05 12 0 c 6.69 2.03 21 10 21 10"/></svg>