<?xml version="1.0" encoding="UTF-8" standalone="no"?><!DOCTYPE svg PUBLIC "-//W3C//DTD SVG 1.1//EN" "http://www.w3.org/Graphics/SVG/1.1/DTD/svg11.dtd"><svg xmlns="http://www.w3.org/2000/svg" version="1.1" width="334" height="87"><path fill="none" stroke="#000000" stroke-width="2" stroke-linecap="round" stroke-linejoin="round" d="M 1 86 c 0 -0.14 -0.32 -5.44 0 -8 c 0.33 -2.64 0.71 -6.28 2 -8 c 1.26 -1.68 4.76 -3.63 7 -4 c 3.07 -0.51 7.73 -0.05 11 1 c 5.56 1.79 11.14 5.62 17 8 c 4.93 2 9.86 3.71 15 5 c 6.95 1.74 13.89 3.09 21 4 c 5.99 0.77 12.41 1.64 18 1 c 5.49 -0.63 14.7 -1.22 17 -5 c 9.67 -15.89 18.76 -45.58 28 -69 c 0.9 -2.29 1.15 -4.87 2 -7 c 0.42 -1.06 1.21 -2.82 2 -3 c 1.55 -0.34 5.65 -0.3 7 1 c 6.13 5.91 12.9 16.85 20 25 c 4.39 5.04 9.35 9.87 14 14 c 1.05 0.93 3.05 2.28 4 2 c 1.65 -0.5 4.51 -3.1 6 -5 c 1.96 -2.5 3.15 -6.74 5 -9 c 0.8 -0.98 2.69 -1.76 4 -2 c 2.05 -0.37 5.36 -0.91 7 0 c 3.48 1.93 7.07 7.17 11 10 c 4.26 3.07 9.19 6.36 14 8 c 7.31 2.5 16.04 4.03 24 5 c 5.52 0.67 11.72 0.82 17 0 c 4.91 -0.77 11.36 -2.38 15 -5 c 3.78 -2.72 6.24 -9.4 10 -13 c 3.94 -3.78 9.41 -6.36 14 -10 l 20 -17"/></svg>