<?xml version="1.0" encoding="UTF-8" standalone="no"?><!DOCTYPE svg PUBLIC "-//W3C//DTD SVG 1.1//EN" "http://www.w3.org/Graphics/SVG/1.1/DTD/svg11.dtd"><svg xmlns="http://www.w3.org/2000/svg" version="1.1" width="162" height="62"><path fill="none" stroke="#000000" stroke-width="2" stroke-linecap="round" stroke-linejoin="round" d="M 161 61 c -0.02 -0.14 -0.14 -5.67 -1 -8 c -1.34 -3.62 -3.64 -7.6 -6 -11 c -3.61 -5.22 -7.38 -11.13 -12 -15 c -7.13 -5.98 -16.45 -12.15 -25 -16 c -7.75 -3.5 -17.2 -5.4 -26 -7 c -9.53 -1.73 -19.51 -2.79 -29 -3 c -5.57 -0.12 -11.69 0.72 -17 2 c -4.03 0.97 -9.88 2.6 -12 5 c -2.02 2.28 -2.59 8.03 -3 12 c -0.56 5.46 -1.31 12.42 0 17 c 1.05 3.66 5.24 8.24 8 11 c 1.09 1.09 4.05 2.27 5 2 c 0.79 -0.23 1.85 -2.67 2 -4 c 0.46 -4.15 0.55 -9.59 0 -14 c -0.41 -3.29 -1.31 -7.6 -3 -10 c -1.85 -2.62 -5.89 -4.93 -9 -7 c -1.83 -1.22 -4.06 -2.51 -6 -3 c -1.74 -0.43 -4.22 -0.41 -6 0 c -2.26 0.52 -6.21 1.52 -7 3 c -1.04 1.94 0.42 7.05 0 10 c -0.19 1.32 -1.01 3.16 -2 4 l -11 7"/></svg>