<?xml version="1.0" encoding="UTF-8" standalone="no"?><!DOCTYPE svg PUBLIC "-//W3C//DTD SVG 1.1//EN" "http://www.w3.org/Graphics/SVG/1.1/DTD/svg11.dtd"><svg xmlns="http://www.w3.org/2000/svg" version="1.1" width="207" height="59"><path fill="none" stroke="#000000" stroke-width="2" stroke-linecap="round" stroke-linejoin="round" d="M 111 54 c -0.26 -0.04 -10.22 -1.04 -15 -2 c -1.7 -0.34 -3.86 -0.99 -5 -2 c -1.52 -1.36 -3.14 -3.86 -4 -6 c -3.01 -7.52 -4.68 -16.73 -8 -24 c -1.79 -3.91 -4.93 -8.23 -8 -11 c -3.14 -2.82 -8.04 -5.68 -12 -7 c -3.43 -1.14 -7.97 -1 -12 -1 c -6.03 0 -13.24 -0.78 -18 1 c -4.7 1.76 -9.8 6.98 -14 11 c -3.68 3.53 -7.36 7.85 -10 12 c -1.82 2.86 -3.38 6.75 -4 10 c -0.63 3.32 -0.9 8 0 11 c 0.88 2.95 3.64 7.23 6 9 c 2.28 1.71 6.71 2.57 10 3 c 4.09 0.53 9.53 1.2 13 0 c 4.22 -1.46 9.11 -5.7 13 -9 c 2.61 -2.22 4.83 -5.17 7 -8 c 2.2 -2.88 4.61 -5.9 6 -9 c 1.47 -3.27 1.72 -7.59 3 -11 c 0.65 -1.74 1.66 -4.53 3 -5 c 3.22 -1.14 9.39 -1 14 -1 c 2.65 0 5.61 0.2 8 1 c 3.31 1.1 7.06 2.86 10 5 c 7.83 5.7 15.13 13.1 23 19 c 2.71 2.04 6.05 4.36 9 5 c 4.02 0.87 10.23 1.34 14 0 c 5.46 -1.94 11.85 -6.73 17 -11 c 10.43 -8.66 20.02 -19.59 30 -28 c 2.18 -1.83 5.43 -3.27 8 -4 c 1.72 -0.49 4.57 -0.65 6 0 l 5 5"/></svg>