<?xml version="1.0" encoding="UTF-8" standalone="no"?><!DOCTYPE svg PUBLIC "-//W3C//DTD SVG 1.1//EN" "http://www.w3.org/Graphics/SVG/1.1/DTD/svg11.dtd"><svg xmlns="http://www.w3.org/2000/svg" version="1.1" width="262" height="103"><path fill="none" stroke="#000000" stroke-width="2" stroke-linecap="round" stroke-linejoin="round" d="M 261 30 c -0.17 -0.02 -6.78 -1 -10 -1 c -1.95 0 -4.38 0.26 -6 1 c -1.71 0.78 -4.38 2.41 -5 4 c -1.36 3.51 -1.71 9.28 -2 14 c -0.38 6.34 -0.92 13.04 0 19 c 1.01 6.55 3.46 13.64 6 20 c 2.07 5.18 7.17 14.59 8 15 c 0.54 0.27 0.24 -7.26 0 -11 c -0.78 -11.93 -0.18 -24.56 -3 -35 c -2.51 -9.31 -8.78 -18.97 -14 -28 c -3.47 -6 -7.74 -11.39 -12 -17 c -2.18 -2.86 -4.55 -6.11 -7 -8 c -1.46 -1.12 -4.04 -1.67 -6 -2 c -1.86 -0.31 -4.31 -0.59 -6 0 c -4.41 1.54 -9.18 4.96 -14 7 c -3.89 1.65 -8.01 3.73 -12 4 c -19.86 1.32 -43.13 -0.1 -63 1 c -2.99 0.17 -8.38 1.15 -9 3 c -1.37 4.1 -0.42 14.78 1 21 c 1.06 4.63 4.33 9.5 7 14 c 2.69 4.55 8.75 12.15 9 13 c 0.11 0.36 -4.52 -1.65 -6 -3 c -2.2 -2.02 -3.7 -6.42 -6 -8 c -2.4 -1.65 -6.65 -2.42 -10 -3 c -4.19 -0.73 -9.22 -1.63 -13 -1 c -3.5 0.58 -8.06 2.79 -11 5 c -3.27 2.46 -6.61 6.42 -9 10 c -2.78 4.17 -4.46 10.08 -7 14 c -0.81 1.25 -2.65 2.66 -4 3 c -2.16 0.54 -5.77 0.78 -8 0 c -4.74 -1.65 -9.86 -5.8 -15 -8 c -4.11 -1.76 -8.58 -2.98 -13 -4 c -4.28 -0.99 -8.64 -1.54 -13 -2 c -1.99 -0.21 -5.25 -0.85 -6 0 l -1 8"/></svg>