<?xml version="1.0" encoding="UTF-8" standalone="no"?><!DOCTYPE svg PUBLIC "-//W3C//DTD SVG 1.1//EN" "http://www.w3.org/Graphics/SVG/1.1/DTD/svg11.dtd"><svg xmlns="http://www.w3.org/2000/svg" version="1.1" width="149" height="80"><path fill="none" stroke="#000000" stroke-width="2" stroke-linecap="round" stroke-linejoin="round" d="M 148 40 c -0.19 -0.33 -5.8 -16.29 -11 -19 c -15.9 -8.27 -55.58 -24.01 -64 -20 c -6.28 2.99 -0.49 35.57 1 50 c 0.28 2.72 3.11 5.92 5 8 c 1.17 1.28 3.31 2.32 5 3 c 1.48 0.59 5.11 0.98 5 1 c -0.26 0.04 -8.67 -0.74 -12 0 c -2 0.45 -4.93 2.47 -6 4 c -0.9 1.29 -1.28 4.32 -1 6 c 0.31 1.85 1.73 5.16 3 6 c 1.13 0.75 4.65 0.51 6 0 c 0.81 -0.3 1.61 -1.97 2 -3 c 0.55 -1.46 0.85 -3.33 1 -5 c 0.18 -1.96 0.43 -4.26 0 -6 c -0.49 -1.94 -1.58 -5.13 -3 -6 c -2.16 -1.33 -6.66 -1.74 -10 -2 c -5.23 -0.4 -11.16 -0.63 -16 0 c -2.3 0.3 -4.84 1.77 -7 3 c -2.43 1.39 -5.25 5 -7 5 c -1.59 0 -3.87 -3.63 -6 -5 c -2.44 -1.57 -5.4 -3.42 -8 -4 c -2.91 -0.65 -6.76 -0.34 -10 0 c -2.99 0.31 -6.46 0.91 -9 2 l -5 4"/></svg>