<?xml version="1.0" encoding="UTF-8" standalone="no"?><!DOCTYPE svg PUBLIC "-//W3C//DTD SVG 1.1//EN" "http://www.w3.org/Graphics/SVG/1.1/DTD/svg11.dtd"><svg xmlns="http://www.w3.org/2000/svg" version="1.1" width="321" height="96"><path fill="none" stroke="#000000" stroke-width="2" stroke-linecap="round" stroke-linejoin="round" d="M 186 59 c -0.73 -0.24 -27.87 -10.47 -42 -14 c -9.66 -2.41 -19.72 -3.11 -30 -4 c -13.26 -1.15 -25.71 -1.8 -39 -2 c -9.88 -0.15 -20.48 -1.09 -29 1 c -7.88 1.93 -16.54 7.41 -24 12 c -5.34 3.29 -11.18 7.64 -15 12 c -2.67 3.05 -5.13 8.09 -6 12 c -0.97 4.37 -1.76 12.42 0 15 c 1.6 2.34 8.9 3.44 13 4 c 2.73 0.37 7.36 0.56 9 -1 c 4.07 -3.88 8.67 -12.55 12 -19 c 1.87 -3.63 2.98 -7.92 4 -12 c 0.98 -3.92 1.09 -8.14 2 -12 c 0.4 -1.71 1.13 -3.61 2 -5 c 0.69 -1.1 1.87 -2.65 3 -3 c 3.51 -1.1 8.62 -1.9 13 -2 c 23.97 -0.56 47.31 0.47 72 0 c 11 -0.21 21.01 -1.02 32 -2 c 12.08 -1.08 23.3 -2.37 35 -4 c 2.74 -0.38 6.37 -0.62 8 -2 c 2.03 -1.72 2.7 -7.05 5 -9 c 5.53 -4.68 13.75 -8.95 21 -13 c 4.2 -2.35 8.59 -5.08 13 -6 c 10.85 -2.26 23.79 -3.18 35 -4 c 1.93 -0.14 4.17 0.39 6 1 c 2.02 0.67 4.43 1.67 6 3 c 2.49 2.11 4.88 5.18 7 8 c 1.88 2.51 3.09 5.61 5 8 c 2.01 2.51 4.48 5.27 7 7 l 9 4"/></svg>