<?xml version="1.0" encoding="UTF-8" standalone="no"?><!DOCTYPE svg PUBLIC "-//W3C//DTD SVG 1.1//EN" "http://www.w3.org/Graphics/SVG/1.1/DTD/svg11.dtd"><svg xmlns="http://www.w3.org/2000/svg" version="1.1" width="193" height="122"><path fill="none" stroke="#000000" stroke-width="2" stroke-linecap="round" stroke-linejoin="round" d="M 107 104 c 0 -0.37 -0.26 -14.12 0 -21 c 0.06 -1.67 0.17 -4.85 1 -5 c 1.69 -0.31 7.79 1.09 10 3 c 4.23 3.65 7.42 11.42 12 16 c 7.16 7.16 15.97 15.06 24 20 c 3.99 2.45 10.64 3.81 15 4 c 2.4 0.1 6.81 -1.15 8 -3 c 3.75 -5.83 7.5 -16.51 10 -25 c 2.46 -8.35 4.41 -17.41 5 -26 c 0.72 -10.39 0.89 -25.4 -1 -32 c -0.56 -1.96 -6.08 -2.8 -9 -3 c -6.16 -0.43 -14.26 -0.23 -20 1 c -2.71 0.58 -6.47 3.13 -8 5 c -0.98 1.2 -1 4.03 -1 6 c 0 4.54 2.36 13.92 1 14 c -2.16 0.13 -11.67 -8.73 -18 -13 c -9.49 -6.4 -18.22 -12.62 -28 -18 c -10.38 -5.71 -21.41 -9.49 -32 -15 c -6.32 -3.29 -12.43 -10.4 -18 -11 c -7.55 -0.82 -22 2.81 -28 6 c -2.45 1.3 -2.36 7.54 -4 11 c -1.32 2.78 -2.98 5.98 -5 8 c -2.32 2.32 -5.87 4.44 -9 6 c -3.39 1.69 -10.19 1.63 -11 4 c -1.95 5.66 0 28 0 28"/></svg>