<?xml version="1.0" encoding="UTF-8" standalone="no"?><!DOCTYPE svg PUBLIC "-//W3C//DTD SVG 1.1//EN" "http://www.w3.org/Graphics/SVG/1.1/DTD/svg11.dtd"><svg xmlns="http://www.w3.org/2000/svg" version="1.1" width="54" height="36"><path fill="none" stroke="#000000" stroke-width="2" stroke-linecap="round" stroke-linejoin="round" d="M 53 35 c -0.05 -0.16 -1.26 -6.81 -3 -9 c -4.01 -5.07 -10.48 -10.58 -16 -15 c -2.59 -2.07 -5.87 -3.8 -9 -5 c -5.38 -2.07 -11.5 -3.75 -17 -5 c -1.55 -0.35 -4.48 -0.82 -5 0 c -1.17 1.84 -2 7.71 -2 11 c 0 1.86 0.74 4.82 2 6 c 3.04 2.84 8.87 6.89 13 8 c 3.53 0.95 10.26 0.09 13 -1 c 1.13 -0.45 1.7 -3.37 2 -5 c 0.33 -1.82 0.69 -4.77 0 -6 c -0.67 -1.2 -3.38 -2.51 -5 -3 c -1.39 -0.42 -3.68 -0.44 -5 0 c -1.32 0.44 -2.93 1.82 -4 3 l -6 8"/></svg>