<?xml version="1.0" encoding="UTF-8" standalone="no"?><!DOCTYPE svg PUBLIC "-//W3C//DTD SVG 1.1//EN" "http://www.w3.org/Graphics/SVG/1.1/DTD/svg11.dtd"><svg xmlns="http://www.w3.org/2000/svg" version="1.1" width="201" height="73"><path fill="none" stroke="#000000" stroke-width="2" stroke-linecap="round" stroke-linejoin="round" d="M 76 72 c -0.07 -0.02 -2.81 -0.4 -4 -1 c -11.77 -5.88 -23.48 -12.74 -36 -19 c -8.12 -4.06 -16.17 -7.97 -24 -11 c -2.1 -0.81 -5.01 -1.18 -7 -1 c -1.26 0.11 -3.62 1.06 -4 2 c -0.67 1.68 -0.78 6.29 0 8 c 0.57 1.25 3.28 2.55 5 3 c 4.18 1.1 9.29 1.66 14 2 c 4.67 0.33 10.01 1.1 14 0 c 4.84 -1.34 11.66 -4.52 15 -8 c 3.78 -3.94 7.66 -11.38 9 -17 c 1.74 -7.31 1.25 -18 1 -25 c -0.04 -1.01 -1.13 -2.83 -2 -3 c -4.36 -0.87 -13.68 -2.21 -18 -1 c -2.55 0.71 -6.3 5.22 -7 8 c -1.31 5.24 -0.87 14.38 0 20 c 0.31 2.03 2.3 5 4 6 c 3.21 1.89 8.75 3.71 13 4 c 9.69 0.66 22.69 1.35 31 -1 c 5.15 -1.45 9.95 -8.28 15 -12 c 1.18 -0.87 2.68 -1.96 4 -2 c 8.54 -0.26 20.07 -0.42 29 1 c 4.97 0.79 10.21 3.51 15 6 c 11.29 5.88 21.79 12.33 33 19 c 3.19 1.9 6.33 3.66 9 6 l 15 15"/></svg>