<?xml version="1.0" encoding="UTF-8" standalone="no"?><!DOCTYPE svg PUBLIC "-//W3C//DTD SVG 1.1//EN" "http://www.w3.org/Graphics/SVG/1.1/DTD/svg11.dtd"><svg xmlns="http://www.w3.org/2000/svg" version="1.1" width="186" height="77"><path fill="none" stroke="#000000" stroke-width="2" stroke-linecap="round" stroke-linejoin="round" d="M 185 76 c -0.07 -0.3 -2.3 -11.39 -4 -17 c -1.66 -5.49 -3.33 -11.26 -6 -16 c -3.12 -5.55 -7.5 -11.35 -12 -16 c -4.95 -5.12 -10.97 -9.98 -17 -14 c -6.86 -4.57 -14.93 -10.34 -22 -12 c -7.06 -1.65 -18.56 -0.76 -25 1 c -2.91 0.79 -6.7 5.13 -8 8 c -1.63 3.58 -1.83 9.28 -2 14 c -0.49 13.36 -0.54 27.1 0 40 c 0.11 2.66 2 8 2 8 c 0 0 -0.61 -6.06 -2 -8 c -3.1 -4.34 -8.35 -9.21 -13 -13 c -4.21 -3.43 -9.14 -6.65 -14 -9 c -5.26 -2.55 -11.37 -4.84 -17 -6 c -5.32 -1.09 -13.52 -2.05 -17 -1 c -1.56 0.47 -2.62 4.71 -3 7 c -0.55 3.31 0.89 9.52 0 11 c -0.49 0.82 -4.29 -0.27 -6 -1 c -2.65 -1.14 -5.38 -4.27 -8 -5 l -10 0"/></svg>