<?xml version="1.0" encoding="UTF-8" standalone="no"?><!DOCTYPE svg PUBLIC "-//W3C//DTD SVG 1.1//EN" "http://www.w3.org/Graphics/SVG/1.1/DTD/svg11.dtd"><svg xmlns="http://www.w3.org/2000/svg" version="1.1" width="219" height="38"><path fill="none" stroke="#000000" stroke-width="2" stroke-linecap="round" stroke-linejoin="round" d="M 85 37 c -0.05 -0.09 -1.67 -3.8 -3 -5 c -4.9 -4.41 -11.11 -9.14 -17 -13 c -3.69 -2.42 -7.91 -5.03 -12 -6 c -9.22 -2.19 -20.19 -3.28 -30 -4 c -3.58 -0.26 -7.78 0.11 -11 1 c -2.35 0.65 -4.91 2.48 -7 4 c -1.47 1.07 -3.76 2.58 -4 4 c -0.59 3.52 -0.23 11.19 1 14 c 0.55 1.27 4.04 1.67 6 2 c 1.86 0.31 4.77 0.85 6 0 c 2.33 -1.61 5.74 -5.86 7 -9 c 1.8 -4.49 2.24 -10.69 3 -16 c 0.23 -1.63 -0.72 -4.17 0 -5 c 1.1 -1.26 4.94 -3.23 7 -3 c 5.65 0.63 13.07 4.2 20 6 c 10.23 2.66 19.56 4.7 30 7 c 10.04 2.21 18.97 4.18 29 6 c 8.91 1.62 17.26 3.45 26 4 c 12.63 0.79 25.3 0.28 38 0 c 2.36 -0.05 4.7 -0.43 7 -1 c 7.09 -1.77 14.1 -3.57 21 -6 l 16 -7"/></svg>