<?xml version="1.0" encoding="UTF-8" standalone="no"?><!DOCTYPE svg PUBLIC "-//W3C//DTD SVG 1.1//EN" "http://www.w3.org/Graphics/SVG/1.1/DTD/svg11.dtd"><svg xmlns="http://www.w3.org/2000/svg" version="1.1" width="195" height="52"><path fill="none" stroke="#000000" stroke-width="2" stroke-linecap="round" stroke-linejoin="round" d="M 194 14 c -0.19 -0.02 -7.3 -0.4 -11 -1 c -12.96 -2.12 -25.17 -5.26 -38 -7 c -6.98 -0.95 -14 -1.17 -21 -1 c -6.36 0.16 -12.89 0.82 -19 2 c -4.05 0.78 -9.17 1.95 -12 4 c -2.42 1.75 -4.58 5.87 -6 9 c -1.79 3.93 -3.39 8.74 -4 13 c -0.67 4.7 -0.94 11.6 0 15 c 0.37 1.32 3.47 2.69 5 3 c 1.34 0.27 4.53 -0.06 5 -1 c 1.02 -2.05 0.83 -7.25 1 -11 c 0.17 -3.74 0.68 -7.79 0 -11 c -0.55 -2.61 -2.39 -6.21 -4 -8 c -0.97 -1.08 -3.35 -1.87 -5 -2 c -6.44 -0.5 -15.2 -0.7 -21 0 c -1.38 0.17 -2.97 3.19 -4 3 c -1.77 -0.32 -4.84 -3.13 -7 -5 c -2.84 -2.46 -5.1 -5.86 -8 -8 c -3.21 -2.36 -7.36 -4.84 -11 -6 c -3.2 -1.02 -7.25 -0.84 -11 -1 c -4.41 -0.18 -8.74 -0.24 -13 0 c -1.67 0.09 -3.84 0.27 -5 1 c -1.14 0.71 -2.32 2.63 -3 4 l -1 4"/></svg>