<?xml version="1.0" encoding="UTF-8" standalone="no"?><!DOCTYPE svg PUBLIC "-//W3C//DTD SVG 1.1//EN" "http://www.w3.org/Graphics/SVG/1.1/DTD/svg11.dtd"><svg xmlns="http://www.w3.org/2000/svg" version="1.1" width="286" height="44"><path fill="none" stroke="#000000" stroke-width="2" stroke-linecap="round" stroke-linejoin="round" d="M 1 32 c 0 -0.17 -1.06 -7.31 0 -10 c 2.23 -5.67 7.35 -12.79 11 -18 c 0.62 -0.89 1.96 -1.65 3 -2 c 1.75 -0.58 3.99 -0.85 6 -1 c 2.31 -0.18 5.17 -0.92 7 0 c 15.34 7.67 33.61 20.72 51 29 c 10.31 4.91 21.91 7.87 33 11 c 4.19 1.18 9.15 2.18 13 2 c 2.5 -0.12 6.45 -1.27 8 -3 c 3.33 -3.72 6.5 -10.58 9 -16 c 1.42 -3.08 1.68 -7.93 3 -10 c 0.52 -0.82 3.12 -1.47 4 -1 c 2.56 1.38 5.79 5.49 9 8 c 4.58 3.59 9.05 7.76 14 10 c 8.46 3.83 18.92 7.1 28 9 c 4.63 0.97 10.35 0.77 15 0 c 4.9 -0.82 10.52 -2.69 15 -5 c 5.5 -2.84 10.69 -8 16 -11 c 1.99 -1.12 4.68 -1.85 7 -2 c 7.64 -0.49 15.94 -0.25 24 0 l 8 1"/></svg>