<?xml version="1.0" encoding="UTF-8" standalone="no"?><!DOCTYPE svg PUBLIC "-//W3C//DTD SVG 1.1//EN" "http://www.w3.org/Graphics/SVG/1.1/DTD/svg11.dtd"><svg xmlns="http://www.w3.org/2000/svg" version="1.1" width="215" height="76"><path fill="none" stroke="#000000" stroke-width="2" stroke-linecap="round" stroke-linejoin="round" d="M 214 75 c -0.14 -0.17 -4.92 -7.18 -8 -10 c -8.39 -7.67 -17.5 -15.14 -27 -22 c -8.7 -6.28 -17.57 -12.21 -27 -17 c -11.52 -5.85 -23.68 -10.63 -36 -15 c -8.51 -3.02 -17.41 -6.09 -26 -7 c -12.76 -1.35 -27.45 -0.55 -40 0 c -1.99 0.09 -5.34 0.77 -6 2 c -1.16 2.15 -1.98 8.48 -1 11 c 0.94 2.43 6.62 6.86 8 7 c 0.82 0.08 2.35 -4.49 2 -6 c -0.47 -2.05 -2.87 -5.74 -5 -7 c -5.88 -3.48 -14.78 -7.24 -22 -9 c -5.78 -1.41 -13.62 -1.45 -19 -1 c -1.65 0.14 -4.67 1.64 -5 3 c -1.23 5.15 -2.63 16.07 -1 22 c 1.6 5.83 7.62 12.42 12 18 c 2.87 3.65 6.42 6.85 10 10 c 4.87 4.29 9.95 8.28 15 12 l 4 2"/></svg>