<?xml version="1.0" encoding="UTF-8" standalone="no"?><!DOCTYPE svg PUBLIC "-//W3C//DTD SVG 1.1//EN" "http://www.w3.org/Graphics/SVG/1.1/DTD/svg11.dtd"><svg xmlns="http://www.w3.org/2000/svg" version="1.1" width="239" height="60"><path fill="none" stroke="#000000" stroke-width="2" stroke-linecap="round" stroke-linejoin="round" d="M 183 41 c -0.11 -0.07 -3.88 -2.94 -6 -4 c -3.82 -1.91 -8.02 -3.07 -12 -5 c -7.26 -3.52 -13.65 -8.21 -21 -11 c -18.92 -7.18 -39.06 -14.49 -58 -19 c -8.07 -1.92 -20.3 -1.98 -26 -1 c -1.47 0.25 -2.84 4.29 -3 6 c -0.12 1.37 0.87 3.94 2 5 c 3.6 3.37 13.75 9.83 14 10 c 0.15 0.1 -5.13 -4.9 -8 -6 c -7.74 -2.96 -17.43 -5.93 -26 -7 c -9.55 -1.19 -21.81 -0.94 -30 0 c -1.75 0.2 -4.16 2.42 -5 4 c -1.5 2.82 -3.14 7.76 -3 11 c 0.16 3.6 1.64 9.42 4 12 c 4.04 4.41 11.7 9.05 18 12 c 8.93 4.18 19.42 8.75 29 10 c 17.18 2.25 39.2 3.29 55 1 c 6.95 -1.01 14.24 -7.64 21 -12 c 3.58 -2.31 6.92 -5.1 10 -8 c 2.56 -2.41 4.78 -7.3 7 -8 c 1.99 -0.62 6.5 1.53 9 3 c 2.8 1.65 5.18 5.06 8 7 c 2.37 1.63 5.24 2.93 8 4 c 3.22 1.25 6.54 2.25 10 3 c 12.15 2.64 23.88 5.33 36 7 l 22 1"/></svg>