<?xml version="1.0" encoding="UTF-8" standalone="no"?><!DOCTYPE svg PUBLIC "-//W3C//DTD SVG 1.1//EN" "http://www.w3.org/Graphics/SVG/1.1/DTD/svg11.dtd"><svg xmlns="http://www.w3.org/2000/svg" version="1.1" width="218" height="42"><path fill="none" stroke="#000000" stroke-width="2" stroke-linecap="round" stroke-linejoin="round" d="M 15 41 c -0.21 -0.54 -10.41 -27.83 -12 -31 c -0.17 -0.34 -2.28 2.72 -2 3 c 0.39 0.39 3.57 -0.48 5 0 c 4.1 1.37 8.52 4.62 13 6 c 8.34 2.57 17.47 4.49 26 6 c 2.56 0.45 7.18 1.13 8 0 c 1.13 -1.56 0.91 -7.89 0 -11 c -1.22 -4.18 -7 -12.08 -7 -13 c 0 -0.5 4.58 3.11 7 4 c 3.71 1.37 8.04 1.73 12 3 c 4.46 1.43 8.59 3.9 13 5 c 6.09 1.52 12.55 2.45 19 3 c 9.39 0.8 18.31 0.82 28 1 c 9 0.17 17.35 0.44 26 0 c 4.37 -0.22 8.93 -0.89 13 -2 c 3.04 -0.83 6.05 -3.53 9 -4 c 4.79 -0.77 11.41 -0.66 16 0 c 1.67 0.24 3.28 2.46 5 3 c 3.31 1.03 8.51 3.08 11 2 l 12 -12"/></svg>