<?xml version="1.0" encoding="UTF-8" standalone="no"?><!DOCTYPE svg PUBLIC "-//W3C//DTD SVG 1.1//EN" "http://www.w3.org/Graphics/SVG/1.1/DTD/svg11.dtd"><svg xmlns="http://www.w3.org/2000/svg" version="1.1" width="299" height="60"><path fill="none" stroke="#000000" stroke-width="2" stroke-linecap="round" stroke-linejoin="round" d="M 1 16 c 0.3 0.19 11.01 7.43 17 11 c 15.37 9.17 29.82 18.03 45 26 c 4.34 2.28 9.34 3.84 14 5 c 3.15 0.79 7.53 1.53 10 1 c 1.39 -0.3 3.68 -2.5 4 -4 c 1.37 -6.4 1.03 -15.99 2 -24 c 0.37 -3.07 0.64 -8.92 2 -9 c 2.64 -0.15 10.84 4.98 16 8 c 4.56 2.67 8.42 6.71 13 9 c 7.16 3.58 15.37 6.37 23 9 c 1.88 0.65 4.68 1.44 6 1 c 1.08 -0.36 2.23 -2.57 3 -4 c 1.52 -2.82 2.22 -7.52 4 -9 c 1.46 -1.22 5.81 -1.52 8 -1 c 2.8 0.66 5.87 4.04 9 5 c 8.41 2.57 19.61 5.57 27 6 c 2.16 0.13 5.29 -2.48 7 -4 c 0.95 -0.85 1.05 -3.15 2 -4 c 1.71 -1.52 4.71 -3.46 7 -4 c 2.84 -0.67 6.76 -0.4 10 0 c 4.64 0.58 9.45 1.67 14 3 c 3.42 1 6.56 2.91 10 4 c 3.95 1.26 8.31 2.57 12 3 c 1.52 0.18 3.33 -0.94 5 -1 c 7.54 -0.27 15.58 0.27 23 0 c 1.33 -0.05 3.54 -0.31 4 -1 c 0.56 -0.84 0.5 -3.58 0 -5 c -1.65 -4.71 -4.17 -10.58 -7 -15 c -2.3 -3.59 -5.74 -7.09 -9 -10 c -2.95 -2.64 -6.53 -5.47 -10 -7 c -4.42 -1.94 -10.04 -3.48 -15 -4 c -7.34 -0.77 -15.08 -0.25 -23 0 c -13.79 0.44 -27.46 -0.98 -40 2 c -32.48 7.71 -64.65 21.08 -99 31 c -30.12 8.7 -88 23 -88 23"/></svg>