<?xml version="1.0" encoding="UTF-8" standalone="no"?><!DOCTYPE svg PUBLIC "-//W3C//DTD SVG 1.1//EN" "http://www.w3.org/Graphics/SVG/1.1/DTD/svg11.dtd"><svg xmlns="http://www.w3.org/2000/svg" version="1.1" width="249" height="62"><path fill="none" stroke="#000000" stroke-width="2" stroke-linecap="round" stroke-linejoin="round" d="M 6 61 c -0.09 -0.16 -4.48 -6.11 -5 -9 c -0.66 -3.66 -0.48 -9.64 1 -13 c 1.77 -4.02 6.23 -8.77 10 -12 c 5.22 -4.48 11.74 -8.62 18 -12 c 5.96 -3.22 12.51 -5.77 19 -8 c 5.19 -1.78 10.73 -3.25 16 -4 c 3.83 -0.55 9.01 -1 12 0 c 2.11 0.7 5.59 3.86 6 6 c 0.97 5.05 0.5 14.56 -1 20 c -0.85 3.1 -4.33 6.93 -7 9 c -2.82 2.2 -7.36 4.05 -11 5 c -3.63 0.95 -8.02 1 -12 1 c -3.65 0 -8.39 0.58 -11 -1 c -5.51 -3.34 -12.53 -10.64 -17 -16 c -1.64 -1.96 -2.51 -5.4 -3 -8 c -0.46 -2.44 -1.19 -6.53 0 -8 c 2.28 -2.8 8.63 -6.59 13 -8 c 5.19 -1.67 11.89 -1.68 18 -2 c 6.74 -0.35 13.98 -1.53 20 0 c 13.8 3.5 28.6 12.52 43 16 c 13.9 3.36 29.12 3.69 44 5 c 4.37 0.38 8.87 0.52 13 0 c 3.62 -0.45 7.39 -1.71 11 -3 c 5.82 -2.08 11.2 -5 17 -7 c 3.9 -1.35 7.86 -2.14 12 -3 c 5.78 -1.2 11.31 -2.53 17 -3 l 19 0"/></svg>