<?xml version="1.0" encoding="UTF-8" standalone="no"?><!DOCTYPE svg PUBLIC "-//W3C//DTD SVG 1.1//EN" "http://www.w3.org/Graphics/SVG/1.1/DTD/svg11.dtd"><svg xmlns="http://www.w3.org/2000/svg" version="1.1" width="144" height="77"><path fill="none" stroke="#000000" stroke-width="2" stroke-linecap="round" stroke-linejoin="round" d="M 48 67 c 0 -0.23 0.31 -8.61 0 -13 c -0.7 -9.84 -1.69 -19.08 -3 -29 c -1.09 -8.28 0.06 -22.06 -4 -24 c -6.7 -3.2 -33.06 0.57 -40 3 c -1.9 0.67 -1.35 8.4 0 11 c 2.35 4.52 8.26 10.53 13 14 c 4.66 3.42 11.34 6.43 17 8 c 5.76 1.6 12.99 2.18 19 2 c 4.51 -0.14 9.94 -1.14 14 -3 c 7 -3.2 16.03 -11.01 21 -13 c 1.01 -0.4 2.9 1.82 4 3 c 3.12 3.36 6.45 7.1 9 11 c 3.05 4.67 4.99 10.38 8 15 c 1.88 2.89 4.38 5.71 7 8 c 5.28 4.62 11.27 8.91 17 13 c 1.2 0.85 2.65 1.69 4 2 l 9 1"/></svg>