<?xml version="1.0" encoding="UTF-8" standalone="no"?><!DOCTYPE svg PUBLIC "-//W3C//DTD SVG 1.1//EN" "http://www.w3.org/Graphics/SVG/1.1/DTD/svg11.dtd"><svg xmlns="http://www.w3.org/2000/svg" version="1.1" width="146" height="44"><path fill="none" stroke="#000000" stroke-width="2" stroke-linecap="round" stroke-linejoin="round" d="M 145 43 c -0.33 -0.09 -13.25 -2.43 -19 -5 c -9.45 -4.22 -18.25 -11.04 -28 -16 c -9.61 -4.89 -19.15 -10.41 -29 -13 c -16 -4.2 -42.87 -7.52 -51 -8 c -0.79 -0.05 -0.95 4.48 0 5 c 6.3 3.45 20.57 9.07 31 12 c 8.25 2.32 17.3 2.95 26 4 c 2.31 0.28 5.55 0.64 7 0 c 0.93 -0.41 1.76 -2.69 2 -4 c 0.37 -2.05 1.02 -5.87 0 -7 c -1.57 -1.73 -6.67 -3.74 -10 -4 c -16.98 -1.31 -37.84 -1.54 -55 -1 c -2.96 0.09 -5.98 2.33 -9 3 l -9 1"/></svg>