<?xml version="1.0" encoding="UTF-8" standalone="no"?><!DOCTYPE svg PUBLIC "-//W3C//DTD SVG 1.1//EN" "http://www.w3.org/Graphics/SVG/1.1/DTD/svg11.dtd"><svg xmlns="http://www.w3.org/2000/svg" version="1.1" width="251" height="65"><path fill="none" stroke="#000000" stroke-width="2" stroke-linecap="round" stroke-linejoin="round" d="M 1 46 c 0.44 -0.77 17.8 -33.54 25 -44 c 0.87 -1.26 4.27 -1.32 6 -1 c 3.06 0.57 7.09 2.17 10 4 c 5.79 3.64 11.4 8.31 17 13 c 7.03 5.89 12.93 12.7 20 18 c 6.13 4.6 13.5 7.67 20 12 c 3.57 2.38 6.5 6.67 10 8 c 5.26 1.99 15.64 3.96 19 3 c 1.61 -0.46 1.79 -6.01 2 -9 c 0.44 -6.17 0.85 -14.09 0 -19 c -0.25 -1.46 -3.02 -3.86 -4 -4 c -0.73 -0.1 -3.34 2.25 -3 3 c 1.66 3.68 7.49 12.31 12 17 c 3.73 3.87 9.13 7.11 14 10 c 4.05 2.4 8.71 4.84 13 6 c 3.91 1.05 8.75 1 13 1 c 2.3 0 5.1 -0.21 7 -1 c 1.72 -0.72 3.53 -2.53 5 -4 c 1.47 -1.47 2.57 -3.57 4 -5 c 0.8 -0.8 1.96 -1.65 3 -2 c 1.75 -0.58 3.99 -0.86 6 -1 c 2.65 -0.19 5.5 -0.53 8 0 c 8.12 1.72 17 5.77 25 7 c 4.32 0.67 10.31 -0.13 14 -1 l 3 -3"/></svg>