<?xml version="1.0" encoding="UTF-8" standalone="no"?><!DOCTYPE svg PUBLIC "-//W3C//DTD SVG 1.1//EN" "http://www.w3.org/Graphics/SVG/1.1/DTD/svg11.dtd"><svg xmlns="http://www.w3.org/2000/svg" version="1.1" width="80" height="86"><path fill="none" stroke="#000000" stroke-width="2" stroke-linecap="round" stroke-linejoin="round" d="M 64 85 l 1 1"/><path fill="none" stroke="#000000" stroke-width="2" stroke-linecap="round" stroke-linejoin="round" d="M 64 85 c -0.05 -0.12 -2.55 -4.61 -3 -7 c -1.8 -9.51 -2.73 -19.63 -4 -30 c -0.46 -3.79 -0.91 -7.25 -1 -11 c -0.25 -10.53 -1.22 -24.08 0 -31 c 0.26 -1.5 4.11 -2.73 6 -3 c 2.27 -0.32 5.66 0.18 8 1 c 2.98 1.05 9.54 4.79 9 5 c -1.16 0.45 -15.15 0.93 -22 0 c -4.92 -0.67 -9.9 -3.8 -15 -5 c -6.21 -1.46 -15.16 -3.7 -19 -3 c -1.52 0.28 -3.12 5.04 -3 7 c 0.16 2.54 2.34 6.35 4 9 c 1.55 2.48 3.89 5.27 6 7 c 1.24 1.01 4.03 2.43 5 2 c 1.31 -0.58 3.44 -4.03 4 -6 c 0.63 -2.19 0.65 -5.9 0 -8 c -0.52 -1.68 -2.45 -3.97 -4 -5 c -2.06 -1.38 -5.33 -2.54 -8 -3 c -4.7 -0.82 -11.43 -1.89 -15 -1 c -1.86 0.46 -3.87 3.87 -5 6 c -1.38 2.58 -2.29 5.92 -3 9 l -3 17"/></svg>