<?xml version="1.0" encoding="UTF-8" standalone="no"?><!DOCTYPE svg PUBLIC "-//W3C//DTD SVG 1.1//EN" "http://www.w3.org/Graphics/SVG/1.1/DTD/svg11.dtd"><svg xmlns="http://www.w3.org/2000/svg" version="1.1" width="208" height="117"><path fill="none" stroke="#000000" stroke-width="2" stroke-linecap="round" stroke-linejoin="round" d="M 207 7 c -0.56 -0.1 -21.61 -5.26 -32 -6 c -7.69 -0.55 -17.27 -0.29 -24 2 c -6.66 2.27 -16.3 7.35 -20 13 c -8.08 12.31 -20.54 34.6 -20 48 c 0.59 14.76 23.59 51.09 24 52 c 0.08 0.18 -3.76 -6.68 -5 -10 c -0.68 -1.8 -0.92 -3.98 -1 -6 c -0.25 -5.96 0.78 -12.52 0 -18 c -0.47 -3.28 -2.15 -7.29 -4 -10 c -2.19 -3.2 -5.73 -6.77 -9 -9 c -3.68 -2.51 -8.76 -5.18 -13 -6 c -5.33 -1.03 -12.52 -0.78 -18 0 c -3.28 0.47 -7.11 2.21 -10 4 c -3.82 2.36 -10.15 7.79 -11 9 c -0.25 0.35 3.35 1.43 4 1 c 0.85 -0.57 1.73 -3.37 2 -5 c 0.35 -2.12 0.37 -4.95 0 -7 c -0.24 -1.31 -1.01 -3.18 -2 -4 c -2.57 -2.14 -6.79 -4.93 -10 -6 c -2.2 -0.73 -5.84 -0.54 -8 0 c -1.35 0.34 -3.69 1.88 -4 3 c -0.49 1.81 -0.07 5.98 1 8 c 1.59 3.01 7.85 8.85 8 9 c 0.06 0.06 -1.78 -2.97 -3 -4 c -4.87 -4.1 -10.42 -8.21 -16 -12 c -3.88 -2.63 -7.8 -5.08 -12 -7 l -23 -9"/></svg>