<?xml version="1.0" encoding="UTF-8" standalone="no"?><!DOCTYPE svg PUBLIC "-//W3C//DTD SVG 1.1//EN" "http://www.w3.org/Graphics/SVG/1.1/DTD/svg11.dtd"><svg xmlns="http://www.w3.org/2000/svg" version="1.1" width="374" height="106"><path fill="none" stroke="#000000" stroke-width="2" stroke-linecap="round" stroke-linejoin="round" d="M 1 105 l 1 1"/><path fill="none" stroke="#000000" stroke-width="2" stroke-linecap="round" stroke-linejoin="round" d="M 373 85 c -0.12 -0.17 -5.61 -6.69 -7 -10 c -1.03 -2.46 -0.28 -6.13 -1 -9 c -1.25 -5.01 -3.02 -10.05 -5 -15 c -2.07 -5.18 -3.98 -11.03 -7 -15 c -2.85 -3.74 -7.77 -7.49 -12 -10 c -4.38 -2.59 -10.04 -4.95 -15 -6 c -5.53 -1.17 -12.13 -1.41 -18 -1 c -8.24 0.57 -16.94 2.03 -25 4 c -5.44 1.33 -11.08 3.54 -16 6 c -3.51 1.76 -7.24 4.44 -10 7 c -1.63 1.51 -3.66 4.05 -4 6 c -0.53 2.98 -0.54 9.2 1 11 c 1.59 1.86 7.38 2.51 11 3 c 3.49 0.48 7.74 0.78 11 0 c 4.52 -1.08 10.37 -3.28 14 -6 c 3.72 -2.79 7.8 -7.96 10 -12 c 1.44 -2.64 2.42 -7.21 2 -10 c -0.46 -3.06 -2.61 -8.65 -5 -10 c -3.89 -2.2 -11.96 -2.56 -18 -3 c -7.61 -0.56 -15.07 -0.18 -23 0 c -7.25 0.16 -14.12 0 -21 1 c -9.06 1.32 -17.92 4.52 -27 6 c -5.26 0.86 -11.08 1.22 -16 1 c -1.94 -0.09 -5.71 -0.73 -6 -2 l 1 -20"/></svg>