<?xml version="1.0" encoding="UTF-8" standalone="no"?><!DOCTYPE svg PUBLIC "-//W3C//DTD SVG 1.1//EN" "http://www.w3.org/Graphics/SVG/1.1/DTD/svg11.dtd"><svg xmlns="http://www.w3.org/2000/svg" version="1.1" width="139" height="111"><path fill="none" stroke="#000000" stroke-width="2" stroke-linecap="round" stroke-linejoin="round" d="M 138 80 c -0.1 -0.17 -3.74 -6.83 -6 -10 c -2.76 -3.86 -5.48 -8.84 -9 -11 c -5.79 -3.55 -14.74 -6.69 -22 -8 c -8.69 -1.56 -19.58 -1.48 -28 -1 c -2.29 0.13 -5.31 1.59 -7 3 c -1.91 1.59 -4.4 4.6 -5 7 c -1.19 4.75 -1.67 11.84 -1 17 c 0.58 4.5 2.77 9.86 5 14 c 2.25 4.18 5.63 8.97 9 12 c 2.82 2.53 7.36 4.84 11 6 c 3.2 1.02 7.71 1.35 11 1 c 2.55 -0.27 6.86 -1.2 8 -3 c 2.66 -4.19 4.95 -12.7 6 -19 c 1.21 -7.28 1.36 -15.46 1 -23 c -0.3 -6.3 -0.51 -14.31 -3 -19 c -2.47 -4.65 -9.06 -10.22 -14 -13 c -4.83 -2.72 -11.91 -3.82 -18 -5 c -5.9 -1.15 -11.9 -1.56 -18 -2 c -3.37 -0.24 -7.03 -0.63 -10 0 c -2.92 0.62 -6.82 2.42 -9 4 c -0.99 0.72 -1.64 4.36 -2 4 c -1.52 -1.52 -6.29 -11.12 -10 -16 c -2.5 -3.29 -5.82 -6.22 -9 -9 c -2.15 -1.88 -4.56 -3.85 -7 -5 l -10 -3"/></svg>