<?xml version="1.0" encoding="UTF-8" standalone="no"?><!DOCTYPE svg PUBLIC "-//W3C//DTD SVG 1.1//EN" "http://www.w3.org/Graphics/SVG/1.1/DTD/svg11.dtd"><svg xmlns="http://www.w3.org/2000/svg" version="1.1" width="127" height="99"><path fill="none" stroke="#000000" stroke-width="2" stroke-linecap="round" stroke-linejoin="round" d="M 10 69 c -0.05 -0.73 -1.65 -27.63 -3 -42 c -0.71 -7.58 -1.69 -15.17 -3 -22 c -0.26 -1.38 -1.87 -4.25 -2 -4 c -0.28 0.56 -1.67 7 -1 10 c 2.73 12.17 6.77 27.19 12 39 c 3.41 7.71 9.62 14.7 15 22 c 4.17 5.65 8.34 10.95 13 16 c 3.36 3.64 8.93 10.79 11 10 c 2.87 -1.09 8.6 -12.12 10 -18 c 1.63 -6.85 -3.63 -21.04 0 -24 c 5.85 -4.77 25.11 -5.02 38 -7 c 4.68 -0.72 9.61 -0.2 14 -1 c 2.67 -0.49 6.23 -3.3 8 -3 c 1.33 0.22 3.75 3.26 4 5 c 0.89 6.26 0 23 0 23"/></svg>