<?xml version="1.0" encoding="UTF-8" standalone="no"?><!DOCTYPE svg PUBLIC "-//W3C//DTD SVG 1.1//EN" "http://www.w3.org/Graphics/SVG/1.1/DTD/svg11.dtd"><svg xmlns="http://www.w3.org/2000/svg" version="1.1" width="167" height="58"><path fill="none" stroke="#000000" stroke-width="2" stroke-linecap="round" stroke-linejoin="round" d="M 4 19 c -0.02 -0.31 -0.84 -18.27 -1 -18 c -0.21 0.35 -2.54 15.94 -2 23 c 0.39 5.12 2.61 11.37 5 16 c 2.34 4.53 6.29 10.26 10 13 c 3.08 2.27 8.76 3.23 13 4 c 2.8 0.51 7.08 1.21 9 0 c 3.33 -2.11 7.01 -7.82 10 -12 c 1.97 -2.76 3.88 -5.92 5 -9 c 1.45 -4 3.12 -11.7 3 -13 c -0.04 -0.44 -4.17 1.5 -4 2 c 0.27 0.8 3.92 3.63 6 4 c 8.08 1.43 18.94 0.81 28 2 c 3.37 0.44 7.51 3.52 10 3 c 2.72 -0.57 6.03 -5.42 9 -7 c 1.58 -0.84 4.37 -1.49 6 -1 c 4.2 1.26 10.01 4.13 14 7 c 3.97 2.86 7.02 7.94 11 11 c 4.47 3.44 9.88 6.78 15 9 l 15 4"/></svg>