<?xml version="1.0" encoding="UTF-8" standalone="no"?><!DOCTYPE svg PUBLIC "-//W3C//DTD SVG 1.1//EN" "http://www.w3.org/Graphics/SVG/1.1/DTD/svg11.dtd"><svg xmlns="http://www.w3.org/2000/svg" version="1.1" width="199" height="64"><path fill="none" stroke="#000000" stroke-width="2" stroke-linecap="round" stroke-linejoin="round" d="M 1 63 c 0.19 -1.09 6.48 -52.8 11 -62 c 1.27 -2.59 11.83 2.51 17 5 c 11.77 5.66 23.14 12.77 35 20 c 16.4 10 31.14 20.59 47 30 c 3.7 2.19 7.98 3.58 12 5 c 1.58 0.56 4.16 1.69 5 1 c 1.92 -1.57 4.5 -6.62 6 -10 c 1.06 -2.39 1.6 -5.37 2 -8 c 0.25 -1.59 0.34 -3.62 0 -5 c -0.25 -1 -2.39 -2.92 -2 -3 c 1.71 -0.37 11.16 -1 16 0 c 5.84 1.2 11.84 4.95 18 7 c 3.94 1.31 8.3 1.69 12 3 c 1.74 0.62 3.31 2.39 5 3 c 1.76 0.64 5.88 0.65 6 1 c 0.1 0.31 -4.73 2.6 -5 2 c -0.55 -1.24 -0.46 -8.44 1 -11 l 11 -10"/></svg>