<?xml version="1.0" encoding="UTF-8" standalone="no"?><!DOCTYPE svg PUBLIC "-//W3C//DTD SVG 1.1//EN" "http://www.w3.org/Graphics/SVG/1.1/DTD/svg11.dtd"><svg xmlns="http://www.w3.org/2000/svg" version="1.1" width="254" height="88"><path fill="none" stroke="#000000" stroke-width="2" stroke-linecap="round" stroke-linejoin="round" d="M 11 69 c -0.02 -0.82 0.01 -31.57 -1 -47 c -0.31 -4.7 -1.71 -9.48 -3 -14 c -0.69 -2.4 -2.75 -7.42 -3 -7 c -0.57 0.96 -2.58 11.31 -3 17 c -0.58 7.91 -1.78 17.02 0 24 c 2.22 8.71 8.14 18.61 13 27 c 2.3 3.98 5.71 8.23 9 11 c 2.59 2.18 6.61 3.68 10 5 c 2.5 0.97 6.98 3.1 8 2 c 2.07 -2.23 3.98 -10.56 5 -16 c 1.96 -10.46 3.02 -21.05 4 -32 c 0.73 -8.15 0.97 -23.58 1 -24 c 0.01 -0.19 -0.61 7.63 0 11 c 0.65 3.58 1.69 9.11 4 11 c 3.81 3.12 12 5.77 18 7 c 8.1 1.66 17.1 1.66 26 2 c 8.87 0.34 17.96 1.12 26 0 c 5.57 -0.78 12 -3.27 17 -6 c 5.55 -3.03 10.89 -8.98 16 -12 c 1.55 -0.92 3.98 -0.93 6 -1 c 7.29 -0.26 14.74 -0.75 22 0 c 12.04 1.25 23.69 3.61 36 6 c 10.72 2.08 31 7 31 7"/></svg>