<?xml version="1.0" encoding="UTF-8" standalone="no"?><!DOCTYPE svg PUBLIC "-//W3C//DTD SVG 1.1//EN" "http://www.w3.org/Graphics/SVG/1.1/DTD/svg11.dtd"><svg xmlns="http://www.w3.org/2000/svg" version="1.1" width="284" height="91"><path fill="none" stroke="#000000" stroke-width="2" stroke-linecap="round" stroke-linejoin="round" d="M 1 62 c 0.23 -0.33 8.07 -13.18 13 -19 c 8.03 -9.48 17.19 -18.71 26 -27 c 2.22 -2.09 5.44 -4.09 8 -5 c 1.63 -0.58 5.87 -1.05 6 0 c 1.23 9.66 -0.06 37.06 1 55 c 0.26 4.35 1.71 8.75 3 13 c 1.04 3.43 2.02 8.55 4 10 c 2.03 1.49 7.47 1.31 11 1 c 7.46 -0.66 16.85 -0.77 23 -4 c 11.85 -6.23 23.73 -17.44 36 -27 c 11.24 -8.76 21.13 -16.84 32 -26 c 6.72 -5.66 12.29 -11.5 19 -17 c 6.58 -5.4 17.64 -16.06 20 -15 c 2.26 1.02 -0.9 17.47 0 24 c 0.24 1.74 2.42 4.31 4 5 c 2.99 1.31 7.91 1.67 12 2 c 12.47 1.02 24.81 0.48 37 2 c 9.1 1.14 27 6 27 6"/></svg>