<?xml version="1.0" encoding="UTF-8" standalone="no"?><!DOCTYPE svg PUBLIC "-//W3C//DTD SVG 1.1//EN" "http://www.w3.org/Graphics/SVG/1.1/DTD/svg11.dtd"><svg xmlns="http://www.w3.org/2000/svg" version="1.1" width="165" height="49"><path fill="none" stroke="#000000" stroke-width="2" stroke-linecap="round" stroke-linejoin="round" d="M 7 48 c 0.07 -0.3 2.37 -11.29 4 -17 c 1.77 -6.2 4.31 -11.97 6 -18 c 0.63 -2.25 1.74 -5.76 1 -7 c -0.8 -1.33 -5.47 -3.38 -7 -3 c -1.57 0.39 -3.79 3.88 -5 6 c -1.32 2.32 -2.24 5.27 -3 8 c -0.91 3.26 -1.63 6.68 -2 10 c -0.29 2.61 -0.37 5.57 0 8 c 0.25 1.64 0.9 4.3 2 5 c 1.88 1.2 6.46 2.38 9 2 c 3.32 -0.5 8.05 -2.82 11 -5 c 2.94 -2.17 5.88 -5.71 8 -9 c 4.41 -6.84 8.56 -14.86 12 -22 c 0.7 -1.45 0.57 -5.33 1 -5 c 2.57 1.99 13.47 16.05 21 22 c 6.2 4.9 14.6 9.43 22 12 c 7.19 2.5 15.87 3.17 24 4 c 8.36 0.85 16.57 1 25 1 c 4.39 0 8.77 -0.24 13 -1 l 15 -4"/></svg>