<?xml version="1.0" encoding="UTF-8" standalone="no"?><!DOCTYPE svg PUBLIC "-//W3C//DTD SVG 1.1//EN" "http://www.w3.org/Graphics/SVG/1.1/DTD/svg11.dtd"><svg xmlns="http://www.w3.org/2000/svg" version="1.1" width="169" height="42"><path fill="none" stroke="#000000" stroke-width="2" stroke-linecap="round" stroke-linejoin="round" d="M 7 30 c 0.11 -0.19 3.75 -7.41 6 -11 c 2.83 -4.53 6.52 -8.78 9 -13 c 0.65 -1.1 1.52 -3.57 1 -4 c -0.89 -0.74 -5.09 -1.41 -7 -1 c -2.18 0.47 -4.93 2.45 -7 4 c -1.81 1.36 -4.02 3.16 -5 5 c -1.45 2.72 -2.67 6.83 -3 10 c -0.29 2.75 -0.29 7 1 9 c 1.83 2.82 6.47 6.54 10 8 c 5.35 2.21 12.79 3.5 19 4 c 5.76 0.47 13.28 0.73 18 -1 c 4.09 -1.5 8.42 -6.42 12 -10 c 2.29 -2.29 4.44 -5.2 6 -8 c 1.68 -3.02 2.29 -8.12 4 -10 c 0.96 -1.06 4.28 -1.26 6 -1 c 2.16 0.33 5.32 1.62 7 3 c 1.59 1.3 2.28 4.82 4 6 c 3.95 2.7 9.96 5.19 15 7 c 3.1 1.12 6.67 1.67 10 2 c 3.26 0.33 6.91 0.56 10 0 c 3.91 -0.71 8.25 -2.3 12 -4 c 3.46 -1.57 6.7 -4.64 10 -6 c 2 -0.82 4.79 -1 7 -1 c 1.59 0 3.52 0.41 5 1 c 1.69 0.68 3.31 2.39 5 3 l 6 1"/></svg>