<?xml version="1.0" encoding="UTF-8" standalone="no"?><!DOCTYPE svg PUBLIC "-//W3C//DTD SVG 1.1//EN" "http://www.w3.org/Graphics/SVG/1.1/DTD/svg11.dtd"><svg xmlns="http://www.w3.org/2000/svg" version="1.1" width="136" height="47"><path fill="none" stroke="#000000" stroke-width="2" stroke-linecap="round" stroke-linejoin="round" d="M 135 46 c 0 -0.1 0.58 -4.37 0 -6 c -0.91 -2.56 -2.87 -5.96 -5 -8 c -5.77 -5.54 -12.99 -11.44 -20 -16 c -6.12 -3.98 -13.18 -7.38 -20 -10 c -6 -2.31 -12.76 -4.03 -19 -5 c -4.13 -0.64 -8.95 -0.55 -13 0 c -2.95 0.4 -7.56 1.15 -9 3 c -2.39 3.08 -4.23 10.09 -5 15 c -0.82 5.28 -0.66 12.59 0 17 c 0.17 1.1 1.93 2.39 3 3 c 1.04 0.59 3.36 1.57 4 1 c 1.8 -1.62 4.98 -6.78 6 -10 c 0.79 -2.49 0.96 -6.72 0 -9 c -1.37 -3.24 -4.96 -8.76 -8 -10 c -4.51 -1.84 -13.16 -1.57 -19 -1 c -3.88 0.38 -8.92 1.95 -12 4 c -3.27 2.18 -6.22 6.47 -9 10 c -2.24 2.83 -4.64 5.95 -6 9 l -2 9"/></svg>