<?xml version="1.0" encoding="UTF-8" standalone="no"?><!DOCTYPE svg PUBLIC "-//W3C//DTD SVG 1.1//EN" "http://www.w3.org/Graphics/SVG/1.1/DTD/svg11.dtd"><svg xmlns="http://www.w3.org/2000/svg" version="1.1" width="150" height="74"><path fill="none" stroke="#000000" stroke-width="2" stroke-linecap="round" stroke-linejoin="round" d="M 4 25 c -0.02 -0.24 -0.29 -9.76 -1 -14 c -0.23 -1.35 -1.98 -4.23 -2 -4 c -0.12 1.7 -2.22 23.46 0 33 c 2.05 8.79 9.07 19.12 14 27 c 1.27 2.02 3.99 3.79 6 5 c 1.06 0.64 3.73 1.64 4 1 c 1.34 -3.19 3.03 -13.23 4 -20 c 0.71 -4.99 0.28 -10.46 1 -15 c 0.21 -1.35 1.02 -3.74 2 -4 c 2.85 -0.76 8.93 -0.63 13 0 c 4.26 0.66 8.78 3.16 13 4 c 2.17 0.43 5.03 0.49 7 0 c 1.64 -0.41 3.81 -1.64 5 -3 c 7.55 -8.63 15.54 -21.3 23 -29 c 1.72 -1.78 6.9 -3.77 8 -3 c 1.31 0.92 0.49 9.5 2 10 c 2.06 0.69 8.99 -4.2 13 -5 c 2.03 -0.41 5.74 -0.16 7 1 c 2 1.83 3.76 6.58 5 10 c 1.38 3.79 1.69 8.3 3 12 c 0.62 1.74 2.46 5.31 3 5 c 0.91 -0.52 2.92 -5.87 4 -9 c 2.63 -7.65 4.5 -15.79 7 -23 c 0.37 -1.08 1.75 -3.25 2 -3 l 2 7"/></svg>