<?xml version="1.0" encoding="UTF-8" standalone="no"?><!DOCTYPE svg PUBLIC "-//W3C//DTD SVG 1.1//EN" "http://www.w3.org/Graphics/SVG/1.1/DTD/svg11.dtd"><svg xmlns="http://www.w3.org/2000/svg" version="1.1" width="236" height="40"><path fill="none" stroke="#000000" stroke-width="2" stroke-linecap="round" stroke-linejoin="round" d="M 235 3 c -1.49 -0.03 -58.11 -2.54 -85 -2 c -4.61 0.09 -9.47 2.42 -14 4 c -2.09 0.73 -4.99 1.7 -6 3 c -0.92 1.18 -1 4.12 -1 6 c 0 1.58 0.13 3.94 1 5 c 1.7 2.08 5.68 3.91 8 6 c 0.84 0.75 2.28 2.72 2 3 c -0.39 0.39 -3.72 0.66 -5 0 c -7.23 -3.74 -15.95 -11.27 -24 -15 c -4.97 -2.3 -11.3 -3.34 -17 -4 c -8.49 -0.99 -18.3 -2.79 -26 -1 c -13.68 3.17 -29.02 10.53 -43 17 c -8.4 3.89 -24 14 -24 14"/></svg>