<?xml version="1.0" encoding="UTF-8" standalone="no"?><!DOCTYPE svg PUBLIC "-//W3C//DTD SVG 1.1//EN" "http://www.w3.org/Graphics/SVG/1.1/DTD/svg11.dtd"><svg xmlns="http://www.w3.org/2000/svg" version="1.1" width="250" height="93"><path fill="none" stroke="#000000" stroke-width="2" stroke-linecap="round" stroke-linejoin="round" d="M 59 92 c -0.09 -0.4 -2.05 -16.12 -5 -23 c -5.72 -13.34 -14.14 -26.67 -22 -40 c -3.34 -5.67 -6.77 -11.61 -11 -16 c -4.36 -4.52 -13.22 -12 -16 -12 c -1.76 0 -3.56 8.05 -4 12 c -0.83 7.49 -1.38 16.91 0 24 c 1.08 5.55 4.41 12.84 8 17 c 3.97 4.61 11.29 9.15 17 12 c 3.66 1.83 8.78 2.7 13 3 c 4.76 0.34 11.76 0.77 15 -1 c 2.81 -1.53 5.1 -7.2 7 -11 c 1.7 -3.41 3.72 -10.64 4 -11 c 0.15 -0.18 -1.07 5.36 0 6 c 3.71 2.23 13.43 5.1 20 6 c 7.55 1.03 16.48 0.5 24 0 c 1.98 -0.13 4.4 -2.15 6 -2 c 1.47 0.13 4.15 1.63 5 3 c 2.04 3.26 2.47 9.94 5 13 c 3.12 3.78 9.13 7.11 14 10 c 4.05 2.4 8.57 4.8 13 6 c 7.52 2.03 16.24 3.84 24 4 c 8.34 0.17 19.09 -0.17 26 -3 c 6.19 -2.53 11.87 -11.57 18 -15 c 4.32 -2.41 11.88 -1.58 16 -4 l 13 -13"/></svg>