<?xml version="1.0" encoding="UTF-8" standalone="no"?><!DOCTYPE svg PUBLIC "-//W3C//DTD SVG 1.1//EN" "http://www.w3.org/Graphics/SVG/1.1/DTD/svg11.dtd"><svg xmlns="http://www.w3.org/2000/svg" version="1.1" width="155" height="77"><path fill="none" stroke="#000000" stroke-width="2" stroke-linecap="round" stroke-linejoin="round" d="M 154 49 c -0.16 -0.02 -6.21 -0.17 -9 -1 c -5.94 -1.76 -12 -5.71 -18 -7 c -7.49 -1.6 -15.8 -1.64 -24 -2 c -7.49 -0.33 -15.34 -0.98 -22 0 c -3.94 0.58 -8.6 2.92 -12 5 c -2.22 1.36 -4.61 3.84 -6 6 c -1.4 2.17 -2.48 5.4 -3 8 c -0.43 2.13 -0.96 5.62 0 7 c 1.48 2.14 5.85 4.56 9 6 c 4.6 2.11 10.12 4.06 15 5 c 3.39 0.65 7.35 0.3 11 0 c 4.36 -0.36 10.52 0.17 13 -2 c 4.14 -3.62 8.08 -12.47 11 -19 c 2.65 -5.92 4.39 -12.56 6 -19 c 1.06 -4.25 2.63 -9.54 2 -13 c -0.52 -2.85 -3.45 -7.37 -6 -9 c -4.77 -3.05 -12.65 -5.57 -19 -7 c -6.61 -1.49 -13.85 -1.65 -21 -2 c -6.78 -0.33 -13.5 -0.57 -20 0 c -4.66 0.41 -9.45 1.67 -14 3 c -3.42 1 -7.22 2.26 -10 4 c -2.19 1.37 -4.75 5.86 -6 6 c -0.86 0.1 -2.51 -3.38 -3 -5 c -0.42 -1.39 0.44 -3.68 0 -5 c -0.44 -1.32 -1.79 -3.23 -3 -4 c -2.07 -1.31 -5.37 -2.67 -8 -3 l -16 0"/></svg>