<?xml version="1.0" encoding="UTF-8" standalone="no"?><!DOCTYPE svg PUBLIC "-//W3C//DTD SVG 1.1//EN" "http://www.w3.org/Graphics/SVG/1.1/DTD/svg11.dtd"><svg xmlns="http://www.w3.org/2000/svg" version="1.1" width="239" height="75"><path fill="none" stroke="#000000" stroke-width="2" stroke-linecap="round" stroke-linejoin="round" d="M 5 53 c -0.07 -0.21 -4.54 -8.59 -4 -12 c 1.19 -7.52 5.47 -19.55 10 -26 c 3.16 -4.5 10.6 -8.56 16 -11 c 4.25 -1.92 10.01 -2.48 15 -3 c 4.57 -0.47 11.19 -1.48 14 0 c 2.24 1.18 3.81 6.58 5 10 c 1.42 4.08 2.78 8.67 3 13 c 0.75 14.59 -0.3 30.48 0 45 c 0.03 1.33 0.16 3.85 1 4 c 5.49 0.98 18.89 2.21 27 1 c 6.47 -0.96 13.74 -4.71 20 -8 c 6.93 -3.64 13.76 -8.18 20 -13 c 5.37 -4.14 12.19 -9.5 15 -14 c 1.37 -2.19 1.68 -8.88 0 -10 c -4.16 -2.78 -15.86 -4.45 -24 -6 c -5.96 -1.14 -11.89 -1.69 -18 -2 c -7.42 -0.37 -17.08 -0.82 -22 0 c -1 0.17 -2.15 2.85 -2 4 c 0.4 3.01 1.91 8.39 4 11 c 2.68 3.34 7.78 6.5 12 9 c 4.66 2.76 9.93 5.36 15 7 c 4.99 1.61 10.56 2.27 16 3 c 4.69 0.63 9.3 1 14 1 c 5.37 0 10.86 -0.21 16 -1 c 3.35 -0.52 7.28 -1.55 10 -3 c 1.84 -0.98 3.15 -3.89 5 -5 c 2.82 -1.69 6.7 -3.68 10 -4 c 9.49 -0.93 21.46 -1.34 31 0 c 6.23 0.87 12.85 4.44 19 7 l 5 3"/></svg>