<?xml version="1.0" encoding="UTF-8" standalone="no"?><!DOCTYPE svg PUBLIC "-//W3C//DTD SVG 1.1//EN" "http://www.w3.org/Graphics/SVG/1.1/DTD/svg11.dtd"><svg xmlns="http://www.w3.org/2000/svg" version="1.1" width="294" height="86"><path fill="none" stroke="#000000" stroke-width="2" stroke-linecap="round" stroke-linejoin="round" d="M 28 78 c -0.17 -0.33 -6.28 -13.31 -10 -19 c -1.71 -2.62 -4.55 -4.95 -7 -7 c -1.45 -1.2 -3.31 -2.25 -5 -3 c -1.19 -0.53 -3.73 -1.59 -4 -1 c -0.78 1.72 -2.27 9.23 -1 12 c 1.79 3.91 7.67 8.6 12 12 c 4.82 3.79 10.6 7.94 16 10 c 5.22 2 11.97 2.45 18 3 c 4.95 0.45 11.51 1.68 15 0 c 4.11 -1.98 8.33 -8.34 12 -13 c 5.06 -6.42 10.18 -13.64 14 -20 c 0.8 -1.33 0.08 -4.45 1 -5 c 1.63 -0.98 6.4 -1.72 9 -1 c 11.64 3.22 25.62 8.73 38 14 c 5.61 2.39 10.56 7.04 16 9 c 6.04 2.18 13.37 3.09 20 4 c 2.92 0.4 6.62 0.68 9 0 c 1.69 -0.48 4.21 -2.35 5 -4 c 2.74 -5.71 4.46 -14.9 7 -21 c 0.49 -1.17 2.41 -3.2 3 -3 c 0.82 0.27 1.71 3.94 3 5 c 1.99 1.62 5.38 3.5 8 4 c 3.81 0.73 10.81 1.51 13 0 c 1.92 -1.32 2.43 -7.31 3 -11 c 0.75 -4.87 1.89 -11.27 1 -15 c -0.5 -2.11 -3.82 -5.03 -6 -6 c -3.12 -1.39 -7.98 -1.68 -12 -2 c -4.3 -0.34 -10.08 -0.91 -13 0 c -1.31 0.41 -2.86 3.56 -3 5 c -0.13 1.33 1.05 4.32 2 5 c 0.88 0.63 4.2 0.69 5 0 c 1.01 -0.87 1.67 -4.04 2 -6 c 0.31 -1.86 0.31 -4.14 0 -6 c -0.33 -1.96 -2.64 -5.95 -2 -6 c 1.5 -0.12 9.34 3 14 5 c 14.44 6.19 34.94 17.08 42 19 c 1.11 0.3 0.81 -5.22 2 -7 c 1.84 -2.76 6.9 -5.24 8 -8 c 1.17 -2.92 0.43 -8.33 0 -12 c -0.19 -1.65 -0.94 -4.06 -2 -5 c -1.49 -1.33 -5.81 -3.15 -7 -3 c -0.64 0.08 -1.36 3.02 -1 4 c 0.75 2.05 3.02 5.29 5 7 c 2.68 2.32 6.62 4.65 10 6 c 2.95 1.18 6.67 1.65 10 2 c 2.94 0.31 6.67 0.78 9 0 l 6 -5"/></svg>