<?xml version="1.0" encoding="UTF-8" standalone="no"?><!DOCTYPE svg PUBLIC "-//W3C//DTD SVG 1.1//EN" "http://www.w3.org/Graphics/SVG/1.1/DTD/svg11.dtd"><svg xmlns="http://www.w3.org/2000/svg" version="1.1" width="251" height="33"><path fill="none" stroke="#000000" stroke-width="2" stroke-linecap="round" stroke-linejoin="round" d="M 54 14 c -0.1 -0.12 -3.77 -5.21 -6 -7 c -2.5 -2 -6.01 -4.06 -9 -5 c -2.92 -0.92 -6.6 -0.89 -10 -1 c -7.45 -0.23 -14.71 -0.26 -22 0 c -2.02 0.07 -5.35 0.02 -6 1 c -0.86 1.29 -1.18 6.4 0 8 c 2.63 3.57 9.07 7.98 14 11 c 5.2 3.19 11.24 5.89 17 8 c 4.09 1.5 8.7 2.46 13 3 c 3.54 0.44 9.01 1.33 11 0 c 1.95 -1.3 3.17 -6.67 4 -10 c 0.78 -3.11 2.12 -8.38 1 -10 c -1.17 -1.69 -6.78 -2.73 -10 -3 c -4.33 -0.36 -14.36 0.92 -14 1 c 1.57 0.37 40.55 8.36 61 10 c 21.17 1.69 43.35 -0.3 64 0 c 1.33 0.02 2.67 0.95 4 1 c 7.09 0.27 15.14 0.81 22 0 c 3.95 -0.46 8.01 -3.47 12 -4 c 8.21 -1.08 19.66 -1.85 26 -1 c 1.56 0.21 2.57 3.57 4 5 c 0.8 0.8 2.33 1.19 3 2 c 0.84 1 1.69 4.34 2 4 c 1.08 -1.2 4.58 -10.12 7 -14 c 0.56 -0.89 2 -1.75 3 -2 l 5 0"/></svg>