<?xml version="1.0" encoding="UTF-8" standalone="no"?><!DOCTYPE svg PUBLIC "-//W3C//DTD SVG 1.1//EN" "http://www.w3.org/Graphics/SVG/1.1/DTD/svg11.dtd"><svg xmlns="http://www.w3.org/2000/svg" version="1.1" width="238" height="65"><path fill="none" stroke="#000000" stroke-width="2" stroke-linecap="round" stroke-linejoin="round" d="M 19 39 c 0 -0.1 -0.45 -4.19 0 -6 c 1.12 -4.5 4.09 -9.46 5 -14 c 0.67 -3.36 0.85 -8.12 0 -11 c -0.6 -2.04 -3.22 -4.86 -5 -6 c -1.39 -0.88 -4.62 -1.64 -6 -1 c -2.74 1.28 -7.62 5 -9 8 c -2.1 4.55 -2.45 11.97 -3 18 c -0.45 4.95 -0.71 10.39 0 15 c 0.55 3.6 1.87 8.74 4 11 c 2.44 2.59 7.93 4.92 12 6 c 6.73 1.78 14.42 2.21 22 3 c 8.91 0.93 17.35 2 26 2 c 7.66 0 16.36 -0.08 23 -2 c 5.03 -1.46 11.04 -5.63 15 -9 c 2.14 -1.82 3.94 -5.28 5 -8 c 1.14 -2.94 2.61 -8.01 2 -10 c -0.4 -1.31 -4.04 -2.58 -6 -3 c -2.33 -0.5 -5.57 -0.37 -8 0 c -1.64 0.25 -5.31 1.78 -5 2 c 0.7 0.5 8.03 2.6 12 3 c 5.78 0.58 11.95 0.47 18 0 c 11.5 -0.88 24.72 -3.5 34 -4 c 0.98 -0.05 2.22 1.22 3 2 c 0.78 0.78 1.1 2.81 2 3 c 9.1 1.92 23.86 4.21 36 5 c 13.69 0.89 41 0 41 0"/></svg>