<?xml version="1.0" encoding="UTF-8" standalone="no"?><!DOCTYPE svg PUBLIC "-//W3C//DTD SVG 1.1//EN" "http://www.w3.org/Graphics/SVG/1.1/DTD/svg11.dtd"><svg xmlns="http://www.w3.org/2000/svg" version="1.1" width="173" height="82"><path fill="none" stroke="#000000" stroke-width="2" stroke-linecap="round" stroke-linejoin="round" d="M 172 25 c -0.12 -0.11 -4.49 -4.75 -7 -6 c -3.7 -1.85 -8.72 -3.54 -13 -4 c -7.56 -0.82 -15.99 -0.6 -24 0 c -9.77 0.74 -20.97 1.03 -29 4 c -5.87 2.17 -12 8.16 -17 13 c -5.47 5.3 -11.26 11.89 -15 18 c -2.17 3.55 -3.41 8.73 -4 13 c -0.69 5.02 -1.07 12.8 0 16 c 0.42 1.27 4.9 2.49 6 2 c 1.17 -0.52 2.36 -3.95 3 -6 c 0.97 -3.12 1.61 -6.61 2 -10 c 0.62 -5.33 1.19 -10.8 1 -16 c -0.14 -3.95 -0.43 -9.18 -2 -12 c -1.29 -2.32 -5.23 -4.44 -8 -6 c -2.37 -1.33 -5.29 -2.46 -8 -3 c -5.42 -1.08 -11.71 -1.75 -17 -2 c -1.28 -0.06 -3.11 1.45 -4 1 c -2.31 -1.15 -5.47 -4.47 -8 -7 c -3.2 -3.2 -5.61 -7.61 -9 -10 c -5.07 -3.57 -18 -9 -18 -9"/></svg>