<?xml version="1.0" encoding="UTF-8" standalone="no"?><!DOCTYPE svg PUBLIC "-//W3C//DTD SVG 1.1//EN" "http://www.w3.org/Graphics/SVG/1.1/DTD/svg11.dtd"><svg xmlns="http://www.w3.org/2000/svg" version="1.1" width="260" height="57"><path fill="none" stroke="#000000" stroke-width="2" stroke-linecap="round" stroke-linejoin="round" d="M 63 12 c -0.09 -0.1 -3.03 -4.92 -5 -6 c -3.99 -2.2 -10.08 -4.35 -15 -5 c -7.16 -0.94 -16.22 -1.03 -23 0 c -3.3 0.5 -7.53 2.82 -10 5 c -2.7 2.38 -5.55 6.61 -7 10 c -1.33 3.1 -1.76 7.32 -2 11 c -0.42 6.59 -0.87 14.38 0 20 c 0.31 2.03 2.43 4.59 4 6 c 1.46 1.31 4.04 2.61 6 3 c 2.63 0.53 6.2 0.51 9 0 c 4.24 -0.77 9.06 -2.03 13 -4 c 9.09 -4.54 18.63 -10.34 27 -16 c 2.64 -1.79 4.95 -4.55 7 -7 c 1.2 -1.45 3 -3.82 3 -5 c 0 -0.86 -2.26 -3.1 -3 -3 c -0.98 0.14 -3.8 2.57 -4 4 c -0.62 4.31 -0.86 13.27 1 17 c 1.43 2.85 7.28 6.27 11 7 c 8.56 1.67 20.56 1.64 30 1 c 4.58 -0.31 9.52 -2.28 14 -4 c 4.12 -1.59 8.2 -4.73 12 -6 c 1.7 -0.57 4.29 -0.53 6 0 c 3.18 0.99 6.62 3.87 10 5 c 3.38 1.13 7.23 1.6 11 2 c 12.19 1.3 23.83 2.63 36 3 c 10.11 0.31 20.13 0.01 30 -1 c 6.39 -0.65 12.73 -3.03 19 -4 c 2.26 -0.35 4.75 -0.2 7 0 c 1.33 0.12 3.16 0.26 4 1 l 5 7"/></svg>