<?xml version="1.0" encoding="UTF-8" standalone="no"?><!DOCTYPE svg PUBLIC "-//W3C//DTD SVG 1.1//EN" "http://www.w3.org/Graphics/SVG/1.1/DTD/svg11.dtd"><svg xmlns="http://www.w3.org/2000/svg" version="1.1" width="238" height="58"><path fill="none" stroke="#000000" stroke-width="2" stroke-linecap="round" stroke-linejoin="round" d="M 1 12 c 0.02 -0.1 0.42 -4.25 1 -6 c 0.35 -1.04 1.16 -2.47 2 -3 c 1.48 -0.93 4.19 -1.82 6 -2 c 1.18 -0.12 3.2 0.2 4 1 c 3.19 3.19 6.35 8.73 10 13 c 10.39 12.17 20.45 23.91 31 35 c 2.26 2.37 5.32 4.83 8 6 c 2.16 0.94 5.47 1.14 8 1 c 3.2 -0.18 8.01 -0.19 10 -2 c 4.49 -4.1 9.53 -12.38 13 -19 c 3.72 -7.1 5.79 -17.65 9 -23 c 0.82 -1.37 4.19 -2 6 -2 c 2.37 0 5.95 0.77 8 2 c 2.46 1.48 4.42 5.12 7 7 c 4.57 3.32 10.38 6.92 15 9 c 1.32 0.59 3.61 0.42 5 0 c 1.62 -0.49 3.64 -1.77 5 -3 c 2.14 -1.95 3.85 -4.85 6 -7 c 1.49 -1.49 3.27 -3.38 5 -4 c 2.45 -0.87 6.57 -1.57 9 -1 c 2.53 0.6 5.63 2.98 8 5 c 10.87 9.24 21.83 20.71 32 29 c 1.49 1.21 4.4 2.25 6 2 c 2.04 -0.31 5.63 -2.26 7 -4 c 1.83 -2.33 2.29 -8.12 4 -10 c 0.96 -1.06 4.25 -1.16 6 -1 l 5 2"/></svg>