<?xml version="1.0" encoding="UTF-8" standalone="no"?><!DOCTYPE svg PUBLIC "-//W3C//DTD SVG 1.1//EN" "http://www.w3.org/Graphics/SVG/1.1/DTD/svg11.dtd"><svg xmlns="http://www.w3.org/2000/svg" version="1.1" width="203" height="108"><path fill="none" stroke="#000000" stroke-width="2" stroke-linecap="round" stroke-linejoin="round" d="M 75 93 c -0.09 0.16 -3.98 6.15 -5 9 c -0.49 1.38 0.11 5.11 0 5 c -0.16 -0.16 -0.65 -6.06 -2 -7 c -2.08 -1.44 -7.25 -1.57 -11 -2 c -5.04 -0.58 -9.85 -0.9 -15 -1 c -12.33 -0.24 -24.39 0.29 -36 0 c -1.33 -0.03 -3.41 -0.29 -4 -1 c -0.73 -0.88 -1.35 -3.61 -1 -5 c 0.82 -3.29 2.95 -7.76 5 -11 c 1.8 -2.85 4.57 -5.98 7 -8 c 1.23 -1.03 4.24 -0.98 5 -2 c 0.86 -1.15 1.17 -4.31 1 -6 c -0.12 -1.25 -1.13 -2.99 -2 -4 c -0.97 -1.13 -2.87 -1.87 -4 -3 c -1.13 -1.13 -3.35 -4.06 -3 -4 c 1.88 0.33 17.54 6.35 26 8 c 4.66 0.91 10.72 1.14 15 0 c 4.85 -1.29 11.47 -4.62 15 -8 c 3.35 -3.2 5.91 -9.18 8 -14 c 2.17 -5.01 4.09 -10.68 5 -16 c 1.04 -6.04 1.62 -14.46 1 -19 c -0.16 -1.19 -4.07 -3.11 -4 -3 c 0.22 0.34 6.29 8.42 10 12 c 5.56 5.36 11.71 10.62 18 15 c 4.56 3.18 9.79 6.12 15 8 c 10.19 3.69 21.46 7.72 32 9 c 13.32 1.62 28.83 0.77 42 0 l 9 -3"/></svg>