<?xml version="1.0" encoding="UTF-8" standalone="no"?><!DOCTYPE svg PUBLIC "-//W3C//DTD SVG 1.1//EN" "http://www.w3.org/Graphics/SVG/1.1/DTD/svg11.dtd"><svg xmlns="http://www.w3.org/2000/svg" version="1.1" width="215" height="90"><path fill="none" stroke="#000000" stroke-width="2" stroke-linecap="round" stroke-linejoin="round" d="M 1 88 c 0.12 -0.14 4.9 -5.09 7 -8 c 12.77 -17.71 23.91 -35.17 37 -53 c 6.77 -9.22 15.63 -21.23 21 -26 c 1.02 -0.9 5.69 0.7 6 2 c 1.13 4.72 0.15 15.04 0 23 c -0.19 10.04 0.21 19.74 -1 29 c -0.74 5.66 -3.63 11.18 -5 17 c -1.33 5.67 -3.38 15.25 -3 17 c 0.15 0.68 4.31 -1.66 6 -3 c 7.69 -6.1 14.97 -13.49 23 -20 c 4.54 -3.68 11.57 -9.86 14 -10 c 1.34 -0.08 2.45 6.07 3 9 c 0.41 2.16 -0.85 6.72 0 7 c 1.2 0.4 6.45 -2.18 9 -4 c 6.44 -4.6 13.04 -11.78 19 -16 c 1.22 -0.87 3.72 -1.28 5 -1 c 1.25 0.28 2.99 1.85 4 3 c 1.18 1.35 1.65 4.77 3 5 c 6.03 1.04 17.43 -0.84 26 0 c 11.7 1.15 23.96 3.74 35 6 l 4 2"/></svg>