<?xml version="1.0" encoding="UTF-8" standalone="no"?><!DOCTYPE svg PUBLIC "-//W3C//DTD SVG 1.1//EN" "http://www.w3.org/Graphics/SVG/1.1/DTD/svg11.dtd"><svg xmlns="http://www.w3.org/2000/svg" version="1.1" width="175" height="53"><path fill="none" stroke="#000000" stroke-width="2" stroke-linecap="round" stroke-linejoin="round" d="M 48 16 c -0.23 -0.16 -8.5 -6.58 -13 -9 c -3.97 -2.14 -8.68 -3.82 -13 -5 c -2.81 -0.77 -6.23 -1.17 -9 -1 c -2.23 0.14 -5.61 0.74 -7 2 c -1.71 1.55 -3.36 5.33 -4 8 c -0.93 3.89 -1.51 8.95 -1 13 c 0.76 6.1 2.7 13.76 5 19 c 1 2.26 3.84 4.61 6 6 c 2.17 1.4 6.15 3.62 8 3 c 2.91 -0.97 8.63 -5.62 10 -9 c 2.37 -5.83 1.62 -17.25 3 -23 c 0.21 -0.89 2.01 -2 3 -2 c 5.78 0 15.27 0.15 21 2 c 3.48 1.12 6.43 5.75 10 8 c 5.36 3.37 13.91 8.85 17 9 c 1.37 0.07 2.48 -5.4 3 -8 c 0.43 -2.13 -0.28 -4.74 0 -7 c 0.37 -2.98 0.59 -7.45 2 -9 c 1.26 -1.38 5.84 -2.17 8 -2 c 1.53 0.12 3.51 1.84 5 3 c 1.44 1.12 3.14 2.5 4 4 c 1.63 2.85 2.46 7.37 4 10 c 0.51 0.88 2.13 2 3 2 c 1.3 0 3.9 -1.06 5 -2 c 0.91 -0.78 1.59 -2.64 2 -4 c 0.55 -1.85 0.32 -4.24 1 -6 c 0.9 -2.34 2.42 -5.73 4 -7 c 1.19 -0.95 4.6 -1.7 6 -1 c 4.1 2.05 9.26 7.98 14 11 c 2.28 1.45 5.33 2.63 8 3 l 21 1"/></svg>