<?xml version="1.0" encoding="UTF-8" standalone="no"?><!DOCTYPE svg PUBLIC "-//W3C//DTD SVG 1.1//EN" "http://www.w3.org/Graphics/SVG/1.1/DTD/svg11.dtd"><svg xmlns="http://www.w3.org/2000/svg" version="1.1" width="171" height="93"><path fill="none" stroke="#000000" stroke-width="2" stroke-linecap="round" stroke-linejoin="round" d="M 170 92 c -0.72 -0.72 -26.66 -27.13 -41 -41 c -6.66 -6.44 -12.85 -12.35 -20 -18 c -12.17 -9.61 -24.53 -18.68 -37 -27 c -3.29 -2.19 -7.83 -4.44 -11 -5 c -1.66 -0.29 -5.18 0.77 -6 2 c -1.32 1.98 -1.74 6.66 -2 10 c -0.4 5.23 -0.46 10.99 0 16 c 0.18 1.98 0.75 5.13 2 6 c 2.25 1.56 8.53 3.18 11 3 c 1.08 -0.08 3.23 -3.42 3 -4 c -0.24 -0.59 -3.33 -0.95 -5 -1 c -9.51 -0.28 -19.57 -0.5 -29 0 c -3 0.16 -6.17 0.97 -9 2 c -4.39 1.6 -9.46 3.87 -13 6 c -0.89 0.54 -1.87 1.98 -2 3 c -0.46 3.67 1.04 11.21 0 13 c -0.57 0.97 -5.87 0.13 -7 -1 l -3 -9"/></svg>