<?xml version="1.0" encoding="UTF-8" standalone="no"?><!DOCTYPE svg PUBLIC "-//W3C//DTD SVG 1.1//EN" "http://www.w3.org/Graphics/SVG/1.1/DTD/svg11.dtd"><svg xmlns="http://www.w3.org/2000/svg" version="1.1" width="179" height="40"><path fill="none" stroke="#000000" stroke-width="2" stroke-linecap="round" stroke-linejoin="round" d="M 178 27 c -0.33 -0.21 -12.4 -8.2 -19 -12 c -4.6 -2.65 -9.17 -5.3 -14 -7 c -7.33 -2.57 -15.33 -4.78 -23 -6 c -6.79 -1.08 -13.76 -0.81 -21 -1 c -6.2 -0.16 -12.15 -0.43 -18 0 c -2.99 0.22 -7.54 0.54 -9 2 c -1.46 1.46 -1.69 6.01 -2 9 c -0.34 3.24 -0.79 7.31 0 10 c 0.68 2.32 3.16 4.82 5 7 c 1.82 2.15 4.59 3.99 6 6 c 0.69 0.98 1.03 4.07 1 4 c -0.08 -0.19 -1.96 -8.52 -4 -11 c -2.03 -2.47 -6.63 -5.35 -10 -6 c -7.51 -1.46 -17.16 -1 -26 -1 c -6.47 0 -13.12 -0.01 -19 1 c -3.33 0.57 -6.94 2.32 -10 4 c -3.47 1.91 -8.45 6.72 -10 7 c -0.65 0.12 -0.35 -3.7 -1 -5 l -3 -3"/></svg>