<?xml version="1.0" encoding="UTF-8" standalone="no"?><!DOCTYPE svg PUBLIC "-//W3C//DTD SVG 1.1//EN" "http://www.w3.org/Graphics/SVG/1.1/DTD/svg11.dtd"><svg xmlns="http://www.w3.org/2000/svg" version="1.1" width="199" height="91"><path fill="none" stroke="#000000" stroke-width="2" stroke-linecap="round" stroke-linejoin="round" d="M 198 90 c -0.07 -0.03 -2.83 -1.14 -4 -2 c -3.73 -2.73 -7.02 -6.8 -11 -9 c -8.28 -4.58 -18.37 -10.14 -27 -12 c -7.02 -1.51 -18 -0.45 -24 1 c -1.95 0.47 -3.98 3.97 -5 6 c -0.79 1.58 -1.39 4.43 -1 6 c 0.47 1.86 2.55 4.73 4 6 c 0.83 0.73 3.73 1.64 4 1 c 1.34 -3.19 4 -13.66 4 -20 c 0 -8.18 -0.6 -19.33 -4 -26 c -4.03 -7.89 -13.45 -16.53 -21 -23 c -5.99 -5.13 -13.92 -10.07 -21 -13 c -5.85 -2.42 -13.35 -3.24 -20 -4 c -4.89 -0.56 -10.59 -0.77 -15 0 c -2.63 0.46 -6.12 2.28 -8 4 c -1.69 1.55 -3.1 4.66 -4 7 c -0.68 1.76 -0.9 3.99 -1 6 c -0.24 4.97 1.08 11.77 0 15 c -0.48 1.44 -4 2.84 -6 3 c -9.52 0.75 -21.51 -0.28 -32 0 c -1.67 0.05 -5.27 0.87 -5 1 c 1.47 0.7 18.06 5.03 26 9 c 8.96 4.48 26 17 26 17"/></svg>