<?xml version="1.0" encoding="UTF-8" standalone="no"?><!DOCTYPE svg PUBLIC "-//W3C//DTD SVG 1.1//EN" "http://www.w3.org/Graphics/SVG/1.1/DTD/svg11.dtd"><svg xmlns="http://www.w3.org/2000/svg" version="1.1" width="210" height="113"><path fill="none" stroke="#000000" stroke-width="2" stroke-linecap="round" stroke-linejoin="round" d="M 209 19 c -0.4 -0.11 -15.33 -4.95 -23 -6 c -9.04 -1.24 -18.64 -1.43 -28 -1 c -12.76 0.58 -27.12 0.43 -38 4 c -9.72 3.19 -19.72 11.35 -29 18 c -8.49 6.09 -16.82 12.82 -24 20 c -4.92 4.92 -10.44 11.24 -13 17 c -2.3 5.18 -2.36 12.63 -3 19 c -0.36 3.64 -0.88 7.93 0 11 c 0.93 3.25 3.37 9.07 6 10 c 5.65 2.01 21.35 4.55 25 1 c 5.49 -5.34 8.29 -23.68 11 -36 c 4.01 -18.24 7.34 -37.2 9 -55 c 0.6 -6.42 0.6 -17.66 -2 -20 c -2.34 -2.11 -13.4 -0.48 -18 2 c -10.31 5.57 -21.73 15.99 -32 25 c -8.94 7.84 -16.67 16.16 -25 25 c -8.51 9.03 -21.23 27.36 -24 27 c -2.3 -0.3 1 -30 1 -30"/></svg>