<?xml version="1.0" encoding="UTF-8" standalone="no"?><!DOCTYPE svg PUBLIC "-//W3C//DTD SVG 1.1//EN" "http://www.w3.org/Graphics/SVG/1.1/DTD/svg11.dtd"><svg xmlns="http://www.w3.org/2000/svg" version="1.1" width="372" height="64"><path fill="none" stroke="#000000" stroke-width="2" stroke-linecap="round" stroke-linejoin="round" d="M 1 39 c 0.28 -0.52 10.39 -20.39 16 -30 c 1.29 -2.21 3.06 -5.23 5 -6 c 3.75 -1.5 9.94 -1.64 15 -2 c 4.35 -0.31 9.37 -1.21 13 0 c 6.37 2.12 13.38 6.93 20 11 c 8.37 5.14 15.91 10.27 24 16 c 8.42 5.96 15.69 12.23 24 18 c 3.85 2.67 7.8 4.83 12 7 c 6.36 3.28 12.8 6.79 19 9 c 2.67 0.95 5.95 0.85 9 1 c 3.71 0.19 7.51 0.39 11 0 c 2.31 -0.26 5.4 -0.74 7 -2 c 2.51 -1.97 5.27 -5.82 7 -9 c 2.12 -3.88 4.35 -8.69 5 -13 c 1.26 -8.37 1.79 -21.29 1 -27 c -0.16 -1.14 -3.37 -1.7 -5 -2 c -1.82 -0.33 -4.11 -0.29 -6 0 c -2.3 0.35 -5.64 0.98 -7 2 c -0.77 0.58 -0.93 2.67 -1 4 c -0.25 4.51 -0.59 9.7 0 14 c 0.36 2.62 1.51 5.97 3 8 c 1.85 2.53 5.17 5.65 8 7 c 3.56 1.69 8.59 2.27 13 3 c 3.65 0.61 7.68 1.51 11 1 c 4.75 -0.73 10.4 -2.89 15 -5 c 3.15 -1.44 6.49 -3.58 9 -6 c 6.24 -6.01 12.32 -16.08 18 -20 c 2.32 -1.6 7.55 -0.67 11 0 c 8.14 1.58 16.53 5.54 25 7 c 12.79 2.2 25.61 3.03 39 4 c 10.25 0.74 20.14 1.4 30 1 l 19 -3"/></svg>