<?xml version="1.0" encoding="UTF-8" standalone="no"?><!DOCTYPE svg PUBLIC "-//W3C//DTD SVG 1.1//EN" "http://www.w3.org/Graphics/SVG/1.1/DTD/svg11.dtd"><svg xmlns="http://www.w3.org/2000/svg" version="1.1" width="264" height="98"><path fill="none" stroke="#000000" stroke-width="2" stroke-linecap="round" stroke-linejoin="round" d="M 15 86 c -0.14 -0.73 -4.81 -27.88 -8 -42 c -1.56 -6.89 -6.19 -18.87 -6 -20 c 0.1 -0.61 5.11 6.02 8 8 c 3.09 2.12 7.22 3.74 11 5 c 5.16 1.72 10.62 3.07 16 4 c 4.26 0.73 8.66 1 13 1 c 4.34 0 9.79 0.61 13 -1 c 4.36 -2.18 8.93 -7.74 13 -12 c 2.95 -3.09 5.47 -6.5 8 -10 c 1.86 -2.58 3.63 -5.27 5 -8 c 0.92 -1.83 2.46 -5.54 2 -6 c -0.46 -0.46 -4.72 0.84 -6 2 c -1.91 1.73 -3.81 5.28 -5 8 c -1.04 2.38 -1.75 5.35 -2 8 c -0.4 4.18 -0.25 8.81 0 13 c 0.08 1.33 0.16 3.49 1 4 c 2.57 1.58 8.09 3.29 12 4 c 3.09 0.56 7.1 0.81 10 0 c 4.8 -1.35 11.27 -3.79 15 -7 c 5.13 -4.43 9.03 -12.16 14 -18 c 2.77 -3.26 6.22 -5.82 9 -9 c 1.88 -2.15 3.23 -5.01 5 -7 c 0.74 -0.83 2.46 -2.36 3 -2 c 1.51 1.01 3.62 5.9 6 8 c 5.62 4.95 12.51 10.57 19 14 c 4.88 2.57 11.22 3.65 17 5 c 4.29 1 8.71 1.86 13 2 c 5.56 0.19 14.52 1.07 17 -1 c 2.04 -1.7 1.73 -10.36 1 -14 c -0.41 -2.03 -3.12 -4.55 -5 -6 c -2.16 -1.66 -5.29 -3.32 -8 -4 c -4.88 -1.22 -13.48 -2.63 -16 -2 c -0.94 0.23 -0.47 4.19 0 6 c 1.42 5.45 2.52 13.04 6 17 c 9.72 11.05 24.91 22.57 38 33 c 4.91 3.91 10.69 7.8 16 10 c 3.7 1.53 12.8 2.2 13 2 c 0.18 -0.18 -7.27 -3.45 -11 -4 c -16.02 -2.36 -33 -4.01 -50 -5 c -12.18 -0.71 -23.88 -0.68 -36 0 c -11.86 0.67 -23.76 1.84 -35 4 c -5.75 1.11 -12.46 3.28 -17 6 c -3.03 1.82 -6.41 5.99 -8 9 c -1.07 2.02 -1.35 5.9 -1 8 c 0.22 1.3 1.75 3.45 3 4 c 3.32 1.45 8.62 2.45 13 3 c 6.24 0.78 12.72 1.18 19 1 c 5.32 -0.15 11.49 -0.17 16 -2 c 6.91 -2.8 14.26 -8.21 21 -13 c 6.01 -4.27 10.96 -9.59 17 -14 l 31 -21"/></svg>