<?xml version="1.0" encoding="UTF-8" standalone="no"?><!DOCTYPE svg PUBLIC "-//W3C//DTD SVG 1.1//EN" "http://www.w3.org/Graphics/SVG/1.1/DTD/svg11.dtd"><svg xmlns="http://www.w3.org/2000/svg" version="1.1" width="207" height="87"><path fill="none" stroke="#000000" stroke-width="2" stroke-linecap="round" stroke-linejoin="round" d="M 4 86 c 0.05 -0.04 2.4 -1.14 3 -2 c 1.5 -2.14 2.9 -5.2 4 -8 c 3.28 -8.33 7.66 -16.69 9 -25 c 2.18 -13.46 2.26 -30.38 2 -43 c -0.04 -1.97 -1.7 -4.99 -3 -6 c -1.18 -0.92 -4.65 -1.62 -6 -1 c -2.19 1.01 -5.44 4.45 -7 7 c -1.84 3.01 -3.51 7.34 -4 11 c -1.1 8.13 -3.24 19.57 -1 26 c 2.01 5.77 10.16 12.21 16 17 c 6.87 5.63 15.25 12 23 15 c 7.42 2.88 17.26 3.44 26 4 c 11.96 0.77 25.8 2.19 36 0 c 6.61 -1.42 14.17 -7.23 20 -12 c 8.48 -6.94 16.88 -15.74 24 -24 c 2.91 -3.38 5.32 -7.88 7 -12 c 1.88 -4.6 3.07 -10.11 4 -15 c 0.36 -1.89 -0.23 -6.23 0 -6 c 0.57 0.57 4.23 9.06 7 13 c 3.46 4.92 7.68 9.42 12 14 c 6.96 7.38 14.08 15.46 21 21 c 2.21 1.77 9.16 2.95 9 3 c -0.2 0.07 -8.08 -0.98 -12 -2 c -5.09 -1.32 -9.86 -4.03 -15 -5 c -17.73 -3.34 -35.31 -5.13 -54 -8 c -3.83 -0.59 -7.56 -1.08 -11 -2 c -1.38 -0.37 -2.96 -2 -4 -2 c -0.84 0 -2.78 1.24 -3 2 c -0.31 1.07 1 5 1 5 c 0 0 -0.33 -3.56 -1 -5 c -1.54 -3.29 -4.5 -6.62 -6 -10 c -1.06 -2.39 -1.12 -5.58 -2 -8 l -2 -3"/></svg>