<?xml version="1.0" encoding="UTF-8" standalone="no"?><!DOCTYPE svg PUBLIC "-//W3C//DTD SVG 1.1//EN" "http://www.w3.org/Graphics/SVG/1.1/DTD/svg11.dtd"><svg xmlns="http://www.w3.org/2000/svg" version="1.1" width="164" height="76"><path fill="none" stroke="#000000" stroke-width="2" stroke-linecap="round" stroke-linejoin="round" d="M 163 75 c -0.35 -0.28 -13.39 -10.29 -20 -16 c -6.02 -5.21 -10.93 -10.88 -17 -16 c -9.25 -7.81 -18.25 -15.01 -28 -22 c -5.77 -4.14 -11.73 -7.5 -18 -11 c -5.32 -2.97 -10.74 -6.56 -16 -8 c -5.01 -1.37 -11.36 -1 -17 -1 c -3 0 -7.09 -0.27 -9 1 c -2.28 1.52 -5.09 5.92 -6 9 c -1.53 5.15 -1.61 11.9 -2 18 c -0.28 4.38 -0.53 8.91 0 13 c 0.43 3.29 1.2 7.56 3 10 c 3.3 4.47 9.8 10.12 14 13 c 1.1 0.75 3.89 0.47 5 0 c 0.8 -0.34 2.43 -2.65 2 -3 c -1.56 -1.25 -7.95 -4.19 -12 -5 c -8.78 -1.76 -18.73 -2.55 -28 -3 l -13 1"/></svg>