<?xml version="1.0" encoding="UTF-8" standalone="no"?><!DOCTYPE svg PUBLIC "-//W3C//DTD SVG 1.1//EN" "http://www.w3.org/Graphics/SVG/1.1/DTD/svg11.dtd"><svg xmlns="http://www.w3.org/2000/svg" version="1.1" width="154" height="59"><path fill="none" stroke="#000000" stroke-width="2" stroke-linecap="round" stroke-linejoin="round" d="M 153 58 c -0.17 -0.14 -6.91 -5.06 -10 -8 c -3.92 -3.74 -6.95 -8.68 -11 -12 c -5.03 -4.13 -11.03 -7.81 -17 -11 c -8.44 -4.51 -17.16 -8.32 -26 -12 c -3.22 -1.34 -7.06 -2.82 -10 -3 c -1.78 -0.11 -4.52 0.96 -6 2 c -1.5 1.05 -3.76 3.26 -4 5 c -0.9 6.53 -0.28 16.26 0 24 c 0.05 1.33 0.33 3.33 1 4 c 0.67 0.67 3.73 1.54 4 1 c 0.59 -1.19 1.17 -6.83 0 -9 c -2.85 -5.3 -8.73 -12.45 -14 -17 c -6.57 -5.68 -15.26 -10.91 -23 -15 c -3.84 -2.02 -8.59 -3.06 -13 -4 c -4.91 -1.05 -9.95 -1.5 -15 -2 c -1.67 -0.17 -4.09 -0.68 -5 0 l -3 6"/></svg>