<?xml version="1.0" encoding="UTF-8" standalone="no"?><!DOCTYPE svg PUBLIC "-//W3C//DTD SVG 1.1//EN" "http://www.w3.org/Graphics/SVG/1.1/DTD/svg11.dtd"><svg xmlns="http://www.w3.org/2000/svg" version="1.1" width="251" height="64"><path fill="none" stroke="#000000" stroke-width="2" stroke-linecap="round" stroke-linejoin="round" d="M 23 63 c -0.26 -0.19 -10.42 -7.11 -15 -11 c -1.92 -1.63 -3.88 -3.91 -5 -6 c -1.05 -1.95 -2 -4.86 -2 -7 c 0 -2.72 0.61 -6.69 2 -9 c 2.23 -3.72 6.39 -7.74 10 -11 c 3.3 -2.99 7.16 -5.51 11 -8 c 2.9 -1.89 5.87 -3.58 9 -5 c 4.24 -1.93 10.8 -5.44 13 -5 c 1.3 0.26 1.92 5.38 2 8 c 0.24 7.31 -1 15.27 -1 23 c 0 4.04 -0.32 8.92 1 12 c 1.32 3.08 5.08 6.73 8 9 c 2.71 2.11 6.63 4.02 10 5 c 4.27 1.24 9.38 1.84 14 2 c 4.91 0.17 11.29 0.79 15 -1 c 4.71 -2.28 9.57 -8.38 14 -13 c 3.29 -3.44 6.84 -7.17 9 -11 c 1.93 -3.41 3.18 -8.11 4 -12 c 0.45 -2.15 0.33 -4.83 0 -7 c -0.3 -1.96 -1.02 -4.86 -2 -6 c -0.64 -0.75 -3.32 -1.51 -4 -1 c -1.33 0.99 -3.87 4.94 -4 7 c -0.15 2.43 1.28 6.94 3 9 c 2.71 3.26 7.8 6.58 12 9 c 4.27 2.46 9.37 4.96 14 6 c 5.17 1.17 11.61 1.48 17 1 c 5.53 -0.49 12.64 -1.22 17 -4 c 9.91 -6.33 19.69 -17.54 30 -26 c 2.81 -2.31 5.94 -4.37 9 -6 c 1.79 -0.95 4.03 -1.78 6 -2 c 3.75 -0.42 8.45 -0.77 12 0 c 3.57 0.78 8.04 2.86 11 5 l 7 8"/></svg>