<?xml version="1.0" encoding="UTF-8" standalone="no"?><!DOCTYPE svg PUBLIC "-//W3C//DTD SVG 1.1//EN" "http://www.w3.org/Graphics/SVG/1.1/DTD/svg11.dtd"><svg xmlns="http://www.w3.org/2000/svg" version="1.1" width="207" height="80"><path fill="none" stroke="#000000" stroke-width="2" stroke-linecap="round" stroke-linejoin="round" d="M 88 79 c -0.56 -1.36 -22.35 -62.32 -32 -78 c -1.83 -2.98 -11.05 -0.87 -16 0 c -5.87 1.04 -12.96 3.1 -18 6 c -5.27 3.03 -11.54 8.33 -15 13 c -2.59 3.5 -3.93 9.35 -5 14 c -0.87 3.77 -1.17 8.14 -1 12 c 0.16 3.58 0.48 8.23 2 11 c 1.73 3.15 5.92 6.88 9 9 c 1.76 1.21 4.8 2 7 2 c 3.97 0 10.01 -0.05 13 -2 c 4.51 -2.95 8.98 -9.64 13 -15 c 7.14 -9.52 13.02 -19.34 20 -29 c 1.83 -2.53 3.85 -4.85 6 -7 c 1.49 -1.49 3.25 -3.05 5 -4 c 1.72 -0.94 4.03 -1.72 6 -2 c 2.49 -0.36 6.02 -0.87 8 0 c 2.63 1.15 5.78 4.32 8 7 c 8.96 10.8 17.88 25.65 26 34 c 1.75 1.8 6.01 1.69 9 2 c 3.24 0.34 7.91 1.32 10 0 c 3.13 -1.98 6.24 -7.78 9 -12 c 2.97 -4.54 4.96 -9.82 8 -14 c 2.13 -2.93 5.18 -5.58 8 -8 c 1.8 -1.54 3.97 -3.28 6 -4 c 2.27 -0.81 5.37 -1 8 -1 c 3.6 0 7.35 0.39 11 1 l 13 3"/></svg>