<?xml version="1.0" encoding="UTF-8" standalone="no"?><!DOCTYPE svg PUBLIC "-//W3C//DTD SVG 1.1//EN" "http://www.w3.org/Graphics/SVG/1.1/DTD/svg11.dtd"><svg xmlns="http://www.w3.org/2000/svg" version="1.1" width="112" height="60"><path fill="none" stroke="#000000" stroke-width="2" stroke-linecap="round" stroke-linejoin="round" d="M 1 31 c 0.25 -0.33 9.09 -12.86 14 -19 c 1.77 -2.21 3.82 -4.4 6 -6 c 2.65 -1.94 6.15 -3.98 9 -5 c 1.38 -0.49 3.83 -0.59 5 0 c 1.66 0.83 4.04 3.04 5 5 c 6.8 13.88 13.15 31.45 20 46 c 0.87 1.86 2.52 3.85 4 5 c 1.24 0.97 4.03 2.43 5 2 c 1.31 -0.58 3.47 -4.02 4 -6 c 0.66 -2.47 0.71 -6.45 0 -9 c -0.81 -2.91 -2.91 -6.76 -5 -9 c -2.19 -2.35 -5.83 -4.21 -9 -6 c -4.58 -2.59 -13.1 -6.91 -14 -7 c -0.42 -0.04 2.29 4.86 4 6 c 3.62 2.41 9.36 5.28 14 6 c 9.45 1.47 22.15 2.51 31 1 c 5.24 -0.89 12.4 -6.03 16 -9 c 1 -0.82 1.72 -4.06 1 -5 l -14 -12"/></svg>