<?xml version="1.0" encoding="UTF-8" standalone="no"?><!DOCTYPE svg PUBLIC "-//W3C//DTD SVG 1.1//EN" "http://www.w3.org/Graphics/SVG/1.1/DTD/svg11.dtd"><svg xmlns="http://www.w3.org/2000/svg" version="1.1" width="120" height="61"><path fill="none" stroke="#000000" stroke-width="2" stroke-linecap="round" stroke-linejoin="round" d="M 68 60 c -0.07 -0.3 -4.81 -12.24 -4 -17 c 1.23 -7.19 8.54 -16.41 11 -24 c 0.93 -2.87 0.67 -7.16 0 -10 c -0.54 -2.29 -2.18 -6.37 -4 -7 c -4.29 -1.49 -12.91 -1.57 -19 -1 c -7.84 0.73 -17.04 2.22 -24 5 c -5.51 2.21 -11 7 -16 11 c -3.28 2.62 -7 5.9 -9 9 c -1.3 2.01 -2 5.59 -2 8 c 0 2.12 0.58 5.93 2 7 c 2.9 2.18 9.39 4.52 14 5 c 10.54 1.1 24.33 1.65 34 0 c 4.34 -0.74 9.68 -4.85 13 -8 c 2.83 -2.69 4.9 -7.19 7 -11 c 1.58 -2.88 3.23 -6.11 4 -9 c 0.47 -1.76 -0.86 -5.88 0 -6 c 2.08 -0.3 9.39 2.36 14 4 c 4.82 1.72 9.2 4.4 14 6 l 16 4"/></svg>