<?xml version="1.0" encoding="UTF-8" standalone="no"?><!DOCTYPE svg PUBLIC "-//W3C//DTD SVG 1.1//EN" "http://www.w3.org/Graphics/SVG/1.1/DTD/svg11.dtd"><svg xmlns="http://www.w3.org/2000/svg" version="1.1" width="219" height="35"><path fill="none" stroke="#000000" stroke-width="2" stroke-linecap="round" stroke-linejoin="round" d="M 1 13 c 0.87 -0.02 33 -0.13 50 -1 c 9.57 -0.49 18.62 -1.63 28 -3 c 4.44 -0.65 8.82 -1.67 13 -3 c 3.08 -0.98 5.98 -2.92 9 -4 c 1.56 -0.56 4.55 -1.81 5 -1 c 1.73 3.12 2.82 13.32 5 19 c 0.96 2.49 3.09 5.09 5 7 c 1.91 1.91 4.57 4.32 7 5 c 5.11 1.43 11.89 1.74 18 2 c 9.78 0.42 19.98 1.26 29 0 c 6.89 -0.96 14.25 -4.07 21 -7 c 8.59 -3.73 17.87 -8.78 25 -13 c 0.91 -0.54 2.12 -2.3 2 -3 c -0.14 -0.82 -1.87 -2.7 -3 -3 c -4.31 -1.13 -16 -2 -16 -2"/></svg>