<?xml version="1.0" encoding="UTF-8" standalone="no"?><!DOCTYPE svg PUBLIC "-//W3C//DTD SVG 1.1//EN" "http://www.w3.org/Graphics/SVG/1.1/DTD/svg11.dtd"><svg xmlns="http://www.w3.org/2000/svg" version="1.1" width="261" height="93"><path fill="none" stroke="#000000" stroke-width="2" stroke-linecap="round" stroke-linejoin="round" d="M 70 68 c -0.09 -0.12 -3.09 -4.88 -5 -7 c -4.4 -4.87 -8.89 -9.73 -14 -14 c -13.42 -11.22 -27.85 -22.49 -41 -32 c -1.6 -1.16 -5.38 -2.82 -6 -2 c -1.4 1.86 -2.65 9.34 -3 14 c -0.63 8.46 -1.65 18.42 0 26 c 1.42 6.52 5.98 14.24 10 20 c 3.3 4.74 8.36 9.85 13 13 c 4.08 2.77 10.15 4.92 15 6 c 3.6 0.8 9.62 1.59 12 0 c 3.3 -2.2 7.41 -9.12 9 -14 c 3.42 -10.46 5.25 -23.12 7 -35 c 1.28 -8.68 1.53 -17.11 2 -26 c 0.22 -4.09 0.24 -8.14 0 -12 c -0.08 -1.33 -0.9 -4.2 -1 -4 c -0.3 0.6 -4.2 9.6 -3 12 c 1.67 3.34 9.25 7.71 14 10 c 3.68 1.77 8.57 2.35 13 3 c 7 1.03 14.04 2 21 2 c 7.61 0 15.46 -0.81 23 -2 c 5.07 -0.8 10.18 -2.23 15 -4 c 5.13 -1.88 10.81 -6.68 15 -7 c 3.06 -0.24 8.36 2.56 11 5 c 5.59 5.18 10.38 13.68 16 20 c 2.33 2.62 5.21 5.25 8 7 c 2.25 1.4 5.39 2.56 8 3 c 3.06 0.51 7.69 1.09 10 0 c 2.45 -1.15 4.45 -5.79 7 -8 c 2.26 -1.96 5.27 -3.63 8 -5 c 1.83 -0.92 4.02 -1.82 6 -2 c 5.01 -0.46 11.88 -0.82 16 0 l 4 4"/></svg>