<?xml version="1.0" encoding="UTF-8" standalone="no"?><!DOCTYPE svg PUBLIC "-//W3C//DTD SVG 1.1//EN" "http://www.w3.org/Graphics/SVG/1.1/DTD/svg11.dtd"><svg xmlns="http://www.w3.org/2000/svg" version="1.1" width="355" height="86"><path fill="none" stroke="#000000" stroke-width="2" stroke-linecap="round" stroke-linejoin="round" d="M 96 7 c -0.09 -0.05 -3.28 -2.52 -5 -3 c -3.89 -1.08 -8.56 -1.58 -13 -2 c -6.42 -0.6 -12.45 -0.89 -19 -1 c -14.8 -0.24 -29.66 -0.99 -43 0 c -3.63 0.27 -8.1 2.26 -11 4 c -1.59 0.95 -3.55 3.3 -4 5 c -0.71 2.66 -0.98 7.11 0 10 c 4.27 12.56 10.84 26.53 17 40 c 3.04 6.65 6.39 12.99 10 19 c 1.31 2.19 5.39 5.71 5 6 l -9 -3"/><path fill="none" stroke="#000000" stroke-width="2" stroke-linecap="round" stroke-linejoin="round" d="M 12 30 c 0.02 -0.09 0.34 -3.84 1 -5 c 0.47 -0.82 1.94 -1.68 3 -2 c 2.99 -0.92 6.6 -1.58 10 -2 c 4.68 -0.58 9.25 -1 14 -1 c 9.81 0 21.94 -0.96 29 1 c 2.77 0.77 5.79 5.97 7 9 c 1.18 2.94 1.32 7.62 1 11 c -0.3 3.2 -1.17 7.53 -3 10 c -4.22 5.7 -15.06 13.6 -17 17 c -0.52 0.9 3.41 4 5 4 c 4.35 0 12.39 -1.56 17 -4 c 5.82 -3.08 11 -9.67 17 -14 c 6.12 -4.42 12.85 -8.52 19 -12 c 1.13 -0.64 3.52 -1.6 4 -1 c 1.36 1.71 2.12 8.44 4 11 c 1.3 1.77 4.65 3.35 7 4 c 3.22 0.89 7.4 1.13 11 1 c 5.25 -0.19 11.49 -0.17 16 -2 c 6.91 -2.8 14.48 -8.35 21 -13 c 2.61 -1.87 4.86 -4.51 7 -7 c 1.86 -2.17 3.18 -4.98 5 -7 c 1.06 -1.17 2.67 -2.6 4 -3 c 1.6 -0.48 4.06 -0.26 6 0 c 2.98 0.4 6.6 0.55 9 2 c 9.33 5.65 18.99 14.4 29 21 c 4.75 3.13 9.89 6.14 15 8 c 5.54 2.02 12.03 3.32 18 4 c 5.5 0.63 12.55 2 17 0 c 12.72 -5.7 27.36 -18.28 41 -26 c 3.55 -2.01 8.13 -3.09 12 -4 c 1.53 -0.36 3.54 -0.32 5 0 c 1.3 0.29 3.08 1.08 4 2 l 4 6"/></svg>