<?xml version="1.0" encoding="UTF-8" standalone="no"?><!DOCTYPE svg PUBLIC "-//W3C//DTD SVG 1.1//EN" "http://www.w3.org/Graphics/SVG/1.1/DTD/svg11.dtd"><svg xmlns="http://www.w3.org/2000/svg" version="1.1" width="153" height="75"><path fill="none" stroke="#000000" stroke-width="2" stroke-linecap="round" stroke-linejoin="round" d="M 44 74 c -0.07 -0.33 -5.79 -14.13 -4 -19 c 5.25 -14.29 20.09 -33.25 29 -49 c 0.65 -1.14 1.61 -3.82 1 -4 c -2.66 -0.78 -12.62 -2.12 -18 -1 c -9.53 1.99 -20.75 6.71 -30 11 c -3.94 1.82 -7.97 4.97 -11 8 c -3.03 3.03 -6.23 7.29 -8 11 c -1.32 2.78 -2.61 7.32 -2 10 c 0.83 3.65 3.96 10.13 7 12 c 4.25 2.61 12.76 3.56 19 4 c 7.72 0.54 16.94 0.77 24 -1 c 6.57 -1.64 13.81 -6.01 20 -10 c 8.69 -5.6 17.14 -12.37 25 -19 c 2.66 -2.24 4.59 -5.59 7 -8 c 0.82 -0.82 2.2 -2.2 3 -2 c 2.28 0.57 7.11 2.63 9 5 c 6.53 8.16 13.03 22.04 19 30 c 0.91 1.21 3.37 1.7 5 2 c 1.82 0.33 4.22 0.41 6 0 l 7 -3"/></svg>