<?xml version="1.0" encoding="UTF-8" standalone="no"?><!DOCTYPE svg PUBLIC "-//W3C//DTD SVG 1.1//EN" "http://www.w3.org/Graphics/SVG/1.1/DTD/svg11.dtd"><svg xmlns="http://www.w3.org/2000/svg" version="1.1" width="215" height="58"><path fill="none" stroke="#000000" stroke-width="2" stroke-linecap="round" stroke-linejoin="round" d="M 214 43 c -0.37 -0.4 -13.63 -16.06 -21 -23 c -3.74 -3.52 -8.45 -6.57 -13 -9 c -5.29 -2.82 -11.27 -5.45 -17 -7 c -6.31 -1.7 -13.28 -2.51 -20 -3 c -6.98 -0.51 -14.54 -1.17 -21 0 c -7.49 1.36 -16.16 4.58 -23 8 c -4.61 2.3 -9.78 6.4 -13 10 c -1.93 2.16 -3.73 6.21 -4 9 c -0.33 3.45 0.19 9.42 2 12 c 2.14 3.06 7.81 5.83 12 8 c 4.69 2.43 9.88 4.35 15 6 c 4.23 1.36 8.69 2.52 13 3 c 4.52 0.5 10.79 1.18 14 0 c 1.97 -0.73 4.54 -4.7 5 -7 c 0.7 -3.48 0.74 -10.14 -1 -13 c -2.19 -3.59 -8.41 -7.77 -13 -10 c -6.46 -3.14 -14.64 -6.1 -22 -7 c -19.16 -2.34 -39.79 -1.6 -60 -3 c -4.09 -0.28 -7.97 -1.82 -12 -2 c -11.26 -0.49 -34 0 -34 0"/></svg>