<?xml version="1.0" encoding="UTF-8" standalone="no"?><!DOCTYPE svg PUBLIC "-//W3C//DTD SVG 1.1//EN" "http://www.w3.org/Graphics/SVG/1.1/DTD/svg11.dtd"><svg xmlns="http://www.w3.org/2000/svg" version="1.1" width="197" height="100"><path fill="none" stroke="#000000" stroke-width="2" stroke-linecap="round" stroke-linejoin="round" d="M 95 99 c -0.19 -0.14 -9.32 -4.58 -11 -8 c -5.58 -11.37 -8.36 -31.05 -14 -43 c -1.85 -3.93 -7.08 -7.82 -11 -10 c -4.42 -2.45 -10.76 -4.18 -16 -5 c -5 -0.78 -11.03 -0.92 -16 0 c -7.17 1.32 -16.04 4.25 -22 7 c -1.65 0.76 -3.35 3.37 -4 5 c -0.51 1.28 -0.67 4 0 5 c 0.96 1.44 3.96 3.46 6 4 c 3.7 0.97 8.81 1.28 13 1 c 5.55 -0.37 12.23 -0.88 17 -3 c 6.37 -2.83 13.43 -8.11 19 -13 c 5.14 -4.52 8.96 -10.82 14 -16 c 7.55 -7.76 16.5 -17.45 23 -22 c 1.44 -1.01 5.58 -0.03 7 1 c 1.62 1.18 2.4 5.08 4 7 c 1.55 1.86 3.89 3.34 6 5 c 2.71 2.13 5.2 4.35 8 6 c 2.76 1.62 5.93 3.47 9 4 c 13.49 2.34 28.45 3.95 43 5 c 8.74 0.63 26 0 26 0"/></svg>