<?xml version="1.0" encoding="UTF-8" standalone="no"?><!DOCTYPE svg PUBLIC "-//W3C//DTD SVG 1.1//EN" "http://www.w3.org/Graphics/SVG/1.1/DTD/svg11.dtd"><svg xmlns="http://www.w3.org/2000/svg" version="1.1" width="141" height="90"><path fill="none" stroke="#000000" stroke-width="2" stroke-linecap="round" stroke-linejoin="round" d="M 128 89 c 0.05 -0.09 2.37 -3.23 3 -5 c 2.61 -7.31 5.34 -15.27 7 -23 c 1.32 -6.14 2.29 -12.91 2 -19 c -0.35 -7.44 -1.11 -16.91 -4 -23 c -2.81 -5.91 -9.31 -15.7 -15 -17 c -16.06 -3.66 -53.17 -3.37 -64 -1 c -2.54 0.56 -1.2 10.73 0 15 c 1.54 5.48 5.32 12.14 9 17 c 4.33 5.71 15.8 14.9 16 16 c 0.13 0.72 -9.14 -3.54 -14 -5 c -8.8 -2.64 -17.34 -5.46 -26 -7 c -6.12 -1.09 -12.55 -0.37 -19 -1 c -7.53 -0.73 -22 -3.81 -22 -3 c 0 0.9 15.26 7.22 22 11 c 1.16 0.65 2.61 1.96 3 3 c 0.46 1.23 0.8 4.12 0 5 c -2.1 2.29 -7.97 4.33 -11 7 l -6 8"/></svg>