<?xml version="1.0" encoding="UTF-8" standalone="no"?><!DOCTYPE svg PUBLIC "-//W3C//DTD SVG 1.1//EN" "http://www.w3.org/Graphics/SVG/1.1/DTD/svg11.dtd"><svg xmlns="http://www.w3.org/2000/svg" version="1.1" width="227" height="113"><path fill="none" stroke="#000000" stroke-width="2" stroke-linecap="round" stroke-linejoin="round" d="M 1 112 c 0.02 -0.75 -0.01 -28.53 1 -43 c 0.68 -9.85 3.42 -19.22 4 -29 c 0.77 -13.03 -0.65 -36.2 0 -39 c 0.19 -0.82 4.34 6.34 7 9 c 6.28 6.28 12.97 12.14 20 18 c 5.22 4.35 10.42 8.79 16 12 c 5.13 2.95 11.2 5.18 17 7 c 5.82 1.83 12.06 3.15 18 4 c 3.22 0.46 7.19 0.43 10 0 c 1.01 -0.16 2.5 -2.41 3 -2 c 1.89 1.55 4.8 8.39 8 11 c 5.17 4.21 12.38 7.96 19 11 c 9.36 4.29 18.97 7.76 29 11 c 12.08 3.9 23.62 6.85 36 10 c 5.07 1.29 10.14 2.64 15 3 c 3.83 0.28 8.96 0.38 12 -1 l 10 -9"/></svg>