<?xml version="1.0" encoding="UTF-8" standalone="no"?><!DOCTYPE svg PUBLIC "-//W3C//DTD SVG 1.1//EN" "http://www.w3.org/Graphics/SVG/1.1/DTD/svg11.dtd"><svg xmlns="http://www.w3.org/2000/svg" version="1.1" width="252" height="58"><path fill="none" stroke="#000000" stroke-width="2" stroke-linecap="round" stroke-linejoin="round" d="M 3 32 c -0.04 -0.05 -2.04 -3.04 -2 -3 c 0.08 0.08 2.43 3.69 4 5 c 4.22 3.52 9.11 7.23 14 10 c 4.97 2.81 10.48 5.06 16 7 c 6.9 2.43 14.09 5.08 21 6 c 7.59 1.01 16.58 0.98 24 0 c 4.6 -0.6 10.2 -2.47 14 -5 c 6.51 -4.34 13.53 -10.95 19 -17 c 3.57 -3.95 6.99 -9.21 9 -14 c 2.11 -5.03 4 -13.14 4 -17 c 0 -1.1 -2.68 -2.56 -4 -3 c -1.32 -0.44 -5.08 -0.03 -5 0 c 0.13 0.04 5.49 0.26 8 1 c 6.3 1.87 12.57 5.26 19 7 c 5.8 1.57 11.86 2.26 18 3 c 5.06 0.61 10.15 1.19 15 1 c 3.6 -0.14 8.26 -0.72 11 -2 c 1.57 -0.73 3.5 -3.5 4 -5 c 0.32 -0.97 -0.73 -4.09 -1 -4 c -0.36 0.12 -2.59 3.87 -2 5 c 2.72 5.23 9.78 13.48 15 20 c 1.48 1.85 3.2 4.28 5 5 c 2.55 1.02 6.98 1.41 10 1 c 3.8 -0.52 8 -3.38 12 -4 l 20 -1"/></svg>