<?xml version="1.0" encoding="UTF-8" standalone="no"?><!DOCTYPE svg PUBLIC "-//W3C//DTD SVG 1.1//EN" "http://www.w3.org/Graphics/SVG/1.1/DTD/svg11.dtd"><svg xmlns="http://www.w3.org/2000/svg" version="1.1" width="217" height="78"><path fill="none" stroke="#000000" stroke-width="2" stroke-linecap="round" stroke-linejoin="round" d="M 216 77 c -0.07 -0.05 -3 -1.78 -4 -3 c -3.45 -4.19 -6.34 -9.47 -10 -14 c -4.82 -5.97 -10.07 -11.04 -15 -17 c -3.26 -3.94 -5.55 -8.55 -9 -12 c -6.37 -6.37 -13.68 -13.24 -21 -18 c -5.45 -3.54 -12.52 -5.84 -19 -8 c -5.49 -1.83 -11.39 -3.23 -17 -4 c -3.85 -0.53 -9.01 -1 -12 0 c -2.11 0.7 -4.69 3.88 -6 6 c -1.12 1.82 -1.69 4.7 -2 7 c -0.34 2.53 -0.6 5.74 0 8 c 0.61 2.28 2.26 5.63 4 7 c 2.33 1.83 6.88 2.36 10 4 c 3.13 1.65 6.23 5.13 9 6 c 1.81 0.57 6.25 0.25 7 -1 c 1.5 -2.51 3.67 -11.77 2 -14 c -2.13 -2.84 -11.3 -5.16 -17 -6 c -13.95 -2.06 -29.07 -2.6 -44 -3 c -10.16 -0.27 -19.91 0.19 -30 1 c -6.8 0.54 -13.31 1.66 -20 3 c -5.14 1.03 -10.18 2.39 -15 4 c -2.08 0.69 -6.31 2.38 -6 3 l 10 5"/></svg>