<?xml version="1.0" encoding="UTF-8" standalone="no"?><!DOCTYPE svg PUBLIC "-//W3C//DTD SVG 1.1//EN" "http://www.w3.org/Graphics/SVG/1.1/DTD/svg11.dtd"><svg xmlns="http://www.w3.org/2000/svg" version="1.1" width="173" height="73"><path fill="none" stroke="#000000" stroke-width="2" stroke-linecap="round" stroke-linejoin="round" d="M 172 54 c -0.12 -0.38 -4.26 -14.83 -7 -22 c -1.59 -4.17 -3.55 -8.57 -6 -12 c -2.32 -3.25 -5.74 -6.48 -9 -9 c -3.91 -3.02 -8.65 -6.33 -13 -8 c -3.75 -1.44 -8.79 -1.81 -13 -2 c -2.9 -0.13 -6.57 0 -9 1 c -2.69 1.11 -7.04 3.6 -8 6 c -1.83 4.58 -1.75 12.54 -2 19 c -0.42 10.82 -0.5 21.52 0 32 c 0.16 3.34 0.96 7.29 2 10 c 0.43 1.13 3 3.15 3 3 c 0 -0.24 -1.54 -4.61 -3 -6 c -4.96 -4.72 -11.65 -10.22 -18 -14 c -7.36 -4.38 -15.75 -8.49 -24 -11 c -14.4 -4.38 -30.17 -7.68 -45 -10 c -6.11 -0.96 -19 0 -19 0"/></svg>