<?xml version="1.0" encoding="UTF-8" standalone="no"?><!DOCTYPE svg PUBLIC "-//W3C//DTD SVG 1.1//EN" "http://www.w3.org/Graphics/SVG/1.1/DTD/svg11.dtd"><svg xmlns="http://www.w3.org/2000/svg" version="1.1" width="219" height="47"><path fill="none" stroke="#000000" stroke-width="2" stroke-linecap="round" stroke-linejoin="round" d="M 218 46 c -0.09 0 -3.7 0.65 -5 0 c -7.56 -3.78 -16.27 -10.22 -25 -15 c -9.38 -5.13 -18.34 -9.88 -28 -14 c -8.49 -3.62 -17 -6.23 -26 -9 c -8.81 -2.71 -17.44 -5.85 -26 -7 c -8.26 -1.11 -20.8 -0.77 -26 0 c -0.83 0.12 -1.51 3.32 -1 4 c 0.99 1.33 7.35 3.48 7 4 c -0.48 0.72 -7.31 1.92 -11 2 c -25.07 0.58 -76 0 -76 0"/></svg>