<?xml version="1.0" encoding="UTF-8" standalone="no"?><!DOCTYPE svg PUBLIC "-//W3C//DTD SVG 1.1//EN" "http://www.w3.org/Graphics/SVG/1.1/DTD/svg11.dtd"><svg xmlns="http://www.w3.org/2000/svg" version="1.1" width="261" height="90"><path fill="none" stroke="#000000" stroke-width="2" stroke-linecap="round" stroke-linejoin="round" d="M 53 26 c -0.23 -0.23 -8.47 -9.11 -13 -13 c -2.33 -1.99 -5.2 -3.67 -8 -5 c -4.13 -1.97 -8.63 -3.94 -13 -5 c -5.06 -1.22 -13.12 -2.96 -16 -2 c -1.47 0.49 -1.91 5.39 -2 8 c -0.23 6.35 -1.59 15.11 1 20 c 4.96 9.35 15.74 21.59 25 29 c 9.63 7.7 23.05 16.21 35 19 c 29.63 6.91 70.73 12 98 12 c 6.44 0 14.46 -7.28 20 -12 c 5.23 -4.46 9.79 -11.11 14 -17 c 2.4 -3.35 4.77 -7.52 6 -11 c 0.59 -1.67 0.46 -4.32 0 -6 c -0.44 -1.63 -3.68 -4.91 -3 -5 c 5.57 -0.74 32.48 -1.27 48 -1 c 2.98 0.05 6.02 1.6 9 2 l 6 0"/></svg>