<?xml version="1.0" encoding="UTF-8" standalone="no"?><!DOCTYPE svg PUBLIC "-//W3C//DTD SVG 1.1//EN" "http://www.w3.org/Graphics/SVG/1.1/DTD/svg11.dtd"><svg xmlns="http://www.w3.org/2000/svg" version="1.1" width="196" height="77"><path fill="none" stroke="#000000" stroke-width="2" stroke-linecap="round" stroke-linejoin="round" d="M 18 76 c -0.25 -0.19 -10.84 -7.1 -14 -11 c -1.85 -2.29 -2.61 -6.71 -3 -10 c -0.57 -4.73 -1.15 -10.64 0 -15 c 1.62 -6.11 5.43 -13.37 9 -19 c 2.52 -3.98 6.45 -7.45 10 -11 c 2.54 -2.54 5.26 -5.35 8 -7 c 1.88 -1.13 4.8 -1.84 7 -2 c 2.14 -0.15 5.66 -0.12 7 1 c 1.96 1.63 3.79 5.85 5 9 c 3.07 8.04 4.87 16.95 8 25 c 1.49 3.84 3.67 7.77 6 11 c 1.84 2.55 4.54 5.52 7 7 c 2.05 1.23 5.49 2 8 2 c 3.7 0 9.36 0 12 -2 c 5.69 -4.31 11.05 -13.58 17 -20 c 2.41 -2.6 5.54 -5.95 8 -7 c 1.41 -0.6 4.61 0.12 6 1 c 1.78 1.14 3.16 4.33 5 6 c 1.7 1.54 3.93 2.97 6 4 c 1.81 0.91 4.02 1.83 6 2 c 5.64 0.47 12.98 1.21 18 0 c 3.64 -0.88 7.2 -5.1 11 -7 c 3.41 -1.7 7.25 -2.93 11 -4 c 3.27 -0.93 6.67 -1.65 10 -2 l 9 0"/></svg>