<?xml version="1.0" encoding="UTF-8" standalone="no"?><!DOCTYPE svg PUBLIC "-//W3C//DTD SVG 1.1//EN" "http://www.w3.org/Graphics/SVG/1.1/DTD/svg11.dtd"><svg xmlns="http://www.w3.org/2000/svg" version="1.1" width="329" height="104"><path fill="none" stroke="#000000" stroke-width="2" stroke-linecap="round" stroke-linejoin="round" d="M 159 42 c 0.54 0.28 30.9 15.4 31 16 c 0.09 0.55 -19.94 -7.74 -30 -10 c -8.96 -2.01 -18.49 -2.5 -28 -3 c -9.79 -0.52 -24.13 2.51 -29 0 c -2.71 -1.4 0.34 -12.04 -2 -16 c -5.35 -9.05 -15.34 -26.39 -24 -28 c -17.3 -3.21 -64.49 6.94 -73 10 c -1.83 0.66 5.72 8.94 9 13 c 2.35 2.9 5.72 5.27 8 8 c 0.9 1.08 2.44 3.47 2 4 c -0.72 0.86 -4.82 2 -7 2 c -3.34 0 -9.57 -3.43 -11 -2 c -2.23 2.23 -4.08 16.25 -4 17 c 0.04 0.37 3.6 -4.6 5 -7 c 0.88 -1.5 1.8 -5.33 2 -5 c 0.57 0.95 2.09 10.29 4 15 c 3.03 7.46 6.88 14.93 11 22 c 2.88 4.94 6.16 10.31 10 14 c 4.03 3.87 10.1 8 15 10 c 3.28 1.33 9.65 2.41 12 1 c 2.97 -1.78 6.57 -8.58 8 -13 c 1.99 -6.14 2.24 -13.81 3 -21 c 0.61 -5.77 0.75 -11.16 1 -17 c 0.09 -2.06 0.51 -4.65 0 -6 c -0.3 -0.81 -3.05 -2.06 -3 -2 c 0.29 0.32 8.84 10.31 14 14 c 8.41 6 18.38 12.27 28 16 c 12.02 4.66 25.94 7.79 39 10 c 10.4 1.76 21.67 2.22 32 2 c 5.25 -0.11 11.71 -0.93 16 -3 c 4.48 -2.16 10.07 -7.04 13 -11 c 2.17 -2.94 2.57 -11.64 4 -12 c 1.36 -0.34 5.02 6.73 8 9 c 3.65 2.78 8.46 4.64 13 7 c 4.13 2.15 7.92 4.59 12 6 c 4.35 1.51 9.39 2.77 14 3 c 8.37 0.42 17.44 -0.05 26 -1 c 6.39 -0.71 12.96 -2.42 19 -4 c 1.39 -0.36 2.69 -1.76 4 -2 c 2.05 -0.37 4.9 -0.49 7 0 l 10 4"/></svg>