<?xml version="1.0" encoding="UTF-8" standalone="no"?><!DOCTYPE svg PUBLIC "-//W3C//DTD SVG 1.1//EN" "http://www.w3.org/Graphics/SVG/1.1/DTD/svg11.dtd"><svg xmlns="http://www.w3.org/2000/svg" version="1.1" width="407" height="142"><path fill="none" stroke="#000000" stroke-width="2" stroke-linecap="round" stroke-linejoin="round" d="M 406 89 c -0.05 -0.16 -1.75 -6.29 -3 -9 c -0.66 -1.43 -1.75 -3.25 -3 -4 c -3.24 -1.94 -7.85 -3.62 -12 -5 c -5.96 -1.99 -11.94 -4.04 -18 -5 c -8.46 -1.35 -17.47 -2.17 -26 -2 c -7.58 0.15 -15.88 1.09 -23 3 c -6.05 1.62 -13.36 4.48 -18 8 c -4.2 3.18 -7.72 9.18 -11 14 c -1.65 2.42 -2.09 7.33 -4 8 c -4.07 1.41 -13.42 1.24 -19 0 c -5.52 -1.23 -12.32 -4.41 -17 -8 c -8.98 -6.89 -17.04 -18.9 -26 -25 c -5.5 -3.74 -14.7 -5.55 -21 -7 c -1.45 -0.33 -4.91 1.66 -5 1 c -0.28 -1.98 2.37 -9.86 3 -15 c 1.74 -14.18 10.04 -40.56 4 -42 c -15.8 -3.76 -87.64 4.46 -109 17 c -11.52 6.76 -13.16 38.01 -17 57 c -2.72 13.44 -4.01 29.42 -3 42 c 0.52 6.43 4.04 16.73 8 20 c 3.93 3.25 15.61 4.95 21 4 c 4.13 -0.73 11.02 -6.15 13 -10 c 2.57 -4.97 2.44 -13.93 3 -21 c 0.45 -5.66 2.07 -13.64 0 -17 c -2.23 -3.63 -10.49 -6.43 -16 -9 c -4.46 -2.08 -9.24 -3.61 -14 -5 c -3.27 -0.95 -6.68 -1.61 -10 -2 c -2.28 -0.27 -5.27 -0.63 -7 0 c -1.4 0.51 -3.57 2.5 -4 4 c -1.3 4.54 -1.64 11.24 -2 17 c -0.32 5.04 -1.95 12.32 0 15 c 2.27 3.12 10.8 5.93 16 7 c 5.36 1.1 13.82 1.79 18 0 c 3.62 -1.55 8.29 -7.96 10 -12 c 1.53 -3.63 1.97 -10.45 1 -14 c -0.73 -2.69 -4.31 -7.01 -7 -8 c -5.87 -2.15 -15.23 -2.63 -23 -3 c -13.41 -0.64 -28.89 -0.76 -40 0 c -1.39 0.09 -3.12 1.79 -4 3 c -1.57 2.16 -2.56 6.88 -4 8 c -0.82 0.64 -3.89 -0.11 -5 -1 c -3.24 -2.59 -6.35 -7.59 -10 -11 c -6.79 -6.35 -18.9 -15.06 -21 -18 l 6 -3"/></svg>