<?xml version="1.0" encoding="UTF-8" standalone="no"?><!DOCTYPE svg PUBLIC "-//W3C//DTD SVG 1.1//EN" "http://www.w3.org/Graphics/SVG/1.1/DTD/svg11.dtd"><svg xmlns="http://www.w3.org/2000/svg" version="1.1" width="201" height="64"><path fill="none" stroke="#000000" stroke-width="2" stroke-linecap="round" stroke-linejoin="round" d="M 22 63 c -0.1 -0.31 -3.66 -12.85 -6 -18 c -0.7 -1.54 -2.57 -3.35 -4 -4 c -1.79 -0.81 -5.65 -1.73 -7 -1 c -1.54 0.84 -3.26 4.77 -4 7 c -0.46 1.39 -0.42 3.61 0 5 c 0.49 1.62 1.64 4.23 3 5 c 3.18 1.79 8.71 3.66 13 4 c 11.68 0.93 28.33 3.17 37 0 c 5.67 -2.07 11.18 -12.45 15 -19 c 2.85 -4.88 4.37 -11.2 6 -17 c 1.38 -4.92 2.32 -10.03 3 -15 c 0.31 -2.28 0.74 -5.67 0 -7 c -0.57 -1.02 -5.16 -2.21 -5 -2 c 0.72 0.96 11.05 12.49 17 18 c 2.93 2.71 6.49 5.02 10 7 c 4.11 2.33 8.71 4.64 13 6 c 2.71 0.86 6.62 1.37 9 1 c 1.31 -0.2 2.96 -1.83 4 -3 c 1.5 -1.68 3.22 -3.98 4 -6 c 0.76 -1.98 0.39 -4.97 1 -7 c 0.31 -1.04 1.12 -2.69 2 -3 c 2.97 -1.06 7.98 -1.66 12 -2 c 3.97 -0.33 8.13 -0.46 12 0 c 4.3 0.52 8.85 1.62 13 3 c 3.76 1.25 7.64 2.95 11 5 c 4.17 2.54 8.35 5.73 12 9 l 7 8"/></svg>