<?xml version="1.0" encoding="UTF-8" standalone="no"?><!DOCTYPE svg PUBLIC "-//W3C//DTD SVG 1.1//EN" "http://www.w3.org/Graphics/SVG/1.1/DTD/svg11.dtd"><svg xmlns="http://www.w3.org/2000/svg" version="1.1" width="227" height="42"><path fill="none" stroke="#000000" stroke-width="2" stroke-linecap="round" stroke-linejoin="round" d="M 3 32 c -0.04 -0.19 -1.85 -7.41 -2 -11 c -0.17 -4.19 -0.59 -10.25 1 -13 c 1.42 -2.46 6.67 -5.03 10 -6 c 4.01 -1.17 9.2 -0.84 14 -1 c 5.47 -0.18 12.2 -2.18 16 0 c 11.64 6.68 25.2 22.16 38 31 c 4.8 3.32 11.38 5.13 17 7 c 2.16 0.72 4.58 0.71 7 1 c 3.45 0.41 6.94 1.31 10 1 c 3.18 -0.32 7.9 -0.98 10 -3 c 6.03 -5.81 14.47 -20.79 18 -24 c 0.67 -0.61 2.51 3.2 4 4 c 2.49 1.34 5.92 2.23 9 3 c 3.62 0.91 7.32 1.71 11 2 c 4.6 0.37 9.4 0.37 14 0 c 3.68 -0.29 7.33 -1.63 11 -2 c 2.95 -0.3 6 -0.19 9 0 c 2.36 0.15 4.88 0.35 7 1 c 2.01 0.62 3.99 2.58 6 3 l 13 1"/></svg>