<?xml version="1.0" encoding="UTF-8" standalone="no"?><!DOCTYPE svg PUBLIC "-//W3C//DTD SVG 1.1//EN" "http://www.w3.org/Graphics/SVG/1.1/DTD/svg11.dtd"><svg xmlns="http://www.w3.org/2000/svg" version="1.1" width="155" height="46"><path fill="none" stroke="#000000" stroke-width="2" stroke-linecap="round" stroke-linejoin="round" d="M 154 45 c -0.12 -0.02 -5.32 0.16 -7 -1 c -8.93 -6.2 -18.92 -17.09 -29 -24 c -6.58 -4.52 -14.51 -8.08 -22 -11 c -5.99 -2.34 -12.5 -3.7 -19 -5 c -7.01 -1.4 -14.14 -2.57 -21 -3 c -3.57 -0.22 -9.07 -0.34 -11 1 c -1.44 1 -2.27 5.74 -2 8 c 0.32 2.7 2.03 7.03 4 9 c 3.06 3.06 8.47 5.56 13 8 c 4.24 2.29 8.56 4.33 13 6 c 3.54 1.33 10.15 3.73 11 3 c 0.74 -0.63 -1.91 -7.67 -4 -9 c -3.97 -2.53 -12.06 -4.33 -18 -5 c -8.26 -0.94 -18.07 -1.26 -26 0 c -5.89 0.94 -12.49 4.15 -18 7 c -3.88 2.01 -7.51 5.12 -11 8 l -6 6"/></svg>