<?xml version="1.0" encoding="UTF-8" standalone="no"?><!DOCTYPE svg PUBLIC "-//W3C//DTD SVG 1.1//EN" "http://www.w3.org/Graphics/SVG/1.1/DTD/svg11.dtd"><svg xmlns="http://www.w3.org/2000/svg" version="1.1" width="302" height="117"><path fill="none" stroke="#000000" stroke-width="2" stroke-linecap="round" stroke-linejoin="round" d="M 86 18 c -0.04 -0.17 -0.55 -7.68 -2 -10 c -1.42 -2.28 -5.26 -5.23 -8 -6 c -4.67 -1.31 -11.54 -1.51 -17 -1 c -8.5 0.79 -17.92 2.5 -26 5 c -5.46 1.69 -11.17 4.91 -16 8 c -3.25 2.08 -6.87 5.02 -9 8 c -2.53 3.54 -4.84 8.71 -6 13 c -1.05 3.91 -1.28 8.81 -1 13 c 0.37 5.55 0.58 12.32 3 17 c 7.19 13.91 18.3 28.86 28 43 c 2.01 2.93 6.15 8 7 8 c 0.64 0 1.06 -5.97 0 -8 c -5.67 -10.85 -16.69 -24.08 -23 -36 c -2.29 -4.33 -3.52 -10.16 -4 -15 c -0.47 -4.69 -0.5 -12.01 1 -15 c 0.85 -1.7 5.36 -2.84 8 -3 c 13.31 -0.78 41.2 -2.88 43 0 c 1.54 2.47 -20.9 16.01 -28 24 c -2.44 2.74 -3.22 8.1 -4 12 c -0.49 2.46 -1.04 6.38 0 8 c 1.41 2.19 5.92 5.09 9 6 c 5.15 1.53 11.92 0.97 18 2 c 11.98 2.03 23.43 5.24 35 7 c 3.57 0.54 7.58 0.51 11 0 c 2.95 -0.44 7.25 -1.39 9 -3 c 1.58 -1.45 2.28 -5.26 3 -8 c 1.28 -4.91 1.38 -11.16 3 -15 c 0.68 -1.61 3.29 -3.57 5 -4 c 2.93 -0.73 7.47 -0.5 11 0 c 5.61 0.8 11.27 3.08 17 4 c 4.6 0.74 9.2 0.95 14 1 c 25.31 0.29 48.73 -0.29 74 0 c 4.45 0.05 8.62 0.42 13 1 c 5.8 0.77 11.31 2.51 17 3 c 5.93 0.51 12.04 0.4 18 0 l 12 -2"/></svg>