<?xml version="1.0" encoding="UTF-8" standalone="no"?><!DOCTYPE svg PUBLIC "-//W3C//DTD SVG 1.1//EN" "http://www.w3.org/Graphics/SVG/1.1/DTD/svg11.dtd"><svg xmlns="http://www.w3.org/2000/svg" version="1.1" width="120" height="97"><path fill="none" stroke="#000000" stroke-width="2" stroke-linecap="round" stroke-linejoin="round" d="M 1 55 c 0.02 -0.17 0.17 -7 1 -10 c 0.74 -2.67 2.96 -5.22 4 -8 c 1.95 -5.21 3.57 -14.28 5 -16 c 0.55 -0.66 4.11 2.34 5 4 c 3.61 6.74 6.27 15.89 10 24 c 6.23 13.54 12.33 25.93 19 39 c 1.45 2.84 3.58 7.43 5 8 c 0.96 0.39 4.34 -2.3 5 -4 c 6 -15.39 10.93 -37.03 18 -55 c 4.64 -11.8 11.61 -24.29 17 -34 c 0.51 -0.92 2.82 -2.43 3 -2 c 0.83 1.95 1.58 10.92 3 16 c 0.86 3.07 2.48 6.61 4 9 c 0.56 0.87 1.96 1.65 3 2 c 1.75 0.58 4.72 0.14 6 1 c 1.23 0.82 2.35 3.24 3 5 c 1.61 4.38 2.91 9.19 4 14 l 3 17"/></svg>