<?xml version="1.0" encoding="UTF-8" standalone="no"?><!DOCTYPE svg PUBLIC "-//W3C//DTD SVG 1.1//EN" "http://www.w3.org/Graphics/SVG/1.1/DTD/svg11.dtd"><svg xmlns="http://www.w3.org/2000/svg" version="1.1" width="157" height="83"><path fill="none" stroke="#000000" stroke-width="2" stroke-linecap="round" stroke-linejoin="round" d="M 156 50 c -0.14 -0.11 -5.1 -4.38 -8 -6 c -14.39 -8.03 -28.91 -15.58 -44 -23 c -4.91 -2.41 -10.2 -3.54 -15 -6 c -8.25 -4.23 -20.12 -13.1 -24 -14 c -1.15 -0.27 -1.9 5.34 -2 8 c -0.55 14.83 -0.96 31.19 0 46 c 0.34 5.31 2.16 11.03 4 16 c 1.4 3.78 5.51 10.51 6 11 c 0.2 0.2 0.64 -3.81 0 -5 c -1.36 -2.53 -4.27 -5.99 -7 -8 c -9.47 -6.98 -20.75 -16.07 -31 -20 c -8.1 -3.11 -20.82 -1.32 -29 -3 l -5 -4"/></svg>