<?xml version="1.0" encoding="UTF-8" standalone="no"?><!DOCTYPE svg PUBLIC "-//W3C//DTD SVG 1.1//EN" "http://www.w3.org/Graphics/SVG/1.1/DTD/svg11.dtd"><svg xmlns="http://www.w3.org/2000/svg" version="1.1" width="198" height="63"><path fill="none" stroke="#000000" stroke-width="2" stroke-linecap="round" stroke-linejoin="round" d="M 197 60 c -0.07 -0.05 -2.54 -2.37 -4 -3 c -7.5 -3.21 -15.73 -6.24 -24 -9 c -6.03 -2.01 -11.77 -3.68 -18 -5 c -17.97 -3.8 -35.42 -7.52 -53 -10 c -5.87 -0.83 -11.98 -0.37 -18 0 c -5.06 0.31 -10.87 0.62 -15 2 c -2.13 0.71 -4.7 3.12 -6 5 c -1.42 2.05 -2.56 5.39 -3 8 c -0.51 3.06 -1.12 8.03 0 10 c 1.01 1.76 5.4 3.39 8 4 c 2.61 0.61 7.58 1.32 9 0 c 2.2 -2.05 3.77 -8.61 5 -13 c 1.07 -3.84 1.66 -7.98 2 -12 c 0.33 -3.97 1.71 -10.07 0 -12 c -2.44 -2.75 -10.56 -4.64 -16 -6 c -7.75 -1.94 -15.97 -3.25 -24 -4 c -6.27 -0.58 -12.57 0.33 -19 0 c -6.8 -0.35 -20.2 -1.51 -20 -2 c 0.22 -0.54 21.19 -2.52 22 -3 c 0.45 -0.27 -8.46 -1.48 -12 -3 l -9 -6"/></svg>