<?xml version="1.0" encoding="UTF-8" standalone="no"?><!DOCTYPE svg PUBLIC "-//W3C//DTD SVG 1.1//EN" "http://www.w3.org/Graphics/SVG/1.1/DTD/svg11.dtd"><svg xmlns="http://www.w3.org/2000/svg" version="1.1" width="84" height="67"><path fill="none" stroke="#000000" stroke-width="2" stroke-linecap="round" stroke-linejoin="round" d="M 8 50 c 0 -0.61 -0.49 -23.4 0 -35 c 0.17 -4.03 2.19 -9.3 2 -12 c -0.06 -0.8 -2.32 -2.2 -3 -2 c -1.07 0.31 -3.41 2.52 -4 4 c -1.17 2.93 -1.69 7.32 -2 11 c -0.36 4.27 -1 9.3 0 13 c 1.13 4.21 3.91 10.16 7 13 c 4.03 3.69 11.34 7.36 17 9 c 6.21 1.8 14.34 2.33 21 2 c 6.13 -0.31 13.6 -1.74 19 -4 c 4.17 -1.75 12.23 -7.83 12 -9 c -0.22 -1.1 -13.73 -2.42 -14 -1 c -0.38 2.05 6.99 11.59 11 17 l 9 10"/></svg>