<?xml version="1.0" encoding="UTF-8" standalone="no"?><!DOCTYPE svg PUBLIC "-//W3C//DTD SVG 1.1//EN" "http://www.w3.org/Graphics/SVG/1.1/DTD/svg11.dtd"><svg xmlns="http://www.w3.org/2000/svg" version="1.1" width="238" height="46"><path fill="none" stroke="#000000" stroke-width="2" stroke-linecap="round" stroke-linejoin="round" d="M 1 24 c 0.89 0 34.15 1.05 51 0 c 9.72 -0.61 19.03 -3.74 29 -5 c 14.3 -1.81 27.97 -2.21 42 -4 c 4.44 -0.56 9.01 -1.67 13 -3 c 1.74 -0.58 3.98 -1.72 5 -3 c 1.33 -1.67 3.15 -5.81 3 -7 c -0.08 -0.64 -3.26 -1.43 -4 -1 c -1.05 0.6 -2.69 3.3 -3 5 c -0.9 4.97 -1.77 12.39 -1 17 c 0.39 2.33 2.97 5.42 5 7 c 3.49 2.71 8.54 5.63 13 7 c 8 2.46 17.85 4.34 26 5 c 3.44 0.28 7.69 -0.97 11 -2 c 1.72 -0.54 3.65 -1.82 5 -3 c 1.15 -1.01 2.95 -4.22 3 -4 c 0.09 0.36 -2.17 5.94 -2 8 c 0.1 1.25 1.93 4.12 3 4 c 5.34 -0.59 16.01 -5.27 24 -7 l 13 -1"/></svg>