<?xml version="1.0" encoding="UTF-8" standalone="no"?><!DOCTYPE svg PUBLIC "-//W3C//DTD SVG 1.1//EN" "http://www.w3.org/Graphics/SVG/1.1/DTD/svg11.dtd"><svg xmlns="http://www.w3.org/2000/svg" version="1.1" width="124" height="62"><path fill="none" stroke="#000000" stroke-width="2" stroke-linecap="round" stroke-linejoin="round" d="M 123 23 c -0.14 -0.09 -5.74 -3.04 -8 -5 c -2.55 -2.21 -4.5 -5.69 -7 -8 c -1.7 -1.57 -4.17 -2.5 -6 -4 c -1.8 -1.47 -3.6 -4.72 -5 -5 c -1.16 -0.23 -4.67 1.67 -5 3 c -0.97 3.88 -0.68 11.59 0 17 c 0.62 4.94 2.27 10.16 4 15 c 1.59 4.46 3.6 9.13 6 13 c 1.78 2.88 4.52 5.52 7 8 c 1.5 1.5 4.03 4 5 4 c 0.68 0 2.19 -2.94 2 -4 c -0.35 -1.91 -2.2 -5.62 -4 -7 c -3.2 -2.44 -8.64 -4.84 -13 -6 c -5.21 -1.39 -11.24 -1.7 -17 -2 c -7.07 -0.37 -13.83 -0.21 -21 0 c -4.45 0.13 -8.72 0.39 -13 1 c -2.7 0.39 -6.02 1.01 -8 2 c -0.86 0.43 -2 3.11 -2 3 c 0 -0.19 2.69 -4.78 2 -6 c -1.61 -2.87 -7.18 -7.84 -11 -10 c -3.18 -1.8 -8.03 -2.57 -12 -3 l -16 0"/></svg>