<?xml version="1.0" encoding="UTF-8" standalone="no"?><!DOCTYPE svg PUBLIC "-//W3C//DTD SVG 1.1//EN" "http://www.w3.org/Graphics/SVG/1.1/DTD/svg11.dtd"><svg xmlns="http://www.w3.org/2000/svg" version="1.1" width="240" height="43"><path fill="none" stroke="#000000" stroke-width="2" stroke-linecap="round" stroke-linejoin="round" d="M 239 12 c -0.28 -0.02 -10.65 -0.19 -16 -1 c -19.32 -2.91 -37.92 -8.49 -57 -10 c -22.74 -1.81 -46.03 -0.56 -69 0 c -4.38 0.11 -10.36 0.59 -13 2 c -1.27 0.68 -1.7 4.04 -2 6 c -0.33 2.17 -0.3 4.76 0 7 c 0.35 2.64 0.75 6.05 2 8 c 1.4 2.18 4.49 4.21 7 6 c 4.53 3.24 9.44 6.46 14 9 c 1.13 0.63 4.07 1.03 4 1 c -0.59 -0.26 -22.56 -10.26 -34 -14 c -6.65 -2.18 -13.9 -3.16 -21 -4 c -6.98 -0.83 -13.76 -0.8 -21 -1 c -5.51 -0.15 -10.95 -0.58 -16 0 c -3.29 0.38 -7.44 1.54 -10 3 c -1.57 0.9 -2.95 3.26 -4 5 c -0.88 1.46 -1.68 3.38 -2 5 c -0.3 1.51 -0.76 4.24 0 5 c 1.3 1.3 5.42 2.4 8 3 c 1.51 0.35 3.77 0.46 5 0 l 3 -3"/></svg>