<?xml version="1.0" encoding="UTF-8" standalone="no"?><!DOCTYPE svg PUBLIC "-//W3C//DTD SVG 1.1//EN" "http://www.w3.org/Graphics/SVG/1.1/DTD/svg11.dtd"><svg xmlns="http://www.w3.org/2000/svg" version="1.1" width="223" height="61"><path fill="none" stroke="#000000" stroke-width="2" stroke-linecap="round" stroke-linejoin="round" d="M 5 1 c -0.07 0.02 -3.63 0.25 -4 1 c -0.63 1.27 -0.61 5.04 0 7 c 0.9 2.88 3.09 6.13 5 9 c 2.79 4.18 5.68 8.35 9 12 c 3.29 3.62 7.09 6.91 11 10 c 4.16 3.29 8.47 6.57 13 9 c 4.63 2.48 10.04 4.98 15 6 c 5.84 1.2 13.09 1.74 19 1 c 6.79 -0.85 16.2 -2.51 21 -6 c 4.75 -3.45 9.84 -12.24 12 -18 c 1.4 -3.73 1.17 -10.64 0 -14 c -0.77 -2.21 -4.49 -4.75 -7 -6 c -3.7 -1.85 -8.73 -3.43 -13 -4 c -5.34 -0.71 -12.32 -0.67 -17 0 c -1.38 0.2 -4.1 2.21 -4 3 c 0.14 1.12 3.1 4.17 5 5 c 5.01 2.18 11.72 3.31 18 5 c 7.99 2.14 15.23 4.85 23 6 c 12.46 1.84 26.9 1.65 38 3 c 1.05 0.13 2.66 1.2 3 2 c 0.47 1.11 0.31 3.43 0 5 c -0.98 4.89 -3.02 10.11 -4 15 c -0.31 1.57 -0.34 3.62 0 5 c 0.25 1 1.16 2.79 2 3 c 2.33 0.58 6.73 0.38 10 0 c 5.33 -0.61 10.67 -1.63 16 -3 c 7.87 -2.02 15.29 -5.49 23 -7 l 23 -2"/></svg>