<?xml version="1.0" encoding="UTF-8" standalone="no"?><!DOCTYPE svg PUBLIC "-//W3C//DTD SVG 1.1//EN" "http://www.w3.org/Graphics/SVG/1.1/DTD/svg11.dtd"><svg xmlns="http://www.w3.org/2000/svg" version="1.1" width="139" height="66"><path fill="none" stroke="#000000" stroke-width="2" stroke-linecap="round" stroke-linejoin="round" d="M 1 17 c 0.67 0 26.03 1.11 38 0 c 5.28 -0.49 11.8 -3.13 16 -5 c 0.9 -0.4 1.78 -2 2 -3 c 0.37 -1.67 0.76 -4.99 0 -6 c -0.8 -1.07 -4.08 -1.89 -6 -2 c -3.35 -0.2 -8.91 -0.34 -11 1 c -1.62 1.04 -2.77 5.36 -3 8 c -0.71 8.34 -1.81 19.27 0 27 c 1.53 6.53 6.92 14.42 11 20 c 1.79 2.44 5.24 4.95 8 6 c 3.63 1.38 9.99 2.79 13 2 c 2.11 -0.56 5.12 -4.66 6 -7 c 0.86 -2.28 -0.86 -6.72 0 -9 c 0.88 -2.34 3.73 -6.43 6 -7 c 5.42 -1.36 14.84 -0.7 22 0 c 6.32 0.62 12.62 2.36 19 4 l 16 5"/></svg>