<?xml version="1.0" encoding="UTF-8" standalone="no"?><!DOCTYPE svg PUBLIC "-//W3C//DTD SVG 1.1//EN" "http://www.w3.org/Graphics/SVG/1.1/DTD/svg11.dtd"><svg xmlns="http://www.w3.org/2000/svg" version="1.1" width="251" height="54"><path fill="none" stroke="#000000" stroke-width="2" stroke-linecap="round" stroke-linejoin="round" d="M 250 11 c -0.79 -0.14 -29.66 -5.84 -45 -8 c -8.75 -1.23 -17.49 -2.3 -26 -2 c -9.88 0.35 -20.83 1.61 -30 4 c -5.42 1.41 -12.22 4.53 -16 8 c -3.69 3.4 -7.7 10.1 -9 15 c -1.41 5.32 -1.43 14.72 0 19 c 0.71 2.12 5.34 4 8 5 c 2.28 0.85 5.42 1 8 1 c 2.27 0 5.74 0.16 7 -1 c 2 -1.83 4.35 -6.67 5 -10 c 1.21 -6.27 1.98 -15.9 1 -21 c -0.36 -1.9 -3.87 -4.74 -6 -5 c -12.02 -1.44 -30.59 -1.74 -44 -1 c -3.28 0.18 -7.15 2.37 -10 4 c -1.5 0.86 -2.62 3.45 -4 4 c -1.46 0.58 -4.65 0.6 -6 0 c -1.13 -0.5 -1.8 -3 -3 -4 c -2.59 -2.16 -5.93 -5.5 -9 -6 c -9.66 -1.57 -23.7 -2.05 -34 -1 c -4.89 0.5 -10.28 3.51 -15 6 c -7.22 3.81 -18.25 12.48 -21 13 l 0 -9"/></svg>