<?xml version="1.0" encoding="UTF-8" standalone="no"?><!DOCTYPE svg PUBLIC "-//W3C//DTD SVG 1.1//EN" "http://www.w3.org/Graphics/SVG/1.1/DTD/svg11.dtd"><svg xmlns="http://www.w3.org/2000/svg" version="1.1" width="93" height="46"><path fill="none" stroke="#000000" stroke-width="2" stroke-linecap="round" stroke-linejoin="round" d="M 1 16 c 0.05 -0.17 1.81 -6.91 3 -10 c 0.41 -1.07 1.22 -2.22 2 -3 c 0.78 -0.78 2.24 -2.11 3 -2 c 1.05 0.15 3.5 1.71 4 3 c 2.92 7.54 4.87 18.83 8 28 c 1.54 4.51 4.72 12.36 6 13 c 0.8 0.4 3.01 -5.2 4 -8 c 3 -8.51 5.21 -19.5 8 -26 c 0.46 -1.07 3.56 -2.64 4 -2 c 2.74 3.94 8.09 17.96 12 25 c 0.51 0.92 2.5 2.41 3 2 c 1.89 -1.55 5.2 -8.4 8 -11 c 1.3 -1.21 3.99 -1.77 6 -2 c 6.36 -0.73 20 -1 20 -1"/></svg>