<?xml version="1.0" encoding="UTF-8" standalone="no"?><!DOCTYPE svg PUBLIC "-//W3C//DTD SVG 1.1//EN" "http://www.w3.org/Graphics/SVG/1.1/DTD/svg11.dtd"><svg xmlns="http://www.w3.org/2000/svg" version="1.1" width="77" height="82"><path fill="none" stroke="#000000" stroke-width="2" stroke-linecap="round" stroke-linejoin="round" d="M 76 81 c -0.12 -0.07 -5.08 -2.4 -7 -4 c -1.86 -1.55 -3.16 -4.33 -5 -6 c -1.7 -1.54 -4.5 -2.38 -6 -4 c -2.25 -2.43 -3.9 -6.44 -6 -9 c -0.7 -0.85 -3.18 -1.96 -3 -2 c 0.41 -0.08 5.66 0.28 8 1 c 1.69 0.52 3.31 2.25 5 3 c 1.19 0.53 4.13 1.13 4 1 c -0.53 -0.53 -8.45 -7.49 -13 -10 c -4.74 -2.62 -10.7 -4.63 -16 -6 c -3.42 -0.89 -7.25 -0.88 -11 -1 c -7.13 -0.22 -15.2 -0.7 -21 0 c -1.38 0.17 -4.05 3.41 -4 3 c 0.44 -3.81 9 -46 9 -46"/></svg>