<?xml version="1.0" encoding="UTF-8" standalone="no"?><!DOCTYPE svg PUBLIC "-//W3C//DTD SVG 1.1//EN" "http://www.w3.org/Graphics/SVG/1.1/DTD/svg11.dtd"><svg xmlns="http://www.w3.org/2000/svg" version="1.1" width="165" height="67"><path fill="none" stroke="#000000" stroke-width="2" stroke-linecap="round" stroke-linejoin="round" d="M 164 47 c -0.49 -0.3 -18.26 -11.87 -28 -17 c -9.45 -4.98 -18.91 -8.83 -29 -13 c -9.84 -4.07 -19.24 -8.86 -29 -11 c -13.94 -3.05 -30.66 -4.5 -44 -5 c -2.86 -0.11 -7.4 1.4 -9 3 c -1.39 1.39 -2.2 5.57 -2 8 c 0.4 4.86 1.78 11.42 4 16 c 2.8 5.78 7.62 11.45 12 17 c 5.82 7.37 17.68 20.64 18 21 c 0.2 0.22 -6.8 -11.82 -11 -13 c -9.62 -2.69 -28.04 -1.73 -39 -1 c -2.03 0.14 -5.04 2.56 -6 4 l 0 5"/></svg>