<?xml version="1.0" encoding="UTF-8" standalone="no"?><!DOCTYPE svg PUBLIC "-//W3C//DTD SVG 1.1//EN" "http://www.w3.org/Graphics/SVG/1.1/DTD/svg11.dtd"><svg xmlns="http://www.w3.org/2000/svg" version="1.1" width="163" height="60"><path fill="none" stroke="#000000" stroke-width="2" stroke-linecap="round" stroke-linejoin="round" d="M 1 26 c 0.04 -0.25 1.14 -9.29 2 -14 c 0.5 -2.75 1.12 -5.58 2 -8 c 0.38 -1.06 1.58 -3.17 2 -3 c 0.68 0.27 2.24 3.22 3 5 c 4.23 9.87 7.53 20.35 12 30 c 1.81 3.9 4.35 7.68 7 11 c 2.59 3.24 5.87 6.65 9 9 c 1.87 1.41 5.17 3.24 7 3 c 2.27 -0.3 6.18 -2.92 8 -5 c 2.42 -2.76 3.98 -7.16 6 -11 c 1.44 -2.74 3.04 -5.28 4 -8 c 0.99 -2.81 1.58 -6.03 2 -9 c 0.23 -1.61 -0.59 -5.05 0 -5 c 1.49 0.14 7.15 4.5 11 6 c 9.73 3.8 20 7.03 30 10 c 2.24 0.66 4.67 1 7 1 c 7.58 0 16.65 -2.81 23 -1 c 8.28 2.37 26 15 26 15"/></svg>