<?xml version="1.0" encoding="UTF-8" standalone="no"?><!DOCTYPE svg PUBLIC "-//W3C//DTD SVG 1.1//EN" "http://www.w3.org/Graphics/SVG/1.1/DTD/svg11.dtd"><svg xmlns="http://www.w3.org/2000/svg" version="1.1" width="146" height="132"><path fill="none" stroke="#000000" stroke-width="2" stroke-linecap="round" stroke-linejoin="round" d="M 1 131 c 0.46 -0.89 16.43 -34.36 26 -51 c 5.89 -10.24 12.66 -19.88 20 -29 c 6.33 -7.88 13.43 -15.17 21 -22 c 9.56 -8.62 19.81 -16.29 30 -24 c 2.14 -1.62 6.21 -4.86 7 -4 c 1.61 1.76 3.63 10.69 4 16 c 0.93 13.52 -0.5 27.97 0 42 c 0.17 4.72 1.06 9.52 2 14 c 0.36 1.7 1.07 4.07 2 5 c 0.71 0.71 3.38 1.54 4 1 c 1.34 -1.17 3.08 -5.25 4 -8 c 1.37 -4.1 3.18 -10.32 3 -13 c -0.06 -0.9 -2.69 -1.74 -4 -2 c -1.76 -0.35 -4.87 -0.75 -6 0 c -1.27 0.84 -2.78 4.01 -3 6 c -0.69 6.23 -1.04 15.37 0 21 c 0.39 2.09 3.14 4.45 5 6 c 1.92 1.6 4.65 3.41 7 4 c 3.8 0.95 9.49 1.8 13 1 l 9 -6"/></svg>