<?xml version="1.0" encoding="UTF-8" standalone="no"?><!DOCTYPE svg PUBLIC "-//W3C//DTD SVG 1.1//EN" "http://www.w3.org/Graphics/SVG/1.1/DTD/svg11.dtd"><svg xmlns="http://www.w3.org/2000/svg" version="1.1" width="181" height="86"><path fill="none" stroke="#000000" stroke-width="2" stroke-linecap="round" stroke-linejoin="round" d="M 1 29 c 0.11 -0.24 3.62 -9.55 6 -14 c 2.61 -4.86 8.89 -14.85 9 -14 c 0.3 2.3 -4.05 29.74 -5 45 c -0.74 11.8 -3.64 29.32 0 35 c 2.63 4.11 21.95 6.56 25 4 c 3.01 -2.53 2.25 -21.25 0 -25 c -1.35 -2.25 -14.22 -0.39 -15 0 c -0.42 0.21 4.66 3.72 7 4 c 7.83 0.92 17.74 0.4 27 0 c 22.33 -0.97 42.94 -3.27 65 -4 c 8.81 -0.29 18.16 0.22 26 1 c 1.35 0.13 4.26 1.9 4 2 c -0.69 0.26 -8.69 1.22 -12 1 c -0.99 -0.07 -2.79 -1.16 -3 -2 c -0.58 -2.33 -1.28 -7.76 0 -10 c 2.08 -3.64 7.76 -8 12 -11 c 3.49 -2.47 7.96 -4.53 12 -6 c 3.07 -1.12 6.67 -1.68 10 -2 l 11 0"/></svg>