<?xml version="1.0" encoding="UTF-8" standalone="no"?><!DOCTYPE svg PUBLIC "-//W3C//DTD SVG 1.1//EN" "http://www.w3.org/Graphics/SVG/1.1/DTD/svg11.dtd"><svg xmlns="http://www.w3.org/2000/svg" version="1.1" width="239" height="45"><path fill="none" stroke="#000000" stroke-width="2" stroke-linecap="round" stroke-linejoin="round" d="M 238 44 c -0.12 -0.11 -4.46 -4.41 -7 -6 c -5.31 -3.32 -11.06 -6.03 -17 -9 c -7.88 -3.94 -14.98 -7.45 -23 -11 c -9.87 -4.37 -19.21 -9.18 -29 -12 c -9.49 -2.73 -19.96 -4.07 -30 -5 c -7.92 -0.73 -15.87 -0.24 -24 0 c -3.4 0.1 -6.79 0.4 -10 1 c -2.02 0.38 -5.51 0.83 -6 2 c -0.77 1.85 -0.48 7.95 1 10 c 2.12 2.94 7.79 5.75 12 8 c 5.75 3.07 11.77 5.42 18 8 c 3.7 1.53 7.44 3.25 11 4 c 2.44 0.51 6.15 0.67 8 0 c 1.16 -0.42 2.3 -2.6 3 -4 c 0.89 -1.78 1.84 -4.14 2 -6 c 0.15 -1.79 0.06 -5.13 -1 -6 c -1.83 -1.49 -6.61 -2.42 -10 -3 c -6.2 -1.07 -12.58 -1.9 -19 -2 c -15.79 -0.24 -32.84 -0.83 -47 1 c -4.99 0.64 -11.17 4.52 -15 7 c -1.03 0.67 -2.13 2.99 -2 4 c 0.14 1.12 2.51 4 3 4 c 0.41 0 1.49 -3.16 1 -4 c -1.34 -2.3 -5.04 -6.03 -8 -8 c -4.68 -3.12 -10.59 -6.02 -16 -8 c -4.33 -1.59 -9.27 -2.41 -14 -3 c -5.95 -0.74 -15.03 -1.66 -18 -1 l 0 5"/></svg>