<?xml version="1.0" encoding="UTF-8" standalone="no"?><!DOCTYPE svg PUBLIC "-//W3C//DTD SVG 1.1//EN" "http://www.w3.org/Graphics/SVG/1.1/DTD/svg11.dtd"><svg xmlns="http://www.w3.org/2000/svg" version="1.1" width="107" height="136"><path fill="none" stroke="#000000" stroke-width="2" stroke-linecap="round" stroke-linejoin="round" d="M 1 67 c 0.47 -0.72 19.39 -27.05 27 -41 c 4.12 -7.55 7.92 -25.83 9 -25 c 1.43 1.1 2.95 22.88 4 35 c 2.06 23.8 2.85 45.35 5 69 c 0.94 10.35 3.49 29.49 4 30 c 0.41 0.41 1.56 -15.7 2 -24 c 0.94 -17.93 0.76 -42.75 2 -52 c 0.12 -0.89 3.9 -0.77 5 0 c 5.32 3.7 11.89 10.95 18 16 c 1.48 1.22 3.31 2.39 5 3 c 1.76 0.64 4.31 1.17 6 1 c 1.25 -0.12 3.36 -0.93 4 -2 c 4.48 -7.47 14 -28 14 -28"/></svg>