<?xml version="1.0" encoding="UTF-8" standalone="no"?><!DOCTYPE svg PUBLIC "-//W3C//DTD SVG 1.1//EN" "http://www.w3.org/Graphics/SVG/1.1/DTD/svg11.dtd"><svg xmlns="http://www.w3.org/2000/svg" version="1.1" width="113" height="52"><path fill="none" stroke="#000000" stroke-width="2" stroke-linecap="round" stroke-linejoin="round" d="M 1 51 c 0.18 -0.09 7.09 -2.92 10 -5 c 3.86 -2.76 7.05 -6.97 11 -10 c 6.11 -4.69 13.37 -8.71 19 -13 c 0.88 -0.67 1.71 -1.93 2 -3 c 1.57 -5.76 2.65 -15.97 4 -19 c 0.29 -0.64 3.15 0.2 4 1 c 4.07 3.83 8.13 11.8 13 15 c 5.74 3.77 14.66 5.64 22 8 c 1.91 0.61 4.21 1.15 6 1 c 1.86 -0.16 4.35 -1.08 6 -2 c 1.11 -0.61 2.19 -1.87 3 -3 c 3.46 -4.79 7.18 -10.14 10 -15 l 1 -4"/></svg>