<?xml version="1.0" encoding="UTF-8" standalone="no"?><!DOCTYPE svg PUBLIC "-//W3C//DTD SVG 1.1//EN" "http://www.w3.org/Graphics/SVG/1.1/DTD/svg11.dtd"><svg xmlns="http://www.w3.org/2000/svg" version="1.1" width="129" height="118"><path fill="none" stroke="#000000" stroke-width="2" stroke-linecap="round" stroke-linejoin="round" d="M 128 57 c -0.21 -0.31 -7.59 -12.24 -12 -18 c -4.33 -5.66 -8.99 -11.38 -14 -16 c -3.4 -3.14 -7.78 -6.07 -12 -8 c -7.13 -3.26 -15.24 -6.06 -23 -8 c -6.76 -1.69 -15.56 -4.39 -21 -3 c -5.69 1.46 -13.56 7.89 -18 13 c -5.83 6.71 -12.27 16.66 -15 25 c -2.82 8.62 -2.42 19.8 -3 30 c -0.44 7.78 -0.94 15.84 0 23 c 0.65 4.92 2.24 11.96 5 15 c 2.89 3.18 10.1 6.05 15 7 c 6.21 1.21 15.36 1.78 21 0 c 5.59 -1.76 12.68 -7.27 17 -12 c 5.7 -6.24 11.23 -15.11 15 -23 c 3.3 -6.91 5.3 -15.36 7 -23 c 0.92 -4.14 2.16 -10.09 1 -13 c -1.02 -2.54 -5.81 -5.9 -9 -7 c -6.52 -2.24 -15.3 -3.43 -23 -4 c -10.23 -0.76 -21.78 -0.75 -31 0 c -1.99 0.16 -5.93 3.44 -6 3 c -0.11 -0.68 3.74 -5.95 5 -9 c 1.01 -2.45 1.88 -5.41 2 -8 c 0.19 -4.09 0.52 -10.41 -1 -13 c -1.15 -1.95 -5.93 -3.2 -9 -4 l -18 -3"/></svg>