<?xml version="1.0" encoding="UTF-8" standalone="no"?><!DOCTYPE svg PUBLIC "-//W3C//DTD SVG 1.1//EN" "http://www.w3.org/Graphics/SVG/1.1/DTD/svg11.dtd"><svg xmlns="http://www.w3.org/2000/svg" version="1.1" width="281" height="67"><path fill="none" stroke="#000000" stroke-width="2" stroke-linecap="round" stroke-linejoin="round" d="M 3 66 c -0.03 -0.12 -1.77 -4.69 -2 -7 c -0.41 -4.13 -0.84 -9.03 0 -13 c 1.37 -6.48 3.75 -14.27 7 -20 c 3.38 -5.95 8.99 -11.99 14 -17 c 3.1 -3.1 7.39 -7.1 11 -8 c 4.52 -1.13 12.54 -0.06 17 1 c 1.48 0.35 2.58 2.93 4 4 c 1.12 0.84 3.76 0.97 4 2 c 1.28 5.54 0.46 17.18 2 24 c 0.55 2.43 3.1 4.96 5 7 c 2.34 2.53 5.13 5.14 8 7 c 3.62 2.35 8.16 3.69 12 6 c 4.53 2.72 8.66 6.83 13 9 c 2.53 1.27 6.55 2.31 9 2 c 2.14 -0.27 6.04 -2.18 7 -4 c 1.82 -3.45 2.45 -10.01 3 -15 c 0.43 -3.91 0.96 -8.8 0 -12 c -0.8 -2.67 -3.77 -6.41 -6 -8 c -1.84 -1.31 -5.36 -1.67 -8 -2 c -2.56 -0.32 -6.04 -0.75 -8 0 c -1.73 0.67 -4.65 3.35 -5 5 c -0.46 2.15 0.41 7.2 2 9 c 2.63 2.99 8.55 6.22 13 8 c 5.1 2.04 11.38 3.34 17 4 c 5.47 0.64 12.07 1.19 17 0 c 5.19 -1.26 11.64 -4.54 16 -8 c 6.38 -5.06 15.45 -17.73 18 -19 c 0.9 -0.45 0.6 7.04 2 9 c 1.43 2.01 5.27 4.05 8 5 c 3.52 1.23 7.91 1.6 12 2 c 6.39 0.62 12.45 0.92 19 1 c 20.3 0.26 41.03 -0.82 59 0 l 7 3"/></svg>