<?xml version="1.0" encoding="UTF-8" standalone="no"?><!DOCTYPE svg PUBLIC "-//W3C//DTD SVG 1.1//EN" "http://www.w3.org/Graphics/SVG/1.1/DTD/svg11.dtd"><svg xmlns="http://www.w3.org/2000/svg" version="1.1" width="265" height="36"><path fill="none" stroke="#000000" stroke-width="2" stroke-linecap="round" stroke-linejoin="round" d="M 264 34 c -0.17 -0.16 -6.44 -6.18 -10 -9 c -4.55 -3.6 -9.06 -7.26 -14 -10 c -6.94 -3.85 -14.59 -7.93 -22 -10 c -8.67 -2.43 -18.58 -3.28 -28 -4 c -8 -0.62 -16.02 -0.54 -24 0 c -6.73 0.46 -13.37 1.67 -20 3 c -3.42 0.68 -7.87 1.33 -10 3 c -1.82 1.43 -3.52 5.37 -4 8 c -0.75 4.11 -0.46 9.85 0 14 c 0.15 1.33 1.16 3 2 4 c 0.67 0.81 2.3 2.12 3 2 c 0.82 -0.14 3.3 -2.41 3 -3 c -0.6 -1.2 -4.49 -3.74 -7 -5 c -7.33 -3.66 -15.26 -8.51 -23 -10 c -17.05 -3.28 -36.64 -3.97 -55 -5 c -5.33 -0.3 -10.67 0.38 -16 1 c -3.39 0.39 -6.74 1.09 -10 2 c -2.73 0.76 -5.57 3.1 -8 3 c -4.96 -0.2 -11.81 -2.44 -17 -4 l -3 -2"/></svg>