<?xml version="1.0" encoding="UTF-8" standalone="no"?><!DOCTYPE svg PUBLIC "-//W3C//DTD SVG 1.1//EN" "http://www.w3.org/Graphics/SVG/1.1/DTD/svg11.dtd"><svg xmlns="http://www.w3.org/2000/svg" version="1.1" width="157" height="77"><path fill="none" stroke="#000000" stroke-width="2" stroke-linecap="round" stroke-linejoin="round" d="M 1 68 c 0.32 -0.75 11.4 -29.08 18 -43 c 2.35 -4.97 5.79 -9.3 9 -14 c 1.93 -2.83 3.91 -5.68 6 -8 c 0.75 -0.84 2.38 -2.21 3 -2 c 0.86 0.29 2.46 2.53 3 4 c 3.87 10.5 6.3 23.98 11 34 c 2.53 5.39 7.82 10.82 12 15 c 1.76 1.76 4.8 3.56 7 4 c 2.2 0.44 6.05 0.23 8 -1 c 6.01 -3.78 15.66 -16.83 19 -16 c 3.32 0.83 5.56 15.89 9 23 c 1.39 2.88 3.73 6.06 6 8 c 2.03 1.74 5.41 3.35 8 4 c 2.32 0.58 5.61 0.48 8 0 c 2.28 -0.46 5.05 -1.7 7 -3 c 1.81 -1.21 3.57 -3.18 5 -5 c 2.19 -2.79 3.84 -6.41 6 -9 c 1 -1.2 2.67 -2.6 4 -3 l 6 0"/></svg>