<?xml version="1.0" encoding="UTF-8" standalone="no"?><!DOCTYPE svg PUBLIC "-//W3C//DTD SVG 1.1//EN" "http://www.w3.org/Graphics/SVG/1.1/DTD/svg11.dtd"><svg xmlns="http://www.w3.org/2000/svg" version="1.1" width="270" height="69"><path fill="none" stroke="#000000" stroke-width="2" stroke-linecap="round" stroke-linejoin="round" d="M 35 56 c -0.14 -0.4 -5.01 -15.3 -8 -23 c -1.76 -4.53 -3.65 -9.08 -6 -13 c -1.51 -2.52 -3.81 -4.98 -6 -7 c -2.04 -1.88 -4.83 -3.14 -7 -5 c -2.49 -2.14 -6.7 -6.82 -7 -7 c -0.14 -0.08 0.95 3.19 2 4 c 12.08 9.33 27.24 21.08 42 30 c 17.4 10.51 35.98 24.73 54 28 c 37.95 6.88 103.58 7.05 128 5 c 3.1 -0.26 2.55 -10.66 3 -16 c 0.55 -6.56 0.27 -13.55 0 -20 c -0.06 -1.33 -0.41 -2.96 -1 -4 c -0.61 -1.07 -1.93 -2.39 -3 -3 c -1.04 -0.59 -4.15 -0.92 -4 -1 c 0.3 -0.15 5.29 -0.92 8 -1 c 8.06 -0.25 17.67 1.38 24 0 c 2.8 -0.61 5.49 -4.49 8 -7 c 2.18 -2.18 5.24 -7.33 6 -7 l 1 10"/></svg>