<?xml version="1.0" encoding="UTF-8" standalone="no"?><!DOCTYPE svg PUBLIC "-//W3C//DTD SVG 1.1//EN" "http://www.w3.org/Graphics/SVG/1.1/DTD/svg11.dtd"><svg xmlns="http://www.w3.org/2000/svg" version="1.1" width="159" height="80"><path fill="none" stroke="#000000" stroke-width="2" stroke-linecap="round" stroke-linejoin="round" d="M 1 1 c 0.11 0.18 4.18 6.49 6 10 c 3.28 6.33 5.62 12.7 9 19 c 4.11 7.65 8.35 14.6 13 22 c 2.88 4.58 5.85 9.4 9 13 c 1.16 1.33 4.38 3.53 5 3 c 0.97 -0.83 1.79 -6.26 2 -9 c 0.09 -1.23 -0.41 -2.96 -1 -4 c -0.61 -1.07 -3.16 -3.06 -3 -3 c 1.78 0.74 29.15 14.48 44 20 c 8.2 3.04 17.3 4.78 26 6 c 7.84 1.1 15.95 1 24 1 c 3.7 0 8.5 0.39 11 -1 c 2.58 -1.43 4.89 -5.84 7 -9 l 5 -9"/></svg>