<?xml version="1.0" encoding="UTF-8" standalone="no"?><!DOCTYPE svg PUBLIC "-//W3C//DTD SVG 1.1//EN" "http://www.w3.org/Graphics/SVG/1.1/DTD/svg11.dtd"><svg xmlns="http://www.w3.org/2000/svg" version="1.1" width="226" height="57"><path fill="none" stroke="#000000" stroke-width="2" stroke-linecap="round" stroke-linejoin="round" d="M 23 56 c 0.82 0 31.51 1.25 47 0 c 13.39 -1.08 26.73 -3.81 40 -7 c 13.33 -3.21 26.21 -7.02 39 -12 c 19.23 -7.49 36.75 -16.83 56 -25 c 5.66 -2.4 12.06 -3.78 17 -6 c 1.16 -0.52 3 -2.35 3 -3 c 0 -0.55 -1.98 -1.96 -3 -2 c -13.93 -0.54 -32.58 -0.51 -49 0 c -5.07 0.16 -9.94 1.63 -15 2 c -4.01 0.3 -8.29 -0.69 -12 0 c -4.88 0.9 -10.69 2.38 -15 5 c -17.83 10.85 -36.95 26.61 -54 37 c -2.66 1.62 -8.31 3.16 -10 2 c -2.37 -1.63 -4.75 -8.64 -6 -13 c -1.32 -4.61 -0.96 -10.2 -2 -15 c -0.59 -2.71 -1.78 -5.57 -3 -8 c -0.71 -1.42 -1.78 -3.81 -3 -4 c -5.61 -0.86 -15.13 -0.3 -23 0 c -9.94 0.38 -29 2 -29 2"/></svg>