<?xml version="1.0" encoding="UTF-8" standalone="no"?><!DOCTYPE svg PUBLIC "-//W3C//DTD SVG 1.1//EN" "http://www.w3.org/Graphics/SVG/1.1/DTD/svg11.dtd"><svg xmlns="http://www.w3.org/2000/svg" version="1.1" width="151" height="80"><path fill="none" stroke="#000000" stroke-width="2" stroke-linecap="round" stroke-linejoin="round" d="M 18 69 c 0 -1.01 1.27 -40.74 0 -58 c -0.24 -3.33 -3.21 -8.21 -5 -10 c -0.8 -0.8 -3.62 -0.34 -5 0 c -1 0.25 -2.4 1.14 -3 2 c -1.5 2.14 -3.69 5.35 -4 8 c -0.91 7.7 -1.76 18.5 0 26 c 1.6 6.84 6.69 15.01 11 21 c 2.96 4.12 7.76 7.68 12 11 c 3.39 2.66 7.23 5.02 11 7 c 2.47 1.3 5.66 2.83 8 3 c 1.73 0.12 4.52 -1.07 6 -2 c 0.84 -0.53 1.89 -1.98 2 -3 c 0.47 -4.24 -0.47 -10.55 0 -15 c 0.14 -1.33 1.01 -3.46 2 -4 c 2.03 -1.11 6.01 -1.69 9 -2 c 3.24 -0.34 6.74 -0.33 10 0 c 3.33 0.33 6.81 0.99 10 2 c 4.06 1.29 7.98 3.58 12 5 c 1.58 0.56 3.33 0.94 5 1 c 7.21 0.27 15.2 0.82 22 0 c 3.62 -0.44 7.21 -2.96 11 -4 l 18 -4"/></svg>