<?xml version="1.0" encoding="UTF-8" standalone="no"?><!DOCTYPE svg PUBLIC "-//W3C//DTD SVG 1.1//EN" "http://www.w3.org/Graphics/SVG/1.1/DTD/svg11.dtd"><svg xmlns="http://www.w3.org/2000/svg" version="1.1" width="131" height="117"><path fill="none" stroke="#000000" stroke-width="2" stroke-linecap="round" stroke-linejoin="round" d="M 2 77 c -0.02 -0.16 -0.94 -5.94 -1 -9 c -0.28 -15.53 -0.9 -30.89 0 -46 c 0.42 -7.02 3.79 -21.63 4 -21 c 0.44 1.32 1.78 30.1 4 45 c 1.46 9.84 3.59 20.21 7 29 c 2.67 6.88 7.58 13.56 12 20 c 3.64 5.31 7.68 11.25 12 15 c 2.71 2.36 7.35 4.16 11 5 c 4.54 1.05 11.13 2.08 15 1 c 3.3 -0.92 6.45 -6.41 10 -8 c 5.44 -2.44 12.55 -3.05 19 -5 c 8.3 -2.51 16.25 -6.23 24 -8 l 11 0"/></svg>