<?xml version="1.0" encoding="UTF-8" standalone="no"?><!DOCTYPE svg PUBLIC "-//W3C//DTD SVG 1.1//EN" "http://www.w3.org/Graphics/SVG/1.1/DTD/svg11.dtd"><svg xmlns="http://www.w3.org/2000/svg" version="1.1" width="242" height="58"><path fill="none" stroke="#000000" stroke-width="2" stroke-linecap="round" stroke-linejoin="round" d="M 59 26 c -0.09 -0.16 -2.82 -6.71 -5 -9 c -4.06 -4.27 -9.86 -9.16 -15 -12 c -3.9 -2.15 -9.55 -3.44 -14 -4 c -3.07 -0.38 -7.29 -0.05 -10 1 c -2.7 1.05 -5.98 3.69 -8 6 c -2.36 2.69 -5.11 6.74 -6 10 c -0.91 3.35 -0.96 8.8 0 12 c 0.8 2.67 3.63 5.95 6 8 c 4.61 3.98 10.53 8.78 16 11 c 6.02 2.44 14.07 3.56 21 4 c 8.43 0.54 18.34 0.83 26 -1 c 6.58 -1.57 14 -6.13 20 -10 c 3.99 -2.57 7.9 -6.38 11 -10 c 2.72 -3.17 5.2 -7.4 7 -11 c 0.7 -1.41 0.99 -5.13 1 -5 c 0.06 0.7 0.05 18.45 1 27 c 0.33 3 1.75 6.29 3 9 c 0.66 1.43 1.8 3.5 3 4 c 2.17 0.9 6.58 1.48 9 1 c 1.92 -0.38 4.62 -2.37 6 -4 c 1.98 -2.33 3.2 -6.53 5 -9 c 0.63 -0.87 1.92 -1.61 3 -2 c 6.93 -2.49 15.29 -3.79 22 -7 c 8.22 -3.93 15.88 -10.59 24 -15 c 3.36 -1.82 7.43 -3.29 11 -4 c 2.75 -0.55 6.45 -0.64 9 0 c 2.29 0.57 5.38 2.17 7 4 c 5.46 6.17 10.48 14.83 16 22 c 1.15 1.49 3.71 4.55 4 4 c 1.01 -1.9 2.22 -12.86 4 -19 l 5 -12"/></svg>