<?xml version="1.0" encoding="UTF-8" standalone="no"?><!DOCTYPE svg PUBLIC "-//W3C//DTD SVG 1.1//EN" "http://www.w3.org/Graphics/SVG/1.1/DTD/svg11.dtd"><svg xmlns="http://www.w3.org/2000/svg" version="1.1" width="108" height="54"><path fill="none" stroke="#000000" stroke-width="2" stroke-linecap="round" stroke-linejoin="round" d="M 107 53 c -0.02 -0.1 -0.1 -4.43 -1 -6 c -2.75 -4.81 -7.02 -10.15 -11 -15 c -3.79 -4.61 -7.6 -9.51 -12 -13 c -4.9 -3.89 -11.15 -7.4 -17 -10 c -5.91 -2.63 -12.51 -4.21 -19 -6 c -3.32 -0.92 -7.33 -2.45 -10 -2 c -2.47 0.41 -6.58 2.88 -8 5 c -2.04 3.06 -3.34 8.74 -4 13 c -0.63 4.07 -0.74 9.28 0 13 c 0.46 2.31 2.36 5.08 4 7 c 2.16 2.53 5.27 5.24 8 7 c 1.63 1.05 4.4 2.15 6 2 c 1.47 -0.13 4.38 -1.61 5 -3 c 1.87 -4.16 3.04 -11.27 4 -17 c 0.71 -4.28 1.37 -9.09 1 -13 c -0.24 -2.56 -1.23 -7.51 -3 -8 c -5.39 -1.49 -17.86 -0.7 -26 0 c -2.97 0.25 -6.42 1.62 -9 3 c -2.13 1.13 -4.28 3.14 -6 5 c -2.2 2.38 -4.54 5.27 -6 8 c -1.06 1.99 -1.67 4.7 -2 7 l 0 7"/></svg>