<?xml version="1.0" encoding="UTF-8" standalone="no"?><!DOCTYPE svg PUBLIC "-//W3C//DTD SVG 1.1//EN" "http://www.w3.org/Graphics/SVG/1.1/DTD/svg11.dtd"><svg xmlns="http://www.w3.org/2000/svg" version="1.1" width="245" height="76"><path fill="none" stroke="#000000" stroke-width="2" stroke-linecap="round" stroke-linejoin="round" d="M 244 1 c -0.47 0 -17.99 -0.64 -27 0 c -9.77 0.7 -19.62 1.66 -29 4 c -14.49 3.62 -28.8 8.55 -43 14 c -10.4 3.99 -20.29 8.69 -30 14 c -8.05 4.41 -15.41 9.61 -23 15 c -5.31 3.77 -11.73 7.59 -15 12 c -2.69 3.63 -5.28 13.07 -5 15 c 0.12 0.86 5.87 0.13 7 -1 c 1.52 -1.52 2.54 -6.06 3 -9 c 0.49 -3.1 0.83 -7.22 0 -10 c -0.97 -3.24 -3.47 -8.74 -6 -10 c -3.47 -1.74 -10.55 -1 -16 -1 c -11.21 0 -23 -0.36 -33 1 c -3.66 0.5 -7.23 3.63 -11 5 c -3.56 1.29 -8.87 3.71 -11 3 l -4 -8"/></svg>