<?xml version="1.0" encoding="UTF-8" standalone="no"?><!DOCTYPE svg PUBLIC "-//W3C//DTD SVG 1.1//EN" "http://www.w3.org/Graphics/SVG/1.1/DTD/svg11.dtd"><svg xmlns="http://www.w3.org/2000/svg" version="1.1" width="129" height="49"><path fill="none" stroke="#000000" stroke-width="2" stroke-linecap="round" stroke-linejoin="round" d="M 128 48 c -0.07 -0.21 -1.88 -8.95 -4 -12 c -2.73 -3.92 -7.76 -7.38 -12 -11 c -5.01 -4.27 -9.68 -8.6 -15 -12 c -6.56 -4.19 -14.16 -8.84 -21 -11 c -4.92 -1.55 -11.29 -1 -17 -1 c -4.71 0 -9.9 0.02 -14 1 c -2.35 0.56 -5.89 2.22 -7 4 c -1.71 2.73 -2.41 8.05 -3 12 c -0.38 2.55 -0.2 5.38 0 8 c 0.13 1.67 0.26 3.97 1 5 c 0.65 0.9 3.5 2.5 4 2 c 1.07 -1.07 2.83 -6.32 3 -9 c 0.13 -2.06 -0.67 -5.89 -2 -7 c -1.91 -1.59 -6.64 -2.36 -10 -3 c -3.55 -0.68 -7.25 -0.81 -11 -1 c -3.06 -0.15 -6.81 -0.88 -9 0 c -2.07 0.83 -4.89 3.77 -6 6 l -4 14"/></svg>