<?xml version="1.0" encoding="UTF-8" standalone="no"?><!DOCTYPE svg PUBLIC "-//W3C//DTD SVG 1.1//EN" "http://www.w3.org/Graphics/SVG/1.1/DTD/svg11.dtd"><svg xmlns="http://www.w3.org/2000/svg" version="1.1" width="168" height="54"><path fill="none" stroke="#000000" stroke-width="2" stroke-linecap="round" stroke-linejoin="round" d="M 167 53 c -0.19 -0.1 -7.52 -3.68 -11 -6 c -5.56 -3.7 -10.36 -8.1 -16 -12 c -7.74 -5.36 -14.99 -10.57 -23 -15 c -7.7 -4.26 -15.72 -7.69 -24 -11 c -6.95 -2.78 -14.05 -5.76 -21 -7 c -7.54 -1.34 -15.95 -1 -24 -1 c -3.7 0 -7.71 0.13 -11 1 c -2.67 0.7 -5.69 2.4 -8 4 c -1.83 1.26 -4.28 3.2 -5 5 c -1.02 2.55 -1.2 7.03 -1 10 c 0.11 1.59 0.97 3.85 2 5 c 1.65 1.83 4.56 3.7 7 5 c 2.42 1.29 5.4 2.51 8 3 c 2.44 0.46 6.64 1.15 8 0 c 2.05 -1.74 3.91 -7.51 5 -11 c 0.45 -1.44 0.63 -3.85 0 -5 c -1.07 -1.96 -3.79 -5.48 -6 -6 c -6.25 -1.46 -16.8 -1.46 -24 -1 c -2.28 0.15 -4.97 1.7 -7 3 c -2.45 1.58 -5.42 3.79 -7 6 c -1.46 2.04 -1.82 7.12 -3 8 l -5 -2"/></svg>