<?xml version="1.0" encoding="UTF-8" standalone="no"?><!DOCTYPE svg PUBLIC "-//W3C//DTD SVG 1.1//EN" "http://www.w3.org/Graphics/SVG/1.1/DTD/svg11.dtd"><svg xmlns="http://www.w3.org/2000/svg" version="1.1" width="192" height="88"><path fill="none" stroke="#000000" stroke-width="2" stroke-linecap="round" stroke-linejoin="round" d="M 1 66 c 0.23 -0.31 8.91 -11.76 13 -18 c 2.31 -3.52 4.52 -7.14 6 -11 c 4.48 -11.7 11.8 -35.24 12 -36 c 0.05 -0.21 -3.6 5.88 -5 9 c -1.6 3.55 -3.48 7.39 -4 11 c -0.75 5.24 -0.26 11.52 0 17 c 0.06 1.33 0.24 3.24 1 4 c 1.48 1.48 4.61 3.28 7 4 c 3.89 1.17 9.15 2.18 13 2 c 2.5 -0.12 5.52 -1.76 8 -3 c 2.09 -1.05 4.47 -2.47 6 -4 c 1.24 -1.24 2.51 -4.88 3 -5 c 0.35 -0.09 1.29 2.87 1 4 c -1.45 5.55 -5.69 12.85 -7 19 c -0.9 4.25 -0.47 10.04 0 14 c 0.12 1.02 1.14 2.69 2 3 c 2.15 0.78 6.25 1.29 9 1 c 3.17 -0.33 7.06 -1.53 10 -3 c 3.43 -1.72 7.19 -6.34 10 -7 c 1.76 -0.41 4.71 2.6 7 3 c 3 0.53 6.72 -0.31 10 0 c 3.67 0.35 7.61 0.93 11 2 c 2.72 0.86 5.28 3.09 8 4 c 3.1 1.03 6.8 1.06 10 2 c 2.39 0.7 4.75 2.44 7 3 c 1.48 0.37 4.02 0.56 5 0 c 0.88 -0.5 1.08 -3.75 2 -4 c 1.87 -0.51 6.02 0.43 9 1 c 4.07 0.78 8.04 1.73 12 3 c 4.46 1.43 8.69 3.92 13 5 l 11 1"/></svg>