<?xml version="1.0" encoding="UTF-8" standalone="no"?><!DOCTYPE svg PUBLIC "-//W3C//DTD SVG 1.1//EN" "http://www.w3.org/Graphics/SVG/1.1/DTD/svg11.dtd"><svg xmlns="http://www.w3.org/2000/svg" version="1.1" width="58" height="33"><path fill="none" stroke="#000000" stroke-width="2" stroke-linecap="round" stroke-linejoin="round" d="M 57 1 c -0.1 0.09 -3.91 3.88 -6 5 c -1.95 1.05 -4.84 1.05 -7 2 c -3.06 1.34 -6.16 3.07 -9 5 c -4.52 3.08 -9.02 6.49 -13 10 c -1.55 1.37 -3.69 3.61 -4 5 c -0.22 0.97 1.49 3.87 2 4 c 0.41 0.1 1.89 -2.05 2 -3 c 0.18 -1.61 -0.21 -4.74 -1 -6 c -0.58 -0.93 -2.61 -1.58 -4 -2 c -5.14 -1.54 -16 -4 -16 -4"/></svg>