<?xml version="1.0" encoding="UTF-8" standalone="no"?><!DOCTYPE svg PUBLIC "-//W3C//DTD SVG 1.1//EN" "http://www.w3.org/Graphics/SVG/1.1/DTD/svg11.dtd"><svg xmlns="http://www.w3.org/2000/svg" version="1.1" width="166" height="66"><path fill="none" stroke="#000000" stroke-width="2" stroke-linecap="round" stroke-linejoin="round" d="M 165 65 c -0.07 -0.14 -2.08 -6.08 -4 -8 c -6.4 -6.4 -14.99 -14.01 -23 -19 c -6.38 -3.97 -14.39 -6.3 -22 -9 c -7.69 -2.74 -15.28 -5.38 -23 -7 c -6.46 -1.35 -13.49 -2 -20 -2 c -4.9 0 -10.26 0.86 -15 2 c -3.38 0.81 -7.04 2.34 -10 4 c -2.14 1.21 -5.22 3.11 -6 5 c -1.2 2.91 -1.8 9.93 -1 12 c 0.4 1.05 4.98 1.68 6 1 c 1.28 -0.85 2.7 -4.66 3 -7 c 0.95 -7.37 2.01 -17.35 1 -24 c -0.45 -2.99 -3.51 -7.7 -6 -9 c -3.98 -2.08 -11.5 -2.59 -17 -3 c -3.2 -0.24 -6.69 0.39 -10 1 c -5.76 1.07 -17 4 -17 4"/></svg>