<?xml version="1.0" encoding="UTF-8" standalone="no"?><!DOCTYPE svg PUBLIC "-//W3C//DTD SVG 1.1//EN" "http://www.w3.org/Graphics/SVG/1.1/DTD/svg11.dtd"><svg xmlns="http://www.w3.org/2000/svg" version="1.1" width="156" height="78"><path fill="none" stroke="#000000" stroke-width="2" stroke-linecap="round" stroke-linejoin="round" d="M 155 77 c -0.02 -0.09 -0.2 -3.68 -1 -5 c -3.49 -5.73 -8.29 -12.08 -13 -18 c -5.86 -7.38 -11.38 -15.01 -18 -21 c -7.04 -6.37 -15.63 -12.58 -24 -17 c -8.82 -4.66 -19.23 -8.33 -29 -11 c -8.29 -2.26 -17.4 -3.44 -26 -4 c -6.54 -0.43 -13.81 -0.03 -20 1 c -3.33 0.55 -7.27 2.18 -10 4 c -2.87 1.91 -5.58 5.18 -8 8 c -1.54 1.8 -3.43 3.96 -4 6 c -0.95 3.41 -1.29 8.19 -1 12 c 0.35 4.53 3 14 3 14"/></svg>