<?xml version="1.0" encoding="UTF-8" standalone="no"?><!DOCTYPE svg PUBLIC "-//W3C//DTD SVG 1.1//EN" "http://www.w3.org/Graphics/SVG/1.1/DTD/svg11.dtd"><svg xmlns="http://www.w3.org/2000/svg" version="1.1" width="126" height="110"><path fill="none" stroke="#000000" stroke-width="2" stroke-linecap="round" stroke-linejoin="round" d="M 125 108 c -0.24 -0.77 -8.6 -29.39 -14 -44 c -3.72 -10.06 -8.13 -19.44 -13 -29 c -3.92 -7.68 -7.3 -18.01 -13 -22 c -8.74 -6.12 -31.62 -13.29 -37 -13 c -2.06 0.11 -0.62 10.47 0 15 c 0.31 2.3 1.64 5.09 3 7 c 1.77 2.48 4.47 5.11 7 7 c 2.63 1.97 9.49 4.69 9 5 c -0.81 0.51 -11.24 -0.36 -17 0 c -10.55 0.66 -20.54 1.64 -31 3 c -5.14 0.67 -11.6 1.3 -15 3 c -1.49 0.75 -2.51 4.06 -3 6 c -0.43 1.74 -0.55 5.31 0 6 l 4 -1"/></svg>