<?xml version="1.0" encoding="UTF-8" standalone="no"?><!DOCTYPE svg PUBLIC "-//W3C//DTD SVG 1.1//EN" "http://www.w3.org/Graphics/SVG/1.1/DTD/svg11.dtd"><svg xmlns="http://www.w3.org/2000/svg" version="1.1" width="111" height="59"><path fill="none" stroke="#000000" stroke-width="2" stroke-linecap="round" stroke-linejoin="round" d="M 110 58 c 0 -0.12 0.69 -5.03 0 -7 c -1.75 -5.04 -4.61 -11.36 -8 -16 c -6.32 -8.63 -14.44 -17.44 -22 -25 c -2.45 -2.45 -5.9 -4.61 -9 -6 c -3.27 -1.47 -7.36 -2.66 -11 -3 c -6.7 -0.63 -19.09 -3.05 -21 0 c -2.91 4.66 -0.2 22.41 1 32 c 0.33 2.68 2.5 5.86 4 8 c 0.6 0.86 2.93 2.39 3 2 c 0.36 -1.94 0.77 -12.45 0 -18 c -0.5 -3.61 -1.99 -8.28 -4 -11 c -2.2 -2.98 -6.54 -7.08 -10 -8 c -6.49 -1.72 -16.95 -1.25 -24 -1 c -1.31 0.05 -3.25 1.04 -4 2 c -1.27 1.63 -2.45 4.66 -3 7 c -0.73 3.09 -1.9 8.97 -1 10 c 0.74 0.85 5.36 -1.69 8 -2 c 2.88 -0.34 6.46 -0.76 9 0 l 11 6"/></svg>