<?xml version="1.0" encoding="UTF-8" standalone="no"?><!DOCTYPE svg PUBLIC "-//W3C//DTD SVG 1.1//EN" "http://www.w3.org/Graphics/SVG/1.1/DTD/svg11.dtd"><svg xmlns="http://www.w3.org/2000/svg" version="1.1" width="190" height="24"><path fill="none" stroke="#000000" stroke-width="2" stroke-linecap="round" stroke-linejoin="round" d="M 1 19 c 0.19 -0.14 7.23 -5.69 11 -8 c 2.11 -1.29 5.34 -3 7 -3 c 0.92 0 2.46 1.92 3 3 c 0.65 1.3 0.38 3.6 1 5 c 0.61 1.37 1.85 3.54 3 4 c 1.6 0.64 4.91 0.45 7 0 c 2.27 -0.49 6.09 -3.39 7 -3 c 0.72 0.31 -1.01 5.72 0 6 c 3.71 1.01 15.14 1.09 22 0 c 7.2 -1.15 15.13 -4.03 22 -7 c 5.2 -2.25 10.21 -5.74 15 -9 c 2.52 -1.72 6.87 -6.52 7 -6 c 0.21 0.83 -4.11 9.78 -5 14 c -0.3 1.45 0.03 4.48 1 5 c 2.31 1.24 8.13 2 12 2 c 5.12 0 11.12 -0.51 16 -2 c 6.64 -2.03 13.65 -5.54 20 -9 c 4.58 -2.5 10.99 -8.28 13 -9 c 0.52 -0.19 0.29 3.29 1 4 c 0.93 0.93 3.6 1.06 5 2 c 2.4 1.6 4.73 4.95 7 6 c 1.48 0.68 4.33 0.37 6 0 c 1 -0.22 2.4 -1.14 3 -2 l 4 -8"/></svg>