<?xml version="1.0" encoding="UTF-8" standalone="no"?><!DOCTYPE svg PUBLIC "-//W3C//DTD SVG 1.1//EN" "http://www.w3.org/Graphics/SVG/1.1/DTD/svg11.dtd"><svg xmlns="http://www.w3.org/2000/svg" version="1.1" width="201" height="53"><path fill="none" stroke="#000000" stroke-width="2" stroke-linecap="round" stroke-linejoin="round" d="M 1 52 c 0.05 -0.33 1 -13.51 3 -19 c 1.73 -4.75 5.68 -9.58 9 -14 c 2.68 -3.57 5.62 -7.66 9 -10 c 4.72 -3.27 11.61 -6.28 17 -8 c 2.29 -0.73 6.23 -1.04 8 0 c 2.98 1.75 6.13 6.42 9 10 c 8.06 10.07 15.24 20.57 23 30 c 1.31 1.6 3.3 3.15 5 4 c 1.35 0.68 3.33 0.85 5 1 c 1.96 0.18 4.32 0.52 6 0 c 2.25 -0.69 5.01 -2.36 7 -4 c 3.5 -2.88 6.89 -6.39 10 -10 c 5.33 -6.18 10.99 -16.38 15 -19 c 1.48 -0.97 5.84 2.38 8 4 c 1.55 1.16 2.53 3.53 4 5 c 1.47 1.47 3.18 2.97 5 4 c 5.72 3.23 12.29 7.66 18 9 c 4.55 1.07 11.42 0.15 16 -1 c 2.7 -0.67 5.22 -3.86 8 -5 l 14 -4"/></svg>