<?xml version="1.0" encoding="UTF-8" standalone="no"?><!DOCTYPE svg PUBLIC "-//W3C//DTD SVG 1.1//EN" "http://www.w3.org/Graphics/SVG/1.1/DTD/svg11.dtd"><svg xmlns="http://www.w3.org/2000/svg" version="1.1" width="251" height="59"><path fill="none" stroke="#000000" stroke-width="2" stroke-linecap="round" stroke-linejoin="round" d="M 250 1 c -0.14 0 -5.43 -0.49 -8 0 c -24.94 4.75 -51 9.32 -76 16 c -13.75 3.67 -28.4 9.32 -40 15 c -3.46 1.69 -7.22 5.97 -9 9 c -1.13 1.92 -1.16 5.55 -1 8 c 0.15 2.22 0.83 5.68 2 7 c 1.02 1.14 4.05 1.64 6 2 c 1.55 0.28 4.61 0.78 5 0 c 0.78 -1.57 0.67 -7.16 0 -10 c -0.54 -2.29 -2.2 -5.62 -4 -7 c -3.2 -2.44 -8.68 -5.45 -13 -6 c -12.69 -1.62 -27.7 -1 -42 -1 c -5.46 0 -10.65 0.33 -16 1 c -5.43 0.68 -10.68 2.31 -16 3 c -2.29 0.3 -5.43 1 -7 0 c -4.61 -2.93 -9.77 -9.64 -15 -14 c -2.76 -2.3 -6.14 -4.86 -9 -6 l -6 0"/></svg>