<?xml version="1.0" encoding="UTF-8" standalone="no"?><!DOCTYPE svg PUBLIC "-//W3C//DTD SVG 1.1//EN" "http://www.w3.org/Graphics/SVG/1.1/DTD/svg11.dtd"><svg xmlns="http://www.w3.org/2000/svg" version="1.1" width="163" height="66"><path fill="none" stroke="#000000" stroke-width="2" stroke-linecap="round" stroke-linejoin="round" d="M 2 43 c 0.04 -0.05 1.78 -2 2 -3 c 0.37 -1.67 -0.33 -4.18 0 -6 c 0.3 -1.63 1.87 -3.35 2 -5 c 0.5 -6.44 0.5 -14.56 0 -21 c -0.13 -1.65 -1.11 -3.76 -2 -5 c -0.59 -0.83 -2.8 -2.34 -3 -2 c -0.39 0.66 -0.5 4.85 0 7 c 1.42 6.13 2.95 13.78 6 19 c 3.47 5.94 9.61 11.98 15 17 c 4.09 3.81 9.15 7.73 14 10 c 5.26 2.47 12.08 4.2 18 5 c 6.02 0.81 14.24 2.01 19 0 c 6.23 -2.62 14.09 -10.1 19 -16 c 4.52 -5.42 7.67 -13.12 11 -20 c 2.03 -4.2 3.7 -8.67 5 -13 c 0.66 -2.2 1.67 -5.94 1 -7 c -0.57 -0.92 -4.09 -1 -6 -1 c -1.91 0 -4.71 0.06 -6 1 c -1.83 1.33 -3.95 4.59 -5 7 c -1.13 2.58 -1.77 6.01 -2 9 c -0.42 5.52 -0.36 11.31 0 17 c 0.32 5.06 0.69 10.52 2 15 c 0.89 3.05 2.94 6.94 5 9 c 1.79 1.79 5.33 3.05 8 4 c 1.81 0.65 5.1 1.81 6 1 c 1.59 -1.43 2.93 -6.54 4 -10 c 1.96 -6.31 2.57 -15.52 5 -19 c 1.12 -1.6 5.97 -1 9 -1 c 11.04 0 33 1 33 1"/></svg>