<?xml version="1.0" encoding="UTF-8" standalone="no"?><!DOCTYPE svg PUBLIC "-//W3C//DTD SVG 1.1//EN" "http://www.w3.org/Graphics/SVG/1.1/DTD/svg11.dtd"><svg xmlns="http://www.w3.org/2000/svg" version="1.1" width="124" height="101"><path fill="none" stroke="#000000" stroke-width="2" stroke-linecap="round" stroke-linejoin="round" d="M 123 77 c -0.09 0 -3.68 -0.44 -5 0 c -1.32 0.44 -3.03 1.87 -4 3 c -0.87 1.01 -1.73 2.63 -2 4 c -0.99 4.94 -1.42 16.19 -2 16 c -0.67 -0.22 -1.98 -12.46 -4 -18 c -1.86 -5.11 -4.79 -10.67 -8 -15 c -3.2 -4.32 -7.75 -8.67 -12 -12 c -3.14 -2.46 -7.2 -4.27 -11 -6 c -3.55 -1.61 -7.32 -3.03 -11 -4 c -2.53 -0.67 -7.62 0.5 -8 -1 c -1.63 -6.52 -0.43 -23.29 -1 -35 c -0.1 -2.03 -0.08 -4.95 -1 -6 c -0.95 -1.09 -4.21 -2 -6 -2 c -2.06 0 -6.06 0.65 -7 2 c -1.44 2.08 -1.81 7.32 -2 11 c -0.47 9.23 0.52 19.66 0 28 c -0.08 1.33 -1.32 4.14 -2 4 c -1.52 -0.3 -5.79 -3.67 -8 -6 c -3.93 -4.14 -7.16 -9.68 -11 -14 c -1.38 -1.55 -3.26 -2.95 -5 -4 c -1.46 -0.88 -3.31 -1.58 -5 -2 l -7 -1"/></svg>