<?xml version="1.0" encoding="UTF-8" standalone="no"?><!DOCTYPE svg PUBLIC "-//W3C//DTD SVG 1.1//EN" "http://www.w3.org/Graphics/SVG/1.1/DTD/svg11.dtd"><svg xmlns="http://www.w3.org/2000/svg" version="1.1" width="164" height="68"><path fill="none" stroke="#000000" stroke-width="2" stroke-linecap="round" stroke-linejoin="round" d="M 24 67 c -0.17 -0.11 -7.69 -3.38 -10 -6 c -4.73 -5.35 -12.27 -14.29 -13 -20 c -0.63 -4.94 4.31 -14.13 8 -19 c 3.94 -5.2 11.11 -9.79 17 -14 c 3.35 -2.4 7.37 -4.73 11 -6 c 2.62 -0.92 6.23 -1.17 9 -1 c 2.23 0.14 5.49 0.72 7 2 c 2.24 1.9 5.15 5.86 6 9 c 2.22 8.2 2.4 18.67 4 28 c 0.41 2.4 0.88 5.18 2 7 c 1.31 2.12 3.89 5.01 6 6 c 2.26 1.05 6.33 1.46 9 1 c 4.39 -0.76 10.59 -2.2 14 -5 c 8.43 -6.92 16.37 -18.37 25 -27 c 2.68 -2.68 6.33 -5.86 9 -7 c 1.19 -0.51 3.58 0.35 5 1 c 2.01 0.91 3.93 3.27 6 4 c 3.21 1.13 7.32 1.69 11 2 l 13 0"/></svg>