<?xml version="1.0" encoding="UTF-8" standalone="no"?><!DOCTYPE svg PUBLIC "-//W3C//DTD SVG 1.1//EN" "http://www.w3.org/Graphics/SVG/1.1/DTD/svg11.dtd"><svg xmlns="http://www.w3.org/2000/svg" version="1.1" width="113" height="29"><path fill="none" stroke="#000000" stroke-width="2" stroke-linecap="round" stroke-linejoin="round" d="M 112 26 c -0.21 -0.03 -8.19 -0.78 -12 -2 c -12.69 -4.06 -24.95 -9.72 -38 -14 c -7.66 -2.51 -15.2 -4.68 -23 -6 c -9.89 -1.68 -20.46 -2.45 -30 -3 c -1.61 -0.09 -3.84 0.27 -5 1 c -1.14 0.71 -2.77 2.63 -3 4 c -0.64 3.84 -0.8 10.41 0 14 c 0.32 1.45 2.56 2.88 4 4 c 1.49 1.16 3.31 2.48 5 3 c 2.34 0.72 6.06 1.49 8 1 c 1.36 -0.34 3.11 -2.49 4 -4 c 2.26 -3.83 6 -10.67 6 -13 c 0 -1.03 -4.04 -1.7 -6 -2 c -2.17 -0.33 -5.05 -0.39 -7 0 l -3 2"/></svg>