<?xml version="1.0" encoding="UTF-8" standalone="no"?><!DOCTYPE svg PUBLIC "-//W3C//DTD SVG 1.1//EN" "http://www.w3.org/Graphics/SVG/1.1/DTD/svg11.dtd"><svg xmlns="http://www.w3.org/2000/svg" version="1.1" width="250" height="86"><path fill="none" stroke="#000000" stroke-width="2" stroke-linecap="round" stroke-linejoin="round" d="M 13 85 c -0.1 -0.02 -4.38 -0.26 -6 -1 c -1.71 -0.78 -4.24 -2.49 -5 -4 c -0.95 -1.9 -1.12 -5.43 -1 -8 c 0.2 -4.19 0.23 -9.57 2 -13 c 3.07 -5.94 8.89 -12.39 14 -18 c 5.23 -5.74 10.86 -11.3 17 -16 c 9.49 -7.27 20 -14.42 30 -20 c 3.77 -2.11 11.6 -5.71 13 -4 c 2.73 3.34 2.93 17.31 5 26 c 1.31 5.5 2.96 10.82 5 16 c 1.63 4.15 3.65 8.38 6 12 c 1.86 2.87 4.48 5.48 7 8 c 2.52 2.52 5.4 5.79 8 7 c 1.71 0.8 4.85 0.45 7 0 c 3.89 -0.82 9.07 -1.67 12 -4 c 7.37 -5.86 14.35 -15.35 22 -23 c 2.56 -2.56 5.27 -5.24 8 -7 c 1.63 -1.05 3.95 -1.6 6 -2 c 6.57 -1.26 13.28 -2.42 20 -3 c 4.98 -0.43 9.97 -0.42 15 0 c 11.15 0.93 21.85 3.13 33 4 l 18 0"/></svg>