<?xml version="1.0" encoding="UTF-8" standalone="no"?><!DOCTYPE svg PUBLIC "-//W3C//DTD SVG 1.1//EN" "http://www.w3.org/Graphics/SVG/1.1/DTD/svg11.dtd"><svg xmlns="http://www.w3.org/2000/svg" version="1.1" width="283" height="82"><path fill="none" stroke="#000000" stroke-width="2" stroke-linecap="round" stroke-linejoin="round" d="M 93 81 l 1 1"/><path fill="none" stroke="#000000" stroke-width="2" stroke-linecap="round" stroke-linejoin="round" d="M 202 27 l 1 1"/><path fill="none" stroke="#000000" stroke-width="2" stroke-linecap="round" stroke-linejoin="round" d="M 282 45 c -0.58 -0.37 -21.47 -15.23 -33 -21 c -14.95 -7.47 -31.24 -13.67 -47 -19 c -6.65 -2.25 -14.01 -3.18 -21 -4 c -4.25 -0.5 -9.44 -0.63 -13 0 c -1.37 0.24 -3.23 1.79 -4 3 c -1.31 2.07 -2.83 5.4 -3 8 c -0.45 7.01 -0.54 16.46 1 23 c 0.87 3.7 4.48 7.42 7 11 c 1.51 2.14 3.18 4.18 5 6 c 1.82 1.82 6.1 5.1 6 5 c -0.15 -0.15 -5.69 -6.05 -9 -8 c -7.62 -4.48 -16.43 -8.99 -25 -12 c -10.19 -3.58 -20.96 -5.7 -32 -8 c -13.6 -2.83 -26.62 -5.9 -40 -7 c -14.83 -1.22 -32.56 -1.41 -45 0 c -2.77 0.31 -7.06 3.84 -8 6 c -0.95 2.17 2.23 9.88 1 10 c -2.76 0.28 -21 -8 -21 -8"/></svg>