<?xml version="1.0" encoding="UTF-8" standalone="no"?><!DOCTYPE svg PUBLIC "-//W3C//DTD SVG 1.1//EN" "http://www.w3.org/Graphics/SVG/1.1/DTD/svg11.dtd"><svg xmlns="http://www.w3.org/2000/svg" version="1.1" width="138" height="59"><path fill="none" stroke="#000000" stroke-width="2" stroke-linecap="round" stroke-linejoin="round" d="M 134 58 c 0.05 -0.31 2.44 -11.98 3 -18 c 0.43 -4.62 0.94 -9.93 0 -14 c -0.9 -3.9 -3.15 -9.59 -6 -12 c -4.75 -4.02 -13.3 -7.88 -20 -10 c -6.35 -2.01 -13.93 -2.43 -21 -3 c -5.33 -0.43 -11.08 -0.73 -16 0 c -3.6 0.53 -7.85 2.42 -11 4 c -1.14 0.57 -2.68 1.89 -3 3 c -0.83 2.9 -1.88 8.1 -1 11 c 1.15 3.79 8.48 11.05 8 12 c -0.42 0.83 -8.01 -3.47 -12 -4 c -8.21 -1.08 -17.39 -1.21 -26 -1 c -5.01 0.12 -10.44 0.72 -15 2 c -3.37 0.94 -7.46 3.04 -10 5 l -3 5"/></svg>