<?xml version="1.0" encoding="UTF-8" standalone="no"?><!DOCTYPE svg PUBLIC "-//W3C//DTD SVG 1.1//EN" "http://www.w3.org/Graphics/SVG/1.1/DTD/svg11.dtd"><svg xmlns="http://www.w3.org/2000/svg" version="1.1" width="340" height="62"><path fill="none" stroke="#000000" stroke-width="2" stroke-linecap="round" stroke-linejoin="round" d="M 339 61 c -0.3 -0.18 -11.03 -7.02 -17 -10 c -10.97 -5.48 -21.66 -11.07 -33 -15 c -13.58 -4.71 -27.7 -8.45 -42 -11 c -19.57 -3.49 -38.66 -5.08 -59 -7 c -16.13 -1.52 -30.68 -2.21 -47 -3 c -19.41 -0.94 -36.78 -1 -56 -2 c -7.23 -0.38 -13.84 -1.73 -21 -2 c -11.19 -0.41 -24.37 -0.72 -33 0 c -1.11 0.09 -2.65 1.94 -3 3 c -0.5 1.49 -0.7 4.59 0 6 c 1 1.99 3.85 4.18 6 6 c 2.18 1.84 4.57 3.61 7 5 c 2.16 1.23 5.14 3 7 3 c 1.43 0 4.43 -1.75 5 -3 c 0.78 -1.71 0.42 -5.49 0 -8 c -0.54 -3.27 -1.25 -7.72 -3 -10 c -2.04 -2.67 -6.51 -5.09 -10 -7 c -3.72 -2.03 -8.14 -4.47 -12 -5 c -5.05 -0.7 -12.8 -0.2 -17 1 c -1.58 0.45 -2.94 3.2 -4 5 l -6 12"/></svg>