<?xml version="1.0" encoding="UTF-8" standalone="no"?><!DOCTYPE svg PUBLIC "-//W3C//DTD SVG 1.1//EN" "http://www.w3.org/Graphics/SVG/1.1/DTD/svg11.dtd"><svg xmlns="http://www.w3.org/2000/svg" version="1.1" width="187" height="53"><path fill="none" stroke="#000000" stroke-width="2" stroke-linecap="round" stroke-linejoin="round" d="M 1 28 c 0.12 -0.28 4.4 -11.28 7 -16 c 0.84 -1.53 3.04 -2.56 4 -4 c 0.91 -1.37 1.01 -4.01 2 -5 c 0.99 -0.99 3.37 -1.73 5 -2 c 2.12 -0.35 5.35 -0.96 7 0 c 5.2 3.03 11.75 8.93 17 14 c 4.73 4.57 8.9 9.68 13 15 c 5.05 6.54 9.39 14.04 14 20 c 0.68 0.88 2.93 2.39 3 2 c 0.36 -2.05 0.27 -12.87 0 -19 c -0.06 -1.33 -1.43 -4.08 -1 -4 c 2.02 0.36 12.16 4.25 18 7 c 5.55 2.61 10.55 6.14 16 9 c 1.6 0.84 3.37 1.7 5 2 c 1.82 0.33 4.89 0.69 6 0 c 0.99 -0.62 1.7 -3.37 2 -5 c 0.33 -1.82 0.69 -4.77 0 -6 c -0.67 -1.2 -3.31 -2.25 -5 -3 c -1.19 -0.53 -4.11 -1 -4 -1 c 1.01 -0.03 26.19 1.35 37 0 c 3.66 -0.46 7.5 -4.83 11 -6 c 1.95 -0.65 5.68 -1.16 7 0 c 5.1 4.46 11.26 14.44 17 21 l 4 3"/></svg>