<?xml version="1.0" encoding="UTF-8" standalone="no"?><!DOCTYPE svg PUBLIC "-//W3C//DTD SVG 1.1//EN" "http://www.w3.org/Graphics/SVG/1.1/DTD/svg11.dtd"><svg xmlns="http://www.w3.org/2000/svg" version="1.1" width="75" height="47"><path fill="none" stroke="#000000" stroke-width="2" stroke-linecap="round" stroke-linejoin="round" d="M 1 1 c 0.35 0.02 14.03 -0.19 20 1 c 3.33 0.67 6.8 3.08 10 5 c 3.49 2.1 6.46 5.23 10 7 c 6.25 3.12 13.66 4.94 20 8 c 3.18 1.54 7.25 3.58 9 6 c 2.05 2.83 5.38 11.39 4 12 c -2.43 1.08 -14.68 -3.06 -22 -4 c -2.95 -0.38 -5.98 -0.18 -9 0 c -2.71 0.16 -5.89 -0.05 -8 1 c -3.92 1.96 -12 9 -12 9"/></svg>