<?xml version="1.0" encoding="UTF-8" standalone="no"?><!DOCTYPE svg PUBLIC "-//W3C//DTD SVG 1.1//EN" "http://www.w3.org/Graphics/SVG/1.1/DTD/svg11.dtd"><svg xmlns="http://www.w3.org/2000/svg" version="1.1" width="159" height="82"><path fill="none" stroke="#000000" stroke-width="2" stroke-linecap="round" stroke-linejoin="round" d="M 158 35 c -1.14 -0.11 -42.88 -4.42 -65 -6 c -6.44 -0.46 -12.85 -0.67 -19 0 c -5.97 0.65 -13.16 1.87 -18 4 c -2.6 1.14 -5.91 4.47 -7 7 c -1.55 3.62 -1.64 9.29 -2 14 c -0.31 4 -0.66 8.37 0 12 c 0.59 3.26 2.07 7.92 4 10 c 1.77 1.91 6 3.12 9 4 c 2.45 0.72 5.99 1.57 8 1 c 1.94 -0.56 5.26 -3.03 6 -5 c 1.82 -4.86 2.43 -12.55 3 -19 c 0.78 -8.73 1.86 -18.67 1 -26 c -0.31 -2.66 -2.93 -6.57 -5 -8 c -2.51 -1.72 -7.38 -2.53 -11 -3 c -3.81 -0.5 -10.45 -1.42 -12 0 c -1.42 1.3 0.29 10.51 0 11 c -0.18 0.3 -1.6 -4.51 -3 -6 c -3.25 -3.46 -7.77 -6.83 -12 -10 c -3.9 -2.93 -7.81 -6.27 -12 -8 c -6.62 -2.73 -22 -6 -22 -6"/></svg>