<?xml version="1.0" encoding="UTF-8" standalone="no"?><!DOCTYPE svg PUBLIC "-//W3C//DTD SVG 1.1//EN" "http://www.w3.org/Graphics/SVG/1.1/DTD/svg11.dtd"><svg xmlns="http://www.w3.org/2000/svg" version="1.1" width="99" height="62"><path fill="none" stroke="#000000" stroke-width="2" stroke-linecap="round" stroke-linejoin="round" d="M 98 1 c -0.26 0.1 -10.33 3.66 -15 6 c -2.49 1.24 -5.21 3.06 -7 5 c -1.96 2.12 -3.9 5.24 -5 8 c -1.45 3.62 -2.32 7.95 -3 12 c -0.66 3.94 -1.32 8.27 -1 12 c 0.31 3.53 1.5 8.18 3 11 c 0.84 1.58 3.23 3.38 5 4 c 3.36 1.19 9.23 2.65 12 2 c 1.78 -0.42 4.28 -3.99 5 -6 c 0.73 -2.05 1.01 -6.74 0 -8 c -1.04 -1.3 -5.35 -1.8 -8 -2 c -6.11 -0.45 -12.59 -0.35 -19 0 c -6.11 0.33 -12.43 0.61 -18 2 c -4.69 1.17 -9.86 3.81 -14 6 c -1.15 0.61 -1.9 2.83 -3 3 c -4.41 0.66 -11.38 -0.39 -17 0 l -12 2"/></svg>