<?xml version="1.0" encoding="UTF-8" standalone="no"?><!DOCTYPE svg PUBLIC "-//W3C//DTD SVG 1.1//EN" "http://www.w3.org/Graphics/SVG/1.1/DTD/svg11.dtd"><svg xmlns="http://www.w3.org/2000/svg" version="1.1" width="135" height="87"><path fill="none" stroke="#000000" stroke-width="2" stroke-linecap="round" stroke-linejoin="round" d="M 15 68 c 0.05 -0.24 2.67 -9.34 3 -14 c 0.65 -9.12 1.39 -19.86 0 -28 c -0.73 -4.29 -4.35 -8.85 -7 -13 c -2.7 -4.21 -8.62 -13.05 -9 -12 c -1 2.81 -2.43 27.97 -1 40 c 0.74 6.2 4.62 13.37 8 19 c 3.38 5.63 8.29 12.02 13 16 c 3.27 2.77 8.55 4.46 13 6 c 5.13 1.77 11.07 3.84 16 4 c 4.28 0.14 10.65 -0.91 14 -3 c 3.65 -2.28 7.83 -7.82 10 -12 c 2.16 -4.16 2.9 -9.87 4 -15 c 0.93 -4.35 1.78 -8.87 2 -13 c 0.1 -1.91 -0.1 -4.54 -1 -6 c -1.46 -2.37 -4.55 -4.95 -7 -7 c -1.45 -1.2 -5 -2.78 -5 -3 c 0 -0.19 3.33 0.92 5 1 c 4.91 0.25 14.88 -0.23 15 0 c 0.11 0.22 -10.02 0.44 -14 2 c -4.68 1.84 -10.66 6.1 -14 9 c -0.83 0.72 -1.59 3.83 -1 4 c 2.13 0.61 10.57 0.63 15 0 c 1.98 -0.28 4.56 -1.72 6 -3 c 1.25 -1.11 2.62 -3.35 3 -5 c 0.52 -2.26 0.54 -5.84 0 -8 c -0.34 -1.35 -1.86 -3.29 -3 -4 c -1.16 -0.73 -5.09 -1.02 -5 -1 c 0.58 0.16 21.66 6.1 33 9 c 3.38 0.87 6.68 1.63 10 2 c 2.61 0.29 5.9 0.65 8 0 c 1.68 -0.52 4.55 -2.37 5 -4 l 3 -25"/></svg>