<?xml version="1.0" encoding="UTF-8" standalone="no"?><!DOCTYPE svg PUBLIC "-//W3C//DTD SVG 1.1//EN" "http://www.w3.org/Graphics/SVG/1.1/DTD/svg11.dtd"><svg xmlns="http://www.w3.org/2000/svg" version="1.1" width="282" height="70"><path fill="none" stroke="#000000" stroke-width="2" stroke-linecap="round" stroke-linejoin="round" d="M 281 69 c -0.51 -0.4 -18.79 -15.97 -29 -23 c -10.27 -7.07 -20.9 -14.22 -32 -19 c -14.72 -6.33 -31.41 -11.21 -47 -15 c -7.3 -1.77 -15.15 -1.64 -23 -2 c -7.14 -0.32 -15.12 -1.29 -21 0 c -3.65 0.8 -7.81 4.41 -11 7 c -1.91 1.55 -4.47 3.89 -5 6 c -1.22 4.88 -1.24 12.57 -1 18 c 0.07 1.62 0.92 4.03 2 5 c 1.79 1.61 5.4 3.39 8 4 c 2.61 0.61 6.96 1.08 9 0 c 2.72 -1.44 5.86 -5.79 8 -9 c 2.39 -3.58 4.79 -7.9 6 -12 c 2.01 -6.83 4.2 -16.58 4 -22 c -0.06 -1.71 -3.14 -4.75 -5 -5 c -10.52 -1.4 -27.49 -1.89 -40 -1 c -5.24 0.37 -11.09 2.82 -16 5 c -3.82 1.7 -7.47 4.45 -11 7 c -2.5 1.8 -5.5 3.94 -7 6 c -0.83 1.14 -1 3.38 -1 5 c 0 3.18 2.57 9.51 1 10 c -5.16 1.61 -21.95 0.46 -33 0 c -5.07 -0.21 -9.86 -1.57 -15 -2 l -21 -1"/></svg>