<?xml version="1.0" encoding="UTF-8" standalone="no"?><!DOCTYPE svg PUBLIC "-//W3C//DTD SVG 1.1//EN" "http://www.w3.org/Graphics/SVG/1.1/DTD/svg11.dtd"><svg xmlns="http://www.w3.org/2000/svg" version="1.1" width="165" height="54"><path fill="none" stroke="#000000" stroke-width="2" stroke-linecap="round" stroke-linejoin="round" d="M 164 19 c -0.19 -0.1 -7.22 -4.55 -11 -6 c -4.69 -1.8 -10.07 -3.3 -15 -4 c -4.13 -0.59 -9.75 -1.27 -13 0 c -3.36 1.32 -7.09 5.74 -10 9 c -2.64 2.95 -5.48 6.45 -7 10 c -3.27 7.64 -4.67 22.4 -8 25 c -2.1 1.64 -10.6 -4.03 -15 -7 c -6.6 -4.46 -12.25 -10.94 -19 -16 c -10.94 -8.2 -24.78 -16.23 -33 -23 c -1.04 -0.86 -1.49 -4.39 -1 -5 c 0.48 -0.6 3.62 -0.34 5 0 c 1 0.25 3.15 2.01 3 2 c -0.6 -0.05 -9.34 -2.59 -14 -3 c -6.5 -0.57 -14.25 -0.69 -20 0 c -1.68 0.2 -5.18 2.21 -5 3 c 0.28 1.25 4.53 5.34 7 6 c 5.09 1.37 19 1 19 1"/></svg>