<?xml version="1.0" encoding="UTF-8" standalone="no"?><!DOCTYPE svg PUBLIC "-//W3C//DTD SVG 1.1//EN" "http://www.w3.org/Graphics/SVG/1.1/DTD/svg11.dtd"><svg xmlns="http://www.w3.org/2000/svg" version="1.1" width="236" height="106"><path fill="none" stroke="#000000" stroke-width="2" stroke-linecap="round" stroke-linejoin="round" d="M 2 68 c -0.02 -0.24 -1.63 -9.7 -1 -14 c 0.94 -6.4 3.35 -13.94 6 -20 c 1.83 -4.19 5.04 -8.21 8 -12 c 3.05 -3.9 6.86 -7.12 10 -11 c 2.58 -3.19 5.17 -9.08 7 -10 c 0.96 -0.48 3.54 2.54 5 4 c 1.14 1.14 1.77 3 3 4 c 5.46 4.42 11.75 8.67 18 13 c 2.66 1.84 5.27 3.73 8 5 c 2.1 0.98 4.69 1.77 7 2 c 4.13 0.41 9.17 0.6 13 0 c 1.98 -0.31 4.43 -1.66 6 -3 c 2.81 -2.41 6.52 -9.12 8 -9 c 1.32 0.11 3.04 6.55 4 10 c 2.38 8.56 3.08 17.88 6 26 c 2.94 8.17 7.57 16.2 12 24 c 2.61 4.6 5.54 9.26 9 13 c 4.66 5.03 10.85 10.91 16 14 c 2.19 1.31 6.23 1.17 9 1 c 2.23 -0.14 5.09 -0.91 7 -2 c 2.42 -1.38 5.27 -3.89 7 -6 c 1.01 -1.24 0.95 -3.78 2 -5 c 2.62 -3.05 6.37 -6.75 10 -9 c 5.67 -3.52 12.8 -6.7 19 -9 c 2.38 -0.88 5.38 -1 8 -1 c 3.27 0 7.15 -0.1 10 1 l 16 9"/></svg>