<?xml version="1.0" encoding="UTF-8" standalone="no"?><!DOCTYPE svg PUBLIC "-//W3C//DTD SVG 1.1//EN" "http://www.w3.org/Graphics/SVG/1.1/DTD/svg11.dtd"><svg xmlns="http://www.w3.org/2000/svg" version="1.1" width="260" height="98"><path fill="none" stroke="#000000" stroke-width="2" stroke-linecap="round" stroke-linejoin="round" d="M 259 97 c -0.07 -0.03 -2.93 -1.09 -4 -2 c -3.05 -2.58 -5.68 -6.32 -9 -9 c -15.83 -12.78 -31.28 -24.9 -48 -37 c -9.18 -6.64 -18.26 -12.79 -28 -18 c -9.57 -5.12 -19.59 -8.99 -30 -13 c -11.78 -4.53 -23.12 -8.84 -35 -12 c -9.45 -2.51 -19.29 -4.26 -29 -5 c -12.21 -0.93 -24.4 -0.41 -37 0 c -8.2 0.27 -16.16 0.99 -24 2 c -2.37 0.31 -4.95 1.07 -7 2 c -1.41 0.64 -2.73 1.91 -4 3 c -1.08 0.92 -2.61 1.96 -3 3 l 0 5"/></svg>