<?xml version="1.0" encoding="UTF-8" standalone="no"?><!DOCTYPE svg PUBLIC "-//W3C//DTD SVG 1.1//EN" "http://www.w3.org/Graphics/SVG/1.1/DTD/svg11.dtd"><svg xmlns="http://www.w3.org/2000/svg" version="1.1" width="190" height="66"><path fill="none" stroke="#000000" stroke-width="2" stroke-linecap="round" stroke-linejoin="round" d="M 189 65 c -0.04 -0.46 -0.27 -18.11 -2 -26 c -1.1 -5.01 -4.17 -10.58 -7 -15 c -2.3 -3.59 -5.69 -7.1 -9 -10 c -4.58 -4.01 -9.96 -8.95 -15 -11 c -4.64 -1.88 -11.77 -2.34 -17 -2 c -4.45 0.29 -10.68 1.69 -14 4 c -3.42 2.38 -6.77 7.91 -9 12 c -1.55 2.85 -2.48 6.65 -3 10 c -0.79 5.14 -1.87 12.85 -1 16 c 0.35 1.24 4.72 2.16 6 2 c 0.73 -0.09 1.61 -1.97 2 -3 c 0.55 -1.46 1.49 -4.03 1 -5 c -0.56 -1.11 -3.26 -2.53 -5 -3 c -5.15 -1.4 -11.27 -2.76 -17 -3 c -26.53 -1.09 -57.35 -1.27 -80 -1 c -1.02 0.01 -2.66 1.2 -3 2 c -0.47 1.11 -0.47 3.89 0 5 c 0.34 0.8 2.68 2.38 3 2 c 0.72 -0.87 1.65 -5.36 2 -8 c 0.3 -2.24 0.77 -5.33 0 -7 c -0.93 -2.02 -3.88 -4.69 -6 -6 c -1.82 -1.12 -4.71 -1.62 -7 -2 c -1.57 -0.26 -4.12 -0.63 -5 0 c -0.95 0.68 -1.7 3.37 -2 5 l 0 6"/></svg>