<?xml version="1.0" encoding="UTF-8" standalone="no"?><!DOCTYPE svg PUBLIC "-//W3C//DTD SVG 1.1//EN" "http://www.w3.org/Graphics/SVG/1.1/DTD/svg11.dtd"><svg xmlns="http://www.w3.org/2000/svg" version="1.1" width="151" height="96"><path fill="none" stroke="#000000" stroke-width="2" stroke-linecap="round" stroke-linejoin="round" d="M 150 35 c -0.02 -0.16 -0.29 -6.16 -1 -9 c -0.92 -3.67 -2.33 -7.65 -4 -11 c -1.23 -2.46 -2.97 -5.42 -5 -7 c -3.49 -2.71 -8.82 -5.78 -13 -7 c -3.11 -0.91 -8.12 -0.85 -11 0 c -2.04 0.6 -5.35 2.98 -6 5 c -2.46 7.6 -4.3 19.41 -5 29 c -0.62 8.48 -0.12 17.6 1 26 c 0.85 6.34 2.94 12.83 5 19 c 1.27 3.8 3.07 7.79 5 11 c 0.9 1.5 3.87 4.48 4 4 c 0.43 -1.61 1.2 -13.53 0 -19 c -0.93 -4.25 -3.97 -9.72 -7 -13 c -4.39 -4.76 -11.03 -8.9 -17 -13 c -5.89 -4.04 -11.91 -9.39 -18 -11 c -10.14 -2.68 -26.89 -3 -35 -3 c -0.83 0 -1.12 2.72 -2 3 c -3.46 1.08 -9.28 1.73 -14 2 c -7.01 0.4 -15.59 -1.04 -21 0 l -5 5"/></svg>