<?xml version="1.0" encoding="UTF-8" standalone="no"?><!DOCTYPE svg PUBLIC "-//W3C//DTD SVG 1.1//EN" "http://www.w3.org/Graphics/SVG/1.1/DTD/svg11.dtd"><svg xmlns="http://www.w3.org/2000/svg" version="1.1" width="207" height="65"><path fill="none" stroke="#000000" stroke-width="2" stroke-linecap="round" stroke-linejoin="round" d="M 55 64 c 0 -0.52 1.62 -22.52 0 -30 c -0.57 -2.65 -5.05 -5.39 -8 -7 c -7.58 -4.13 -17.38 -9.19 -25 -11 c -3.67 -0.87 -8.83 1.07 -13 2 c -1.71 0.38 -3.75 1.07 -5 2 c -1.16 0.87 -2.81 2.62 -3 4 c -0.68 4.96 -0.83 13.64 0 18 c 0.23 1.21 2.56 2.41 4 3 c 3.92 1.61 8.66 3.22 13 4 c 4.8 0.86 11.45 2.45 15 1 c 4.01 -1.63 8.19 -7.72 12 -12 c 4.31 -4.85 8.32 -9.81 12 -15 c 1.97 -2.78 3.74 -5.95 5 -9 c 1.01 -2.45 1.81 -5.53 2 -8 c 0.12 -1.53 -0.15 -4.47 -1 -5 c -1.17 -0.73 -5.55 -0.64 -7 0 c -0.93 0.41 -2.17 2.89 -2 4 c 0.38 2.45 1.92 7.62 4 9 c 3.74 2.49 11.27 3.94 17 5 c 6.82 1.26 13.78 1.59 21 2 c 10.96 0.62 21.55 1.24 32 1 c 3.65 -0.08 7.33 -1.65 11 -2 c 3.28 -0.31 6.68 0.29 10 0 c 4.36 -0.38 8.63 -1.77 13 -2 c 8.31 -0.44 16.71 -0.57 25 0 l 19 3"/></svg>