<?xml version="1.0" encoding="UTF-8" standalone="no"?><!DOCTYPE svg PUBLIC "-//W3C//DTD SVG 1.1//EN" "http://www.w3.org/Graphics/SVG/1.1/DTD/svg11.dtd"><svg xmlns="http://www.w3.org/2000/svg" version="1.1" width="122" height="41"><path fill="none" stroke="#000000" stroke-width="2" stroke-linecap="round" stroke-linejoin="round" d="M 1 40 c 0.18 -0.05 6.87 -1.6 10 -3 c 6.44 -2.89 12.71 -6.25 19 -10 c 13.17 -7.86 34.56 -21.21 38 -24 c 0.48 -0.39 -4.4 -2.15 -6 -2 c -1.47 0.13 -3.31 2.25 -5 3 c -1.19 0.53 -4.18 0.7 -4 1 c 0.35 0.59 4.57 3.15 7 4 c 4.98 1.73 10.48 2.92 16 4 c 10.18 1.99 20.09 2.97 30 5 c 3.09 0.63 6.08 2.42 9 3 l 6 0"/></svg>