<?xml version="1.0" encoding="UTF-8" standalone="no"?><!DOCTYPE svg PUBLIC "-//W3C//DTD SVG 1.1//EN" "http://www.w3.org/Graphics/SVG/1.1/DTD/svg11.dtd"><svg xmlns="http://www.w3.org/2000/svg" version="1.1" width="157" height="42"><path fill="none" stroke="#000000" stroke-width="2" stroke-linecap="round" stroke-linejoin="round" d="M 156 37 c -0.28 -0.05 -10.63 -1.69 -16 -3 c -7.21 -1.75 -13.84 -4.57 -21 -6 c -9.6 -1.92 -19.21 -3.49 -29 -4 c -16.05 -0.83 -33.36 -1.22 -48 0 c -3.96 0.33 -9.76 2.93 -12 5 c -1.22 1.13 -1.89 5.81 -1 7 c 1.41 1.89 6.76 4.19 10 5 c 2.89 0.72 7.34 0.71 10 0 c 1.7 -0.45 4.45 -2.44 5 -4 c 1.12 -3.18 1.34 -8.95 1 -13 c -0.3 -3.54 -0.96 -8.74 -3 -11 c -3.38 -3.73 -10.6 -8.73 -16 -10 c -10.04 -2.36 -31.39 -2.11 -35 -2 l 2 3"/></svg>