<?xml version="1.0" encoding="UTF-8" standalone="no"?><!DOCTYPE svg PUBLIC "-//W3C//DTD SVG 1.1//EN" "http://www.w3.org/Graphics/SVG/1.1/DTD/svg11.dtd"><svg xmlns="http://www.w3.org/2000/svg" version="1.1" width="213" height="61"><path fill="none" stroke="#000000" stroke-width="2" stroke-linecap="round" stroke-linejoin="round" d="M 212 4 c -0.37 -0.05 -13.93 -2.52 -21 -3 c -7.67 -0.52 -15.43 -0.99 -23 0 c -30.69 4 -63.09 9.16 -92 15 c -4.16 0.84 -8.29 3.73 -12 6 c -2.16 1.32 -5.31 3.15 -6 5 c -0.97 2.6 -0.36 7.44 0 11 c 0.3 2.99 0.87 6.42 2 9 c 1.05 2.41 3.08 5.08 5 7 c 2.23 2.23 6.26 6.35 8 6 c 1.98 -0.4 6.23 -6.04 7 -9 c 0.95 -3.65 1.06 -11.18 -1 -14 c -3.17 -4.34 -11.94 -9.67 -18 -12 c -5.95 -2.29 -13.93 -2.47 -21 -3 c -6.33 -0.47 -12.78 -0.43 -19 0 c -3.34 0.23 -7.05 0.82 -10 2 l -10 6"/></svg>