<?xml version="1.0" encoding="UTF-8" standalone="no"?><!DOCTYPE svg PUBLIC "-//W3C//DTD SVG 1.1//EN" "http://www.w3.org/Graphics/SVG/1.1/DTD/svg11.dtd"><svg xmlns="http://www.w3.org/2000/svg" version="1.1" width="329" height="86"><path fill="none" stroke="#000000" stroke-width="2" stroke-linecap="round" stroke-linejoin="round" d="M 1 85 c 0.67 -0.94 24.54 -35.77 38 -54 c 7.83 -10.61 19.42 -25.75 24 -30 c 0.67 -0.63 3.52 2.46 4 4 c 2.44 7.82 3.56 18.96 6 28 c 0.84 3.11 2.31 6.47 4 9 c 1.45 2.18 3.84 4.92 6 6 c 2.59 1.3 6.67 1.68 10 2 c 3.59 0.34 7.35 0.3 11 0 c 4.36 -0.36 9.99 0.04 13 -2 c 5.99 -4.06 12.05 -12.48 18 -19 c 1.14 -1.25 2.32 -2.63 3 -4 c 0.56 -1.13 0.2 -3.87 1 -4 c 3.29 -0.55 11.5 0.31 17 1 c 2.35 0.29 4.78 1.09 7 2 c 3.4 1.4 6.69 4.01 10 5 l 10 1"/><path fill="none" stroke="#000000" stroke-width="2" stroke-linecap="round" stroke-linejoin="round" d="M 328 70 c -0.19 -0.1 -7.24 -4.46 -11 -6 c -3.42 -1.4 -7.3 -2.38 -11 -3 c -4.23 -0.7 -8.55 -0.86 -13 -1 c -6.14 -0.2 -12.2 -0.26 -18 0 c -1.33 0.06 -2.82 0.49 -4 1 c -1.03 0.44 -3 1.39 -3 2 c 0 0.84 1.83 3.41 3 4 c 1.66 0.83 5.94 1.67 7 1 c 0.92 -0.57 1.85 -5 1 -6 c -1.93 -2.28 -7.84 -5 -12 -7 c -4.17 -2 -8.69 -4.35 -13 -5 c -8.37 -1.26 -27 -1 -27 -1"/></svg>