<?xml version="1.0" encoding="UTF-8" standalone="no"?><!DOCTYPE svg PUBLIC "-//W3C//DTD SVG 1.1//EN" "http://www.w3.org/Graphics/SVG/1.1/DTD/svg11.dtd"><svg xmlns="http://www.w3.org/2000/svg" version="1.1" width="219" height="82"><path fill="none" stroke="#000000" stroke-width="2" stroke-linecap="round" stroke-linejoin="round" d="M 218 81 c 0 -0.63 1.7 -26.25 0 -36 c -0.6 -3.47 -5.06 -6.91 -8 -10 c -3.74 -3.92 -7.66 -9 -12 -11 c -6.86 -3.15 -17.83 -5.04 -25 -6 c -1.5 -0.2 -4.93 1.04 -5 2 c -0.16 2.08 2.27 7.93 4 11 c 1.04 1.86 3.22 3.57 5 5 c 1.47 1.18 4.71 3 5 3 c 0.18 0 -1.09 -2.41 -2 -3 c -9.38 -6.07 -20.95 -14.69 -32 -19 c -15.34 -5.98 -33.14 -9.63 -50 -13 c -9.84 -1.97 -19.8 -2.41 -30 -3 c -7.44 -0.43 -15.76 -1.04 -22 0 c -2.68 0.45 -7.36 3.21 -8 5 c -0.64 1.8 1.36 6.95 3 9 c 1.87 2.33 5.84 4.35 9 6 c 4.45 2.32 9.23 4.41 14 6 c 4.18 1.39 13.36 2.96 13 3 c -1.37 0.15 -33.49 -0.3 -50 1 c -8.74 0.69 -25.46 4.85 -26 5 c -0.16 0.05 5.81 0.87 8 0 c 6.85 -2.74 22 -12 22 -12"/></svg>