<?xml version="1.0" encoding="UTF-8" standalone="no"?><!DOCTYPE svg PUBLIC "-//W3C//DTD SVG 1.1//EN" "http://www.w3.org/Graphics/SVG/1.1/DTD/svg11.dtd"><svg xmlns="http://www.w3.org/2000/svg" version="1.1" width="130" height="53"><path fill="none" stroke="#000000" stroke-width="2" stroke-linecap="round" stroke-linejoin="round" d="M 129 36 c -0.31 -0.19 -12.05 -8.33 -18 -11 c -3.15 -1.41 -7.32 -1.72 -11 -2 c -4.93 -0.38 -10.2 -0.62 -15 0 c -5.28 0.68 -11.13 2.18 -16 4 c -2.78 1.04 -5.62 3.07 -8 5 c -2.85 2.32 -5.58 5.18 -8 8 c -1.54 1.8 -3.16 3.98 -4 6 c -0.71 1.7 -1.03 6.1 -1 6 c 0.05 -0.15 1.75 -6.01 2 -9 c 0.41 -4.87 0.49 -10.1 0 -15 c -0.5 -4.99 -1.09 -11.36 -3 -15 c -1.25 -2.38 -5.18 -4.37 -8 -6 c -3.41 -1.97 -7.34 -4.31 -11 -5 c -6.36 -1.19 -15.04 -1.46 -21 -1 c -1.65 0.13 -4 1.84 -5 3 l -1 4"/></svg>