<?xml version="1.0" encoding="UTF-8" standalone="no"?><!DOCTYPE svg PUBLIC "-//W3C//DTD SVG 1.1//EN" "http://www.w3.org/Graphics/SVG/1.1/DTD/svg11.dtd"><svg xmlns="http://www.w3.org/2000/svg" version="1.1" width="56" height="46"><path fill="none" stroke="#000000" stroke-width="2" stroke-linecap="round" stroke-linejoin="round" d="M 55 25 c -0.12 -0.14 -4.41 -5.87 -7 -8 c -2.84 -2.34 -6.52 -4.41 -10 -6 c -4.43 -2.03 -9.46 -4.09 -14 -5 c -3.36 -0.67 -7.86 -0.7 -11 0 c -2.3 0.51 -5.7 2.23 -7 4 c -1.88 2.56 -3.39 7.34 -4 11 c -0.99 5.95 -2.48 15.07 -1 19 c 0.87 2.31 6.82 4.01 10 5 c 1.71 0.53 4.37 0.58 6 0 c 2.56 -0.91 6.65 -2.83 8 -5 c 2.39 -3.86 4.14 -10.68 5 -16 c 1.08 -6.67 1.43 -16.07 1 -21 c -0.07 -0.84 -1.98 -1.88 -3 -2 c -3.96 -0.47 -10.04 -0.47 -14 0 l -3 2"/></svg>