<?xml version="1.0" encoding="UTF-8" standalone="no"?><!DOCTYPE svg PUBLIC "-//W3C//DTD SVG 1.1//EN" "http://www.w3.org/Graphics/SVG/1.1/DTD/svg11.dtd"><svg xmlns="http://www.w3.org/2000/svg" version="1.1" width="234" height="20"><path fill="none" stroke="#000000" stroke-width="2" stroke-linecap="round" stroke-linejoin="round" d="M 233 19 c -0.24 0 -9.53 0.66 -14 0 c -6.58 -0.97 -13.11 -3.85 -20 -5 c -29.75 -4.96 -59.52 -9.51 -88 -13 c -3.22 -0.39 -7.65 -0.3 -10 1 c -2.81 1.56 -5.13 6.97 -8 9 c -2.26 1.6 -5.99 2.45 -9 3 c -4.14 0.75 -8.55 0.84 -13 1 c -4.78 0.18 -9.63 0.85 -14 0 c -8.79 -1.71 -17.85 -5.71 -27 -8 c -4.27 -1.07 -8.54 -1.49 -13 -2 c -4.42 -0.51 -9.41 -1.22 -13 -1 l -3 2"/></svg>