<?xml version="1.0" encoding="UTF-8" standalone="no"?><!DOCTYPE svg PUBLIC "-//W3C//DTD SVG 1.1//EN" "http://www.w3.org/Graphics/SVG/1.1/DTD/svg11.dtd"><svg xmlns="http://www.w3.org/2000/svg" version="1.1" width="265" height="92"><path fill="none" stroke="#000000" stroke-width="2" stroke-linecap="round" stroke-linejoin="round" d="M 1 91 c 0.3 0 11.64 0.85 17 0 c 6.88 -1.09 13.9 -3.69 21 -6 c 6.58 -2.14 13.38 -3.77 19 -7 c 9.55 -5.49 19.56 -12.56 28 -20 c 8.33 -7.35 15.87 -16.24 23 -25 c 4.54 -5.58 8.29 -11.75 12 -18 c 2.69 -4.52 6.08 -14.55 7 -14 c 1.18 0.71 1.45 13.6 3 20 c 1.07 4.41 3.05 8.75 5 13 c 1.75 3.82 3.67 7.67 6 11 c 2.24 3.2 5.21 6.21 8 9 c 1.16 1.16 2.6 2.22 4 3 c 1.51 0.84 3.88 2.48 5 2 c 2.51 -1.08 6.47 -5.01 9 -8 c 4.67 -5.52 9.84 -17.18 13 -18 c 2.22 -0.58 6.29 8.29 10 12 c 9.41 9.41 18.96 18.22 29 27 c 3.44 3.01 7.23 5.69 11 8 c 2.11 1.29 4.7 2.69 7 3 c 4.53 0.62 10.89 0.93 15 0 c 2.36 -0.54 4.67 -3.73 7 -5 l 4 -1"/></svg>