<?xml version="1.0" encoding="UTF-8" standalone="no"?><!DOCTYPE svg PUBLIC "-//W3C//DTD SVG 1.1//EN" "http://www.w3.org/Graphics/SVG/1.1/DTD/svg11.dtd"><svg xmlns="http://www.w3.org/2000/svg" version="1.1" width="103" height="53"><path fill="none" stroke="#000000" stroke-width="2" stroke-linecap="round" stroke-linejoin="round" d="M 102 1 c -0.45 0.09 -18.64 1.87 -26 5 c -7.17 3.05 -14.55 9.59 -21 15 c -3.72 3.12 -7.54 7.22 -10 11 c -1.57 2.42 -2.45 6.07 -3 9 c -0.41 2.16 -0.51 5.12 0 7 c 0.37 1.34 2.59 4.34 3 4 c 0.78 -0.65 2.51 -6.06 3 -9 c 0.46 -2.79 0.41 -6.35 0 -9 c -0.2 -1.32 -1 -3.54 -2 -4 c -2.5 -1.16 -7.33 -1.67 -11 -2 c -3.61 -0.33 -7.39 -0.33 -11 0 c -3.67 0.33 -7.5 1.03 -11 2 c -2.38 0.66 -4.75 2.44 -7 3 l -5 0"/></svg>