<?xml version="1.0" encoding="UTF-8" standalone="no"?><!DOCTYPE svg PUBLIC "-//W3C//DTD SVG 1.1//EN" "http://www.w3.org/Graphics/SVG/1.1/DTD/svg11.dtd"><svg xmlns="http://www.w3.org/2000/svg" version="1.1" width="244" height="51"><path fill="none" stroke="#000000" stroke-width="2" stroke-linecap="round" stroke-linejoin="round" d="M 243 19 c -0.1 0 -4.23 0.58 -6 0 c -14.48 -4.73 -30.93 -14.14 -46 -17 c -15.06 -2.85 -33.59 -2.12 -49 -1 c -6.57 0.48 -15.05 2.93 -20 6 c -3.56 2.21 -6.93 7.85 -9 12 c -2.01 4.03 -3.34 9.4 -4 14 c -0.63 4.42 -0.47 10.04 0 14 c 0.12 1.02 1.92 3.26 2 3 c 0.28 -0.92 1.38 -9.16 1 -13 c -0.22 -2.25 -1.68 -5.18 -3 -7 c -1.11 -1.53 -3.17 -3.48 -5 -4 c -8.73 -2.49 -20.24 -4.94 -30 -6 c -5.12 -0.56 -11.13 -0.14 -16 1 c -4.63 1.08 -9.58 3.62 -14 6 c -4.19 2.25 -8.8 5.26 -12 8 c -0.99 0.85 -1 3.69 -2 4 c -3.14 0.98 -9.41 1.16 -14 1 l -15 -2"/></svg>