<?xml version="1.0" encoding="UTF-8" standalone="no"?><!DOCTYPE svg PUBLIC "-//W3C//DTD SVG 1.1//EN" "http://www.w3.org/Graphics/SVG/1.1/DTD/svg11.dtd"><svg xmlns="http://www.w3.org/2000/svg" version="1.1" width="223" height="73"><path fill="none" stroke="#000000" stroke-width="2" stroke-linecap="round" stroke-linejoin="round" d="M 1 57 c 0.05 -0.56 1.57 -21.18 3 -32 c 0.95 -7.19 2.42 -14.66 4 -21 c 0.27 -1.07 1.74 -3.36 2 -3 c 2.06 2.84 8.86 16.97 14 25 c 3.2 4.99 7.01 9.82 11 14 c 2.87 3 6.55 6.1 10 8 c 2.81 1.55 6.83 2.67 10 3 c 2.75 0.29 8.03 0.73 9 -1 c 3.46 -6.16 6.61 -20.57 9 -31 c 1.27 -5.53 0.83 -13.5 2 -17 c 0.28 -0.84 3.2 -1.55 4 -1 c 3.29 2.26 7.58 9.35 12 12 c 6.44 3.86 15.16 6.52 23 9 c 5.85 1.85 12.56 2.12 18 4 c 2.78 0.96 5.17 3.63 8 5 c 6.85 3.31 14.61 5.14 21 9 c 12.66 7.64 24.38 17.76 37 26 c 3.75 2.45 10.33 6.64 12 6 c 1.38 -0.53 1 -7.3 1 -11 c 0 -8.05 -1.25 -17.28 -1 -24 c 0.04 -1.01 1.14 -2.71 2 -3 l 10 -1"/></svg>