<?xml version="1.0" encoding="UTF-8" standalone="no"?><!DOCTYPE svg PUBLIC "-//W3C//DTD SVG 1.1//EN" "http://www.w3.org/Graphics/SVG/1.1/DTD/svg11.dtd"><svg xmlns="http://www.w3.org/2000/svg" version="1.1" width="159" height="53"><path fill="none" stroke="#000000" stroke-width="2" stroke-linecap="round" stroke-linejoin="round" d="M 158 23 c -0.05 -0.07 -1.85 -2.85 -3 -4 c -2.12 -2.12 -4.45 -4.51 -7 -6 c -5.19 -3.03 -11.25 -6.53 -17 -8 c -9.26 -2.36 -20.27 -3.82 -30 -4 c -7.77 -0.14 -16.61 0.98 -24 3 c -6.7 1.83 -15.46 4.91 -20 9 c -4.26 3.84 -8.14 12.25 -10 18 c -1.17 3.63 -1.21 9.81 0 13 c 1.06 2.78 5.29 6.79 8 8 c 2.4 1.07 7.79 1.1 10 0 c 2.21 -1.1 5.13 -5.27 6 -8 c 1.22 -3.83 1 -9.33 1 -14 c 0 -4.01 0.85 -9.93 -1 -12 c -2.68 -3 -10.72 -6.42 -16 -7 c -14.51 -1.59 -33.69 -0.55 -48 0 c -1.33 0.05 -3.12 1.12 -4 2 l -2 4"/></svg>