<?xml version="1.0" encoding="UTF-8" standalone="no"?><!DOCTYPE svg PUBLIC "-//W3C//DTD SVG 1.1//EN" "http://www.w3.org/Graphics/SVG/1.1/DTD/svg11.dtd"><svg xmlns="http://www.w3.org/2000/svg" version="1.1" width="125" height="37"><path fill="none" stroke="#000000" stroke-width="2" stroke-linecap="round" stroke-linejoin="round" d="M 7 27 c 0 -0.44 0.77 -20 0 -25 c -0.13 -0.82 -3.48 -1.52 -4 -1 c -0.92 0.92 -1.9 4.73 -2 7 c -0.22 5 -0.64 12.39 1 16 c 1.11 2.44 5.83 4.81 9 6 c 6.96 2.61 15.51 4.45 23 6 c 1.89 0.39 4.14 0.31 6 0 c 1.96 -0.33 4.52 -1.07 6 -2 c 0.84 -0.53 1.89 -1.98 2 -3 c 0.47 -4.24 -1.02 -13.1 0 -15 c 0.5 -0.92 4.97 0.9 7 2 c 5.64 3.06 11.18 8.34 17 11 c 5.37 2.46 12.51 4.39 18 5 c 2.71 0.3 6.29 -0.84 9 -2 c 6.32 -2.71 12.58 -6.92 19 -10 l 6 -2"/></svg>