<?xml version="1.0" encoding="UTF-8" standalone="no"?><!DOCTYPE svg PUBLIC "-//W3C//DTD SVG 1.1//EN" "http://www.w3.org/Graphics/SVG/1.1/DTD/svg11.dtd"><svg xmlns="http://www.w3.org/2000/svg" version="1.1" width="85" height="101"><path fill="none" stroke="#000000" stroke-width="2" stroke-linecap="round" stroke-linejoin="round" d="M 68 63 c 0.17 -0.45 7.02 -17.05 10 -26 c 2.44 -7.33 4.47 -14.86 6 -22 c 0.4 -1.88 0.66 -4.47 0 -6 c -1.1 -2.56 -3.9 -6.71 -6 -8 c -1.47 -0.91 -5.54 -0.94 -7 0 c -2.38 1.53 -6.53 5.82 -7 9 c -2.42 16.2 -2.33 38.02 -3 58 c -0.37 11.01 -0.02 31.44 0 32 c 0.01 0.14 0.91 -5.29 1 -8 c 0.24 -7.05 0.95 -14.37 0 -21 c -0.99 -6.9 -3.51 -14.66 -6 -21 c -0.98 -2.5 -3.07 -5.07 -5 -7 c -2.56 -2.56 -6.03 -5.96 -9 -7 c -2.87 -1 -8.18 -0.61 -11 0 c -1.09 0.23 -1.91 2.93 -3 3 c -6.97 0.46 -27 -1 -27 -1"/></svg>