<?xml version="1.0" encoding="UTF-8" standalone="no"?><!DOCTYPE svg PUBLIC "-//W3C//DTD SVG 1.1//EN" "http://www.w3.org/Graphics/SVG/1.1/DTD/svg11.dtd"><svg xmlns="http://www.w3.org/2000/svg" version="1.1" width="114" height="46"><path fill="none" stroke="#000000" stroke-width="2" stroke-linecap="round" stroke-linejoin="round" d="M 97 16 c 0.21 -0.09 8.95 -2.9 12 -5 c 1.69 -1.16 4 -4.58 4 -6 c 0 -1.11 -2.62 -3.45 -4 -4 c -1.46 -0.58 -4.18 -0.33 -6 0 c -1.63 0.3 -4.27 0.83 -5 2 c -2.01 3.22 -4.31 9.42 -5 14 c -0.89 5.86 -0.26 12.77 0 19 c 0.07 1.67 0.23 3.85 1 5 c 0.97 1.45 3.37 3.35 5 4 c 1.28 0.51 4.02 0.56 5 0 c 0.88 -0.5 1.71 -2.65 2 -4 c 0.65 -3.04 1.17 -6.87 1 -10 c -0.14 -2.57 -0.57 -6.35 -2 -8 c -2.27 -2.62 -7.28 -5.8 -11 -7 c -4.89 -1.57 -11.24 -1.81 -17 -2 c -14.82 -0.49 -29.8 -0.3 -44 0 c -1.33 0.03 -4.09 0.82 -4 1 c 0.11 0.22 5.11 0.99 5 1 c -0.46 0.03 -13.95 0.24 -21 0 c -2.71 -0.09 -5.71 -1.19 -8 -1 c -1.27 0.11 -3.59 1.07 -4 2 c -0.64 1.45 -0.47 4.97 0 7 c 0.45 1.95 1.62 4.87 3 6 c 1.76 1.44 5.6 3 8 3 l 11 -3"/></svg>