<?xml version="1.0" encoding="UTF-8" standalone="no"?><!DOCTYPE svg PUBLIC "-//W3C//DTD SVG 1.1//EN" "http://www.w3.org/Graphics/SVG/1.1/DTD/svg11.dtd"><svg xmlns="http://www.w3.org/2000/svg" version="1.1" width="223" height="97"><path fill="none" stroke="#000000" stroke-width="2" stroke-linecap="round" stroke-linejoin="round" d="M 6 43 c 0.19 -0.28 7.78 -10.36 11 -16 c 4.83 -8.44 13.78 -23.02 13 -26 c -0.51 -1.97 -15.7 -0.06 -19 3 c -4.24 3.93 -7.57 15.42 -9 23 c -1.74 9.21 -2.96 23.6 -1 30 c 0.87 2.86 8 5.42 12 6 c 10.74 1.57 25.82 2.45 36 1 c 4.31 -0.62 9.78 -4.78 13 -8 c 3.22 -3.22 6.4 -8.73 8 -13 c 1.16 -3.09 1 -11.19 1 -11 c 0 0.37 -2.2 14.86 -1 21 c 1.25 6.41 5.1 14.54 9 20 c 3.9 5.46 10.35 11.61 16 15 c 5.13 3.08 12.6 4.58 19 6 c 5.5 1.22 11.25 1.59 17 2 c 3.7 0.26 8.28 1.25 11 0 c 4.21 -1.93 8.63 -7.65 13 -11 c 1.15 -0.88 2.64 -1.78 4 -2 c 6.43 -1.03 13.85 -1.59 21 -2 c 4.74 -0.27 9.41 -0.55 14 0 c 9.33 1.11 28 5 28 5"/></svg>