<?xml version="1.0" encoding="UTF-8" standalone="no"?><!DOCTYPE svg PUBLIC "-//W3C//DTD SVG 1.1//EN" "http://www.w3.org/Graphics/SVG/1.1/DTD/svg11.dtd"><svg xmlns="http://www.w3.org/2000/svg" version="1.1" width="197" height="55"><path fill="none" stroke="#000000" stroke-width="2" stroke-linecap="round" stroke-linejoin="round" d="M 196 8 c -0.1 0 -4.04 0.29 -6 0 c -11.29 -1.69 -22.38 -4.19 -34 -6 c -3.72 -0.58 -7.25 -0.78 -11 -1 c -2.04 -0.12 -4.45 -0.56 -6 0 c -1.65 0.6 -4.34 2.54 -5 4 c -0.72 1.59 -0.41 4.84 0 7 c 0.55 2.93 1.43 6.65 3 9 c 2.11 3.16 5.67 7.03 9 9 c 5.05 2.99 14.62 6.66 18 7 c 0.94 0.09 2 -3.49 2 -5 c 0 -2.31 -0.45 -6.38 -2 -8 c -4.16 -4.37 -11.86 -10.99 -18 -13 c -8.62 -2.81 -20.45 -2.39 -31 -3 c -7.11 -0.41 -14.26 -0.73 -21 0 c -5.29 0.57 -11.16 1.91 -16 4 c -7.09 3.07 -14.53 7.38 -21 12 c -7.4 5.29 -13.55 13.34 -21 18 c -7.96 4.97 -20.01 10.6 -27 12 c -2.23 0.45 -8.05 -3.05 -8 -5 c 0.19 -6.87 9 -32 9 -32"/></svg>