<?xml version="1.0" encoding="UTF-8" standalone="no"?><!DOCTYPE svg PUBLIC "-//W3C//DTD SVG 1.1//EN" "http://www.w3.org/Graphics/SVG/1.1/DTD/svg11.dtd"><svg xmlns="http://www.w3.org/2000/svg" version="1.1" width="211" height="78"><path fill="none" stroke="#000000" stroke-width="2" stroke-linecap="round" stroke-linejoin="round" d="M 105 1 c -0.89 0.02 -33.63 0.05 -51 1 c -13.69 0.75 -28.14 1.63 -40 4 c -3.44 0.69 -7.69 3.69 -10 6 c -1.51 1.51 -2.57 4.72 -3 7 c -0.51 2.7 -1.11 6.7 0 9 c 3.29 6.79 9.25 15.93 15 22 c 5.71 6.02 13.74 11.23 21 16 c 4.31 2.83 9.22 5.36 14 7 c 5.63 1.93 12.06 3.12 18 4 c 2.9 0.43 7.96 1.49 9 0 c 2.39 -3.42 4 -13.42 5 -20 c 0.63 -4.15 -2.17 -12.33 0 -13 c 7.02 -2.17 27.93 -0.49 42 0 c 5.07 0.18 10.02 1.85 15 2 c 6.26 0.18 14.33 1.39 19 -1 c 7.83 -4.01 15.51 -15.34 24 -21 c 7.98 -5.32 27 -13 27 -13"/></svg>