<?xml version="1.0" encoding="UTF-8" standalone="no"?><!DOCTYPE svg PUBLIC "-//W3C//DTD SVG 1.1//EN" "http://www.w3.org/Graphics/SVG/1.1/DTD/svg11.dtd"><svg xmlns="http://www.w3.org/2000/svg" version="1.1" width="157" height="80"><path fill="none" stroke="#000000" stroke-width="2" stroke-linecap="round" stroke-linejoin="round" d="M 156 79 c -0.09 -0.16 -3.06 -6.15 -5 -9 c -3.77 -5.54 -7.57 -11.09 -12 -16 c -4.86 -5.38 -10.27 -10.44 -16 -15 c -7.32 -5.82 -15.2 -11.8 -23 -16 c -4.66 -2.51 -10.49 -3.58 -16 -5 c -6.38 -1.64 -13.2 -3.57 -19 -4 c -2.46 -0.18 -5.79 0.89 -8 2 c -2.09 1.05 -5.05 3.1 -6 5 c -1.36 2.72 -1.63 7.33 -2 11 c -0.3 2.95 -0.43 6.15 0 9 c 0.54 3.61 1.53 7.88 3 11 c 1.01 2.14 3.09 4.47 5 6 c 2.85 2.28 6.62 4.71 10 6 c 3.24 1.23 7.33 1.59 11 2 c 2.3 0.26 5.62 1.01 7 0 c 2.69 -1.97 6.68 -7.16 8 -11 c 2.35 -6.87 3.5 -16.06 4 -24 c 0.49 -7.84 0.98 -18.59 -1 -24 c -0.96 -2.63 -6.69 -5.32 -10 -6 c -5.39 -1.12 -13.98 -1.16 -19 0 c -2.43 0.56 -5.15 3.71 -7 6 c -3.62 4.48 -7.13 9.99 -10 15 c -1.01 1.76 -0.95 4.79 -2 6 c -0.9 1.03 -3.67 2.13 -5 2 c -1.44 -0.14 -3.3 -2.74 -5 -3 c -6.13 -0.94 -13.97 -1 -21 -1 c -3.7 0 -8 0.06 -11 1 l -5 4"/></svg>