<?xml version="1.0" encoding="UTF-8" standalone="no"?><!DOCTYPE svg PUBLIC "-//W3C//DTD SVG 1.1//EN" "http://www.w3.org/Graphics/SVG/1.1/DTD/svg11.dtd"><svg xmlns="http://www.w3.org/2000/svg" version="1.1" width="241" height="46"><path fill="none" stroke="#000000" stroke-width="2" stroke-linecap="round" stroke-linejoin="round" d="M 240 45 c -0.12 -0.03 -4.97 -0.87 -7 -2 c -9.52 -5.29 -18.8 -13.29 -29 -18 c -19.88 -9.17 -49.41 -19.87 -62 -24 c -0.68 -0.22 -1.91 1.98 -2 3 c -0.5 5.95 1.18 16.09 0 21 c -0.4 1.69 -3.99 3.6 -6 4 c -3.91 0.78 -9.24 0.3 -14 0 c -16.73 -1.06 -32.26 -3.15 -49 -4 c -10.21 -0.52 -20.04 -0.61 -30 0 c -6.38 0.39 -12.66 1.63 -19 3 c -6.16 1.33 -14.17 5 -18 5 l -3 -5"/></svg>