<?xml version="1.0" encoding="UTF-8" standalone="no"?><!DOCTYPE svg PUBLIC "-//W3C//DTD SVG 1.1//EN" "http://www.w3.org/Graphics/SVG/1.1/DTD/svg11.dtd"><svg xmlns="http://www.w3.org/2000/svg" version="1.1" width="197" height="84"><path fill="none" stroke="#000000" stroke-width="2" stroke-linecap="round" stroke-linejoin="round" d="M 1 48 c 0.25 -0.24 9.44 -9.06 14 -14 c 3.6 -3.9 7.52 -7.7 10 -12 c 3.62 -6.29 8.17 -20.69 9 -21 c 0.66 -0.25 -2.08 12.62 -1 18 c 1.72 8.59 5.32 19.67 10 27 c 4.6 7.2 12.95 14.47 20 20 c 4.8 3.76 11.13 6.26 17 9 c 4.25 1.98 9.34 4.39 13 5 c 1.42 0.24 4.43 -0.86 5 -2 c 1.28 -2.57 1.7 -7.98 2 -12 c 0.37 -4.96 0.47 -10.76 0 -15 c -0.11 -1.02 -2.2 -3.07 -2 -3 c 1.31 0.48 14.73 5.99 21 10 c 5.35 3.42 9.66 9.34 15 13 c 6.15 4.21 13.5 7.88 20 11 c 1.45 0.7 3.58 1.24 5 1 c 2.13 -0.35 4.84 -1.82 7 -3 c 1.42 -0.77 2.58 -2.63 4 -3 c 4.29 -1.13 9.94 -1.61 15 -2 l 11 0"/></svg>