<?xml version="1.0" encoding="UTF-8" standalone="no"?><!DOCTYPE svg PUBLIC "-//W3C//DTD SVG 1.1//EN" "http://www.w3.org/Graphics/SVG/1.1/DTD/svg11.dtd"><svg xmlns="http://www.w3.org/2000/svg" version="1.1" width="149" height="57"><path fill="none" stroke="#000000" stroke-width="2" stroke-linecap="round" stroke-linejoin="round" d="M 148 34 c -0.12 -0.3 -4.3 -11.61 -7 -17 c -1.59 -3.17 -3.63 -6.78 -6 -9 c -2.56 -2.4 -6.67 -5.03 -10 -6 c -4.01 -1.17 -9.83 -1.52 -14 -1 c -3.2 0.4 -7.24 2.22 -10 4 c -2.53 1.64 -5.32 4.42 -7 7 c -2.42 3.73 -4.89 8.71 -6 13 c -1.09 4.21 -1.37 9.72 -1 14 c 0.25 2.89 1.31 6.94 3 9 c 2.43 2.95 8.6 7.52 11 8 c 1.13 0.23 3.81 -3.37 4 -5 c 0.36 -3.1 -0.27 -9 -2 -12 c -2.72 -4.72 -8.24 -10.32 -13 -14 c -5.13 -3.97 -12 -8.36 -18 -10 c -7.6 -2.07 -17.1 -1.62 -26 -2 c -7.16 -0.3 -15.1 -1.69 -21 0 c -6.79 1.94 -14.43 7.89 -21 12 l -3 3"/></svg>