<?xml version="1.0" encoding="UTF-8" standalone="no"?><!DOCTYPE svg PUBLIC "-//W3C//DTD SVG 1.1//EN" "http://www.w3.org/Graphics/SVG/1.1/DTD/svg11.dtd"><svg xmlns="http://www.w3.org/2000/svg" version="1.1" width="261" height="71"><path fill="none" stroke="#000000" stroke-width="2" stroke-linecap="round" stroke-linejoin="round" d="M 35 63 c 0.04 -0.16 1.79 -6.01 2 -9 c 0.44 -6.17 1.39 -13.97 0 -19 c -0.94 -3.39 -5.06 -7.4 -8 -10 c -2.37 -2.09 -5.89 -3.54 -9 -5 c -2.58 -1.21 -5.31 -2.28 -8 -3 c -2.23 -0.59 -5.44 -1.47 -7 -1 c -1.11 0.33 -2.57 2.61 -3 4 c -0.77 2.52 -0.86 5.95 -1 9 c -0.2 4.39 -0.53 8.91 0 13 c 0.43 3.29 1.19 7.71 3 10 c 2.59 3.29 7.78 6.96 12 9 c 5.6 2.71 12.57 4.65 19 6 c 7.81 1.63 17.33 3 24 3 c 1.61 0 5.11 -2.36 5 -3 c -0.12 -0.74 -3.92 -2.22 -6 -3 c -3.23 -1.21 -6.64 -2.39 -10 -3 c -3.87 -0.7 -12.21 -0.99 -12 -1 c 0.68 -0.03 25.92 -0.95 39 0 c 19.27 1.4 37.53 5.53 57 7 c 21.03 1.59 44.39 2.75 62 2 c 2.68 -0.11 8.3 -4.19 8 -5 c -0.37 -0.98 -11.36 -2.95 -11 -3 c 1.38 -0.17 35.46 0.23 43 -1 c 1.05 -0.17 1.09 -5.29 0 -6 c -4.48 -2.92 -22.34 -8.83 -23 -9 c -0.23 -0.06 4.54 3.7 7 5 c 3.08 1.63 6.61 3.08 10 4 c 3.83 1.04 7.98 1.65 12 2 c 3.63 0.32 9.05 1.49 11 0 c 2.54 -1.94 4.93 -8.61 6 -13 c 1.8 -7.42 2.78 -16.36 3 -24 c 0.1 -3.53 -0.51 -8.31 -2 -11 c -1.42 -2.56 -5.28 -6.09 -8 -7 c -3.33 -1.11 -11.11 -1.49 -13 0 c -1.61 1.26 -0.93 7.25 -1 11 c -0.27 14.27 0 42 0 42"/></svg>