<?xml version="1.0" encoding="UTF-8" standalone="no"?><!DOCTYPE svg PUBLIC "-//W3C//DTD SVG 1.1//EN" "http://www.w3.org/Graphics/SVG/1.1/DTD/svg11.dtd"><svg xmlns="http://www.w3.org/2000/svg" version="1.1" width="176" height="77"><path fill="none" stroke="#000000" stroke-width="2" stroke-linecap="round" stroke-linejoin="round" d="M 1 43 c 0.02 -0.12 0.3 -4.81 1 -7 c 2.24 -6.96 4.88 -15.2 8 -21 c 1.08 -2.01 4.64 -5.12 6 -5 c 1.36 0.12 4 3.81 5 6 c 2.44 5.32 3.69 11.91 6 18 c 5.25 13.83 11.02 29.54 16 40 c 0.52 1.09 3.11 2.3 4 2 c 1.41 -0.47 4.28 -3.07 5 -5 c 2.85 -7.59 5.08 -17.78 7 -27 c 1.46 -7.01 1.58 -14.09 3 -21 c 0.91 -4.43 3.01 -8.64 4 -13 c 0.66 -2.91 -0.18 -9.15 1 -9 c 3.27 0.43 14.41 8.31 22 12 c 4.89 2.38 10.45 4.92 15 6 c 1.71 0.41 4.91 -0.22 6 -1 c 0.74 -0.53 1.24 -2.87 1 -4 c -0.63 -2.95 -2.07 -8.07 -4 -10 c -1.7 -1.7 -8.34 -3.77 -9 -3 c -0.72 0.85 1.3 7.34 3 10 c 3.24 5.06 8.35 11.42 13 15 c 3.26 2.51 8.81 4 13 5 c 2.41 0.57 5.99 0.89 8 0 c 3.22 -1.43 7.21 -4.96 10 -8 c 4.35 -4.75 10.27 -15.38 12 -16 c 0.97 -0.34 0.94 8.03 2 11 c 0.4 1.13 1.86 2.48 3 3 c 2.8 1.29 6.91 1.81 10 3 l 3 2"/></svg>