<?xml version="1.0" encoding="UTF-8" standalone="no"?><!DOCTYPE svg PUBLIC "-//W3C//DTD SVG 1.1//EN" "http://www.w3.org/Graphics/SVG/1.1/DTD/svg11.dtd"><svg xmlns="http://www.w3.org/2000/svg" version="1.1" width="150" height="61"><path fill="none" stroke="#000000" stroke-width="2" stroke-linecap="round" stroke-linejoin="round" d="M 45 60 c 0.02 -0.49 -0.3 -19.09 1 -28 c 0.97 -6.64 3.83 -13.75 6 -20 c 0.38 -1.08 1.21 -2.82 2 -3 c 1.55 -0.34 6.13 -0.4 7 1 c 3.69 5.94 6.96 18.73 11 28 c 1.68 3.86 3.56 8.07 6 11 c 2.22 2.67 6.03 5.42 9 7 c 1.58 0.84 4.12 1.12 6 1 c 3.15 -0.2 7.69 -0.46 10 -2 c 2.9 -1.93 5.6 -6.5 8 -10 c 1.93 -2.82 3.64 -5.87 5 -9 c 1.97 -4.52 3.82 -9.52 5 -14 c 0.4 -1.51 -0.09 -5.17 0 -5 c 0.28 0.5 2.61 9.98 5 14 c 3.66 6.17 9.27 12.78 14 18 c 1.21 1.34 4 3.33 5 3 c 1.23 -0.41 3.66 -4.46 4 -6 c 0.17 -0.77 -1.17 -2.75 -2 -3 c -1.84 -0.55 -5.4 -0.41 -8 0 c -14.24 2.23 -33.33 9.87 -43 8 c -5.22 -1.01 -9.01 -12.66 -14 -19 c -3.9 -4.95 -7.62 -9.96 -12 -14 c -4.08 -3.77 -9.2 -7.2 -14 -10 c -3.01 -1.75 -6.67 -3.36 -10 -4 c -4.95 -0.95 -14.45 -3.28 -16 -1 c -2.52 3.71 -1 17.58 -1 26 c 0 1.65 0.27 4.12 1 5 c 0.59 0.71 3.61 1.61 4 1 c 1.16 -1.83 2.5 -8.04 3 -12 c 0.48 -3.84 1.29 -9.42 0 -12 c -1.16 -2.33 -5.9 -4.53 -9 -6 c -2.99 -1.42 -6.65 -2.42 -10 -3 c -4.19 -0.73 -10.24 -1.97 -13 -1 c -1.71 0.6 -3.26 4.77 -4 7 l 0 5"/></svg>