<?xml version="1.0" encoding="UTF-8" standalone="no"?><!DOCTYPE svg PUBLIC "-//W3C//DTD SVG 1.1//EN" "http://www.w3.org/Graphics/SVG/1.1/DTD/svg11.dtd"><svg xmlns="http://www.w3.org/2000/svg" version="1.1" width="204" height="52"><path fill="none" stroke="#000000" stroke-width="2" stroke-linecap="round" stroke-linejoin="round" d="M 1 49 c 0 -0.66 -0.21 -35.72 0 -38 c 0.03 -0.35 2.3 3.26 3 5 c 1.25 3.12 1.62 6.93 3 10 c 1.54 3.43 3.63 7.07 6 10 c 3.16 3.9 7.21 8.21 11 11 c 2.08 1.53 5.32 2.37 8 3 c 2.84 0.67 6.36 1.42 9 1 c 3.14 -0.5 8.2 -1.86 10 -4 c 2.7 -3.21 4.28 -9.84 6 -15 c 1.65 -4.96 2.46 -10.38 4 -15 c 0.36 -1.07 1.65 -3.31 2 -3 c 1.25 1.11 4.37 7.81 7 11 c 1.86 2.26 4.61 4.95 7 6 c 2.35 1.03 6.07 1 9 1 c 2.61 0 6.1 -0.24 8 -1 c 0.85 -0.34 2.26 -2.39 2 -3 c -0.47 -1.09 -3.54 -2.54 -5 -4 c -1.14 -1.14 -3.05 -4.07 -3 -4 c 0.25 0.31 9.06 12.62 14 18 c 2.16 2.36 6.63 6.73 8 6 c 2.14 -1.14 5.54 -9.23 7 -14 c 2.08 -6.81 2.92 -14.7 4 -22 c 0.24 -1.63 -0.47 -3.89 0 -5 c 0.34 -0.8 2 -1.95 3 -2 c 5.3 -0.24 12.53 1 19 1 c 9.53 0 22.87 -2.99 28 -1 c 2.44 0.95 1.65 9.41 3 13 c 0.43 1.14 2.02 2.9 3 3 c 1.68 0.17 4.84 -1.02 7 -2 c 5.05 -2.3 10.04 -5.65 15 -8 l 4 -1"/></svg>