<?xml version="1.0" encoding="UTF-8" standalone="no"?><!DOCTYPE svg PUBLIC "-//W3C//DTD SVG 1.1//EN" "http://www.w3.org/Graphics/SVG/1.1/DTD/svg11.dtd"><svg xmlns="http://www.w3.org/2000/svg" version="1.1" width="82" height="118"><path fill="none" stroke="#000000" stroke-width="2" stroke-linecap="round" stroke-linejoin="round" d="M 50 117 c -0.02 -0.51 0.1 -19.76 -1 -29 c -0.52 -4.33 -2.11 -9.6 -4 -13 c -1.08 -1.95 -5.6 -5.56 -6 -5 c -0.62 0.87 1.57 12.53 1 12 c -2.45 -2.29 -21.3 -27.98 -32 -41 c -1.32 -1.6 -4.58 -4.61 -5 -4 c -0.94 1.34 -3.43 14.06 -2 14 c 3.03 -0.13 17.02 -10.16 26 -15 c 4.28 -2.31 8.9 -4.63 13 -6 c 1.43 -0.48 3.47 0.36 5 0 c 3.87 -0.91 9.11 -1.69 12 -4 c 6.15 -4.92 11.78 -13.52 18 -20 l 6 -5"/></svg>