<?xml version="1.0" encoding="UTF-8" standalone="no"?><!DOCTYPE svg PUBLIC "-//W3C//DTD SVG 1.1//EN" "http://www.w3.org/Graphics/SVG/1.1/DTD/svg11.dtd"><svg xmlns="http://www.w3.org/2000/svg" version="1.1" width="133" height="104"><path fill="none" stroke="#000000" stroke-width="2" stroke-linecap="round" stroke-linejoin="round" d="M 1 97 l 1 1"/><path fill="none" stroke="#000000" stroke-width="2" stroke-linecap="round" stroke-linejoin="round" d="M 1 97 c 0.04 -0.16 0.84 -6.29 2 -9 c 2.71 -6.32 7.86 -12.36 10 -19 c 7 -21.75 17.41 -60.62 18 -68 c 0.12 -1.46 -11.7 2.29 -13 5 c -2.06 4.28 -0.7 14.84 0 22 c 0.62 6.32 1.3 14.01 4 19 c 3.35 6.19 10.31 12.13 16 18 c 4.85 5 9.77 9.64 15 14 c 2.76 2.3 5.87 4.51 9 6 c 3.66 1.74 8.43 3.33 12 4 c 1.16 0.22 3.06 -1.47 4 -1 c 4.44 2.22 10.86 8.06 16 11 c 1.35 0.77 3.33 0.92 5 1 c 5.57 0.25 11.4 0.4 17 0 c 3.68 -0.26 8.34 -2.5 11 -2 l 5 5"/></svg>