<?xml version="1.0" encoding="UTF-8" standalone="no"?><!DOCTYPE svg PUBLIC "-//W3C//DTD SVG 1.1//EN" "http://www.w3.org/Graphics/SVG/1.1/DTD/svg11.dtd"><svg xmlns="http://www.w3.org/2000/svg" version="1.1" width="94" height="85"><path fill="none" stroke="#000000" stroke-width="2" stroke-linecap="round" stroke-linejoin="round" d="M 93 84 c -0.1 -0.38 -3.58 -14.61 -6 -22 c -3.72 -11.37 -7.34 -22.57 -12 -33 c -2.21 -4.94 -5.63 -9.74 -9 -14 c -2.86 -3.62 -6.49 -7.27 -10 -10 c -2.22 -1.73 -5.41 -3.35 -8 -4 c -2.32 -0.58 -5.44 -0.32 -8 0 c -2.64 0.33 -6.02 0.85 -8 2 c -1.53 0.9 -3.73 3.31 -4 5 c -0.58 3.7 -1.15 11.85 1 14 c 3.06 3.06 12.88 4.53 19 6 c 1.84 0.44 4.89 0.69 6 0 c 0.99 -0.62 2 -3.7 2 -5 c 0 -0.87 -1.13 -2.87 -2 -3 c -5.82 -0.9 -16.59 -1.62 -24 -1 c -3.9 0.33 -8.25 2.3 -12 4 c -3.46 1.57 -6.75 3.83 -10 6 c -1.78 1.19 -3.57 2.57 -5 4 l -2 3"/></svg>