<?xml version="1.0" encoding="UTF-8" standalone="no"?><!DOCTYPE svg PUBLIC "-//W3C//DTD SVG 1.1//EN" "http://www.w3.org/Graphics/SVG/1.1/DTD/svg11.dtd"><svg xmlns="http://www.w3.org/2000/svg" version="1.1" width="195" height="66"><path fill="none" stroke="#000000" stroke-width="2" stroke-linecap="round" stroke-linejoin="round" d="M 182 24 c 0.12 0.07 4.66 3.03 7 4 c 1.48 0.62 4.39 1.49 5 1 c 0.6 -0.48 0.38 -3.49 0 -5 c -0.88 -3.53 -1.63 -8.99 -4 -11 c -4.99 -4.22 -14.79 -9.08 -22 -11 c -6.74 -1.8 -15.45 -1.21 -23 -1 c -4.31 0.12 -9.19 0.67 -13 2 c -3.38 1.18 -7.54 3.54 -10 6 c -2.75 2.75 -5.5 7.57 -7 11 c -0.57 1.31 -0.3 3.49 0 5 c 0.32 1.62 1.01 3.76 2 5 c 1.44 1.8 3.91 3.88 6 5 c 1.95 1.05 4.7 1.65 7 2 c 1.89 0.29 6.11 -0.04 6 0 c -0.21 0.08 -7.37 1.02 -11 2 c -8.84 2.39 -17.49 5 -26 8 c -2.8 0.99 -5.36 2.56 -8 4 c -1.06 0.58 -2.62 1.16 -3 2 c -0.74 1.66 -0.21 5.1 -1 7 c -0.72 1.72 -2.66 5 -4 5 c -2.91 0 -9.16 -2.75 -13 -5 c -5.51 -3.23 -10.33 -8.76 -16 -12 c -8.12 -4.64 -17.16 -9 -26 -12 c -8.54 -2.9 -25.58 -5.43 -27 -6 c -0.37 -0.15 4.69 -1.77 7 -2 c 4.13 -0.41 8.7 0.4 13 0 c 6.37 -0.6 13.06 -1.71 19 -3 l 4 -2"/></svg>