<?xml version="1.0" encoding="UTF-8" standalone="no"?><!DOCTYPE svg PUBLIC "-//W3C//DTD SVG 1.1//EN" "http://www.w3.org/Graphics/SVG/1.1/DTD/svg11.dtd"><svg xmlns="http://www.w3.org/2000/svg" version="1.1" width="181" height="51"><path fill="none" stroke="#000000" stroke-width="2" stroke-linecap="round" stroke-linejoin="round" d="M 180 50 c -0.28 -0.3 -10.24 -11.92 -16 -17 c -5.47 -4.83 -11.71 -8.81 -18 -13 c -4.96 -3.3 -9.78 -6.31 -15 -9 c -5.21 -2.69 -10.55 -5.05 -16 -7 c -3.86 -1.38 -8.06 -2.38 -12 -3 c -2.23 -0.35 -5.42 -0.79 -7 0 c -1.76 0.88 -4.08 3.89 -5 6 c -1.2 2.75 -1.85 6.75 -2 10 c -0.17 3.83 -0.49 9.16 1 12 c 1.66 3.17 6.39 6.73 10 9 c 5.05 3.18 11.33 6.11 17 8 c 3.97 1.32 8.64 1.62 13 2 c 3.32 0.29 8.01 1.19 10 0 c 2.04 -1.23 4.1 -6.01 5 -9 c 0.96 -3.21 1.19 -7.59 1 -11 c -0.12 -2.25 -0.63 -5.72 -2 -7 c -2.53 -2.35 -7.9 -4.68 -12 -6 c -5.94 -1.92 -12.68 -3.44 -19 -4 c -8.47 -0.75 -18.05 -0.88 -26 0 c -3.29 0.37 -7.51 2.18 -10 4 c -1.99 1.46 -3.92 4.66 -5 7 c -0.76 1.65 -0.33 4.32 -1 6 c -0.55 1.38 -1.87 3.5 -3 4 c -1.35 0.6 -4.13 0.35 -6 0 c -3.26 -0.61 -6.58 -2.22 -10 -3 c -3.99 -0.91 -7.97 -1.83 -12 -2 c -11.6 -0.49 -24.57 -0.53 -35 0 l -4 2"/></svg>