<?xml version="1.0" encoding="UTF-8" standalone="no"?><!DOCTYPE svg PUBLIC "-//W3C//DTD SVG 1.1//EN" "http://www.w3.org/Graphics/SVG/1.1/DTD/svg11.dtd"><svg xmlns="http://www.w3.org/2000/svg" version="1.1" width="227" height="68"><path fill="none" stroke="#000000" stroke-width="2" stroke-linecap="round" stroke-linejoin="round" d="M 118 67 c 0 -0.23 -0.27 -8.6 0 -13 c 0.41 -6.8 0.69 -13.64 2 -20 c 0.97 -4.7 3.01 -9.47 5 -14 c 1.68 -3.81 3.49 -8.19 6 -11 c 2.73 -3.05 7.4 -6.75 11 -8 c 3.17 -1.1 8.33 -0.71 12 0 c 4.55 0.88 10.16 2.48 14 5 c 7.15 4.7 13.91 11.63 21 18 c 6.35 5.7 12.03 11.03 18 17 c 3.24 3.24 5.82 7.21 9 10 c 1.91 1.67 4.88 2.52 7 4 c 1.11 0.78 3.06 3.05 3 3 c -0.23 -0.21 -8.35 -8.59 -13 -12 c -5.19 -3.8 -11.19 -7.82 -17 -10 c -6.93 -2.6 -15.35 -4.34 -23 -5 c -11.37 -0.98 -25.91 -1.33 -35 0 c -2.2 0.32 -5.12 3.95 -6 6 c -0.83 1.93 -0.36 5.51 0 8 c 0.28 1.97 1.07 4.52 2 6 c 0.53 0.84 3.04 2.04 3 2 c -0.1 -0.1 -3.84 -3.56 -6 -5 c -4.84 -3.23 -9.76 -6.7 -15 -9 c -8.24 -3.62 -17.45 -8.03 -26 -9 c -16.48 -1.88 -35.9 -0.3 -53 0 c -1.33 0.02 -3.17 1.28 -4 1 c -0.73 -0.24 -1.13 -2.33 -2 -3 c -3.14 -2.41 -7.24 -5.75 -11 -7 l -19 -3"/></svg>