<?xml version="1.0" encoding="UTF-8" standalone="no"?><!DOCTYPE svg PUBLIC "-//W3C//DTD SVG 1.1//EN" "http://www.w3.org/Graphics/SVG/1.1/DTD/svg11.dtd"><svg xmlns="http://www.w3.org/2000/svg" version="1.1" width="313" height="76"><path fill="none" stroke="#000000" stroke-width="2" stroke-linecap="round" stroke-linejoin="round" d="M 312 34 c -0.82 -0.42 -30.98 -16.49 -47 -24 c -5.47 -2.56 -11.2 -4.37 -17 -6 c -4.92 -1.38 -10.01 -2.52 -15 -3 c -5.22 -0.51 -11.48 -1.04 -16 0 c -3.29 0.76 -6.88 3.75 -10 6 c -2.84 2.05 -6.35 4.39 -8 7 c -1.97 3.11 -3.29 7.94 -4 12 c -1.58 9.04 1.38 23.62 -3 28 c -5.85 5.85 -23.7 8.47 -36 11 c -21.82 4.49 -43.87 7.7 -66 10 c -9.94 1.04 -20.79 0.53 -30 0 c -1.65 -0.09 -4.07 -1.07 -5 -2 c -0.71 -0.71 -1 -2.75 -1 -4 c 0 -1.85 0.43 -4.06 1 -6 c 1.77 -6.06 4.5 -12.23 6 -18 c 0.4 -1.52 0.46 -3.61 0 -5 c -0.74 -2.23 -2.2 -5.83 -4 -7 c -3.04 -1.97 -8.62 -3.23 -13 -4 c -6.8 -1.2 -13.85 -1.65 -21 -2 c -6.78 -0.33 -15.76 -0.96 -20 0 c -1.14 0.26 -2.21 3.64 -2 5 c 0.35 2.26 2.49 5.63 4 8 c 0.72 1.12 2.08 3 3 3 c 1.66 0 5.13 -1.59 7 -3 c 3.13 -2.35 5.74 -6.24 9 -9 l 17 -13"/></svg>