<?xml version="1.0" encoding="UTF-8" standalone="no"?><!DOCTYPE svg PUBLIC "-//W3C//DTD SVG 1.1//EN" "http://www.w3.org/Graphics/SVG/1.1/DTD/svg11.dtd"><svg xmlns="http://www.w3.org/2000/svg" version="1.1" width="275" height="46"><path fill="none" stroke="#000000" stroke-width="2" stroke-linecap="round" stroke-linejoin="round" d="M 4 16 c -0.04 0.05 -1.61 1.97 -2 3 c -0.55 1.46 -1.4 3.93 -1 5 c 0.39 1.05 2.54 2.32 4 3 c 7.6 3.53 15.77 7.36 24 10 c 9.44 3.03 19.32 5.73 29 7 c 10.38 1.36 21.22 1.2 32 1 c 7.78 -0.14 16.71 -0.1 23 -2 c 3.49 -1.06 8.14 -4.95 10 -8 c 2.25 -3.7 3.18 -10.09 4 -15 c 0.47 -2.85 0.37 -6.2 0 -9 c -0.26 -1.97 -0.77 -4.97 -2 -6 c -2.1 -1.75 -6.72 -3.53 -10 -4 c -5.48 -0.78 -12.04 -0.25 -18 0 c -2.02 0.08 -5.16 0.04 -6 1 c -0.97 1.11 -1 4.73 -1 7 c 0 2.58 -0.24 6.42 1 8 c 1.79 2.28 6.53 4.77 10 6 c 6.43 2.28 13.85 3.72 21 5 c 5.99 1.08 12.17 2 18 2 c 4.55 0 10.15 -0.25 14 -2 c 6.27 -2.85 12.73 -10.15 19 -13 c 3.85 -1.75 9.23 -1.68 14 -2 c 10.45 -0.7 21.49 -1.68 31 -1 c 3.59 0.26 7.44 3.21 11 4 c 2.13 0.47 5.12 -0.51 7 0 c 1.34 0.37 2.59 2.41 4 3 c 2.33 0.97 5.39 1.9 8 2 c 5.38 0.22 11.82 0 17 -1 l 9 -4"/></svg>